<?xml version="1.0" standalone="no"?>
<!DOCTYPE svg PUBLIC "-//W3C//DTD SVG 1.1//EN" "http://www.w3.org/Graphics/SVG/1.1/DTD/svg11.dtd" >
<svg>
<metadata>
Created by FontForge 20090914 at Mon Jan 23 16:23:10 2023
 By www-data
Copyright (c) 2018 by MaulanaCreative. All rights reserved.
</metadata>
<defs>
<font id="SmithAllison" horiz-adv-x="187" >
  <font-face 
    font-family="Smith Allison"
    font-weight="400"
    font-stretch="normal"
    units-per-em="1000"
    panose-1="0 0 0 0 0 0 0 0 0 0"
    ascent="750"
    descent="-250"
    x-height="181.004"
    cap-height="741"
    bbox="-254.004 -242.287 977.001 746.001"
    underline-thickness="50"
    underline-position="-50"
    unicode-range="U+000D-U+201D"
  />
<missing-glyph horiz-adv-x="171" 
 />
    <glyph glyph-name="r_r" unicode="rr" horiz-adv-x="319" 
d="M332 160c2.66699 -2 3.97949 -4 3.97949 -6c0 -1.33301 -0.333008 -2.33301 -1 -3l-12 -16l-95 -123c-0.666992 -0.666992 -1.16699 -1.33398 -1.5 -2.00098s-1.16602 -1.33398 -2.49902 -2.00098c-3.33301 -4.66699 -8 -9 -14 -13s-12.333 -4.33301 -19 -1
c-4 2.66699 -6.16699 7.16699 -6.5 13.5s0.166992 13.166 1.5 20.499l1 2c2 10.667 4.83301 20.334 8.5 29.001s5.83398 13.334 6.50098 14.001c2 7.33301 4.33301 14 7 20c2.66699 7.33301 2.66699 16.333 0 27c-0.666992 6.66699 -4.66699 11 -12 13
c-3.33301 0.666992 -6.16602 1.33398 -8.49902 2.00098s-5.16602 1.33398 -8.49902 2.00098c-1.33301 0.666992 -3 1.16699 -5 1.5s-4.33301 1.16602 -7 2.49902l-5 -6l-86 -112l-9.5 -10c-3.66699 -4 -7.66699 -7.83301 -12 -11.5s-8.66602 -6.16699 -12.999 -7.5
s-8.16602 -1 -11.499 1h-1c-3.33301 3.33301 -5.16602 7.83301 -5.49902 13.5s0.166992 12.167 1.5 19.5l1 2c2 10.667 4.83301 20.334 8.5 29.001s5.83398 13.334 6.50098 14.001c2 7.33301 4.33301 14 7 20c2 8.66699 2 17.667 0 27c-0.666992 6.66699 -4.66699 11 -12 13
c-3.33301 0.666992 -6.16602 1.33398 -8.49902 2.00098s-5.16602 1.33398 -8.49902 2.00098c-4 1.33301 -10 3.83301 -18 7.5s-14.667 9.16699 -20 16.5c-5.33301 9.33301 -8.66602 20.666 -9.99902 33.999c-1.33301 18 0 35.5 4 52.5s10.667 34.167 20 51.5
c6.66699 12.667 14.334 22.334 23.001 29.001c5.33301 4.66699 11 7.33398 17 8.00098c18 2 27.333 -5.66699 28 -23c0.666992 -6.66699 0.5 -13.334 -0.5 -20.001s-2.16699 -13.667 -3.5 -21c-3.33301 -18 -7.83301 -35.667 -13.5 -53s-12.167 -34.666 -19.5 -51.999
c-1.33301 -1.33301 -2.66602 -4 -3.99902 -8c2 -2 4.16699 -3.33301 6.5 -4s4.83301 -1.66699 7.5 -3c3.33301 -0.666992 6.5 -1.33398 9.5 -2.00098s6.16699 -1.33398 9.5 -2.00098c11.333 -3.33301 19.833 -8.83301 25.5 -16.5s6.83398 -19.834 3.50098 -36.501
c-2 -8 -4.66699 -16 -8 -24l-10 -23c0 -0.666992 -0.666992 -2.33398 -2 -5.00098l29 37l26.5 36c9.66699 12.667 18.834 25.334 27.501 38.001c-2.66699 2.66699 -4.66699 5 -6 7c-5.33301 9.33301 -8.66602 20.666 -9.99902 33.999c-0.666992 18 0.833008 35.5 4.5 52.5
s10.167 34.167 19.5 51.5c6.66699 12.667 14.334 22.334 23.001 29.001c5.33301 4.66699 11 7.33398 17 8.00098c18 2 27.333 -5.66699 28 -23c0.666992 -6.66699 0.5 -13.334 -0.5 -20.001s-2.16699 -13.667 -3.5 -21c-3.33301 -18 -7.83301 -35.667 -13.5 -53
s-12.167 -34.666 -19.5 -51.999c-1.33301 -1.33301 -2.66602 -4 -3.99902 -8c2 -2 4.16699 -3.33301 6.5 -4s4.83301 -1.66699 7.5 -3c3.33301 -0.666992 6.5 -1.33398 9.5 -2.00098s6.16699 -1.33398 9.5 -2.00098c11.333 -3.33301 19.833 -8.83301 25.5 -16.5
s6.83398 -19.834 3.50098 -36.501c-2 -8 -4.66699 -16 -8 -24l-10 -23c-1.33301 -3.33301 -2.66602 -6.5 -3.99902 -9.5s-2.66602 -6.16699 -3.99902 -9.5l100 126l3 3c2 2 4.33301 3 7 3c1.33301 0 2.33301 -0.333008 3 -1zM12.9795 196l7.50098 21.502
c2.33301 7 4.5 14.167 6.5 21.5c3.33301 11.333 6.16602 22.166 8.49902 32.499s3.83301 21.166 4.5 32.499v10c-6 -8 -11.5 -17.667 -16.5 -29s-8.83301 -22.833 -11.5 -34.5s-4.16699 -23 -4.5 -34s0.5 -20.167 2.5 -27.5c0.666992 2 1.66699 4.33301 3 7zM172.98 196.002
l7.50098 21.502c2.33301 7 4.5 14.167 6.5 21.5c3.33301 11.333 6.16602 22.166 8.49902 32.499s3.83301 21.166 4.5 32.499v10c-6 -8 -11.5 -17.667 -16.5 -29s-8.83301 -22.833 -11.5 -34.5s-4.16699 -23 -4.5 -34s0.5 -20.167 2.5 -27.5c0.666992 2 1.66699 4.33301 3 7z
" />
    <glyph glyph-name="s_s" unicode="ss" horiz-adv-x="247" 
d="M253 160c2 -2 2.99414 -4.66602 2.99414 -7.99902l-2 -4l-54 -46l-18 -16l-1 -1c0.666992 -2 1.33398 -4.33301 2.00098 -7c0.666992 -2 1.16699 -4.33301 1.5 -7s0.833008 -4.66699 1.5 -6c2 -11.333 0.666992 -24.333 -4 -39c-4 -16 -11.667 -30.667 -23 -44
c-5.33301 -6 -11.166 -11.333 -17.499 -16s-13.166 -8.33398 -20.499 -11.001c-1.33301 0 -3.33301 -0.666992 -6 -2h-1c-12.667 -3.33301 -22.167 -3.33301 -28.5 0s-10.5 6 -12.5 8c-7.33301 8 -9.5 17 -6.5 27s6.16699 17.667 9.5 23c8 13.333 17.333 25.666 28 36.999
s22 21.666 34 30.999c1.33301 1.33301 2.66602 2.33301 3.99902 3l4 2c0 0.666992 0.333008 1.33398 1 2.00098c-2 5.33301 -4.66699 10.333 -8 15l-10 14c-1.33301 1.33301 -2.33301 2.66602 -3 3.99902c-1.33301 1.33301 -2.83301 3 -4.5 5s-3.16699 3.66699 -4.5 5l-1 1
l-53 -43l-1 -1l-1 -1c0.666992 -2 1.33398 -4.33301 2.00098 -7c1.33301 -5.33301 2 -9.66602 2 -12.999c2 -13.333 1 -26.333 -3 -39c-4.66699 -16 -12.334 -30.667 -23.001 -44c-5.33301 -6 -11.166 -11.333 -17.499 -16s-13.166 -8.33398 -20.499 -11.001
c-2 0 -4.33301 -0.666992 -7 -2c-12.667 -3.33301 -22.167 -3.33301 -28.5 0s-10.833 6 -13.5 8c-3.33301 4 -5.33301 8.33301 -6 13s-0.5 9.33398 0.5 14.001s2.33301 9 4 13s3.16699 7.33301 4.5 10c17.333 26.667 38.333 49.334 63 68.001c2 2 4.33301 3.66699 7 5
c0.666992 0.666992 1 1.33398 1 2.00098c-3.33301 10 -9.33301 19.667 -18 29l-2 4h-1c-1.33301 1.33301 -2.83301 3 -4.5 5s-3.16699 3.66699 -4.5 5c-2 2 -3.66699 4.16699 -5 6.5s-2.66602 4.16602 -3.99902 5.49902c-1.33301 2 -2.33301 3.66699 -3 5
c-7.33301 12.667 -9.16602 26 -5.49902 40s11.834 24.667 24.501 32c8 5.33301 16.333 7 25 5c6.66699 -1.33301 11.667 -4.5 15 -9.5s4.33301 -10.833 3 -17.5c-1.33301 -7.33301 -3.5 -14 -6.5 -20s-6.83301 -11.667 -11.5 -17l-12 -12l18 -22.5
c6 -7.66699 12.333 -15.167 19 -22.5l52 43l-1 1c-7.33301 12.667 -9 26 -5 40s12.333 24.667 25 32c7.33301 5.33301 15.666 7 24.999 5c14 -3.33301 20 -12.333 18 -27c-2.66699 -12.667 -9 -25 -19 -37c-2 -2.66699 -5.66699 -6.66699 -11 -12l36 -45l73 57
c2.66699 2.66699 5 3 7 1zM8.99414 166.001c6.66699 5.33301 11.5 12.332 14.5 20.999s2.83301 16.334 -0.5 23.001c-11.333 -14 -16 -28.667 -14 -44zM30.9941 42c0.666992 3.33301 1.16699 6.66992 1.5 10.0029s0.166016 6.66602 -0.500977 9.99902
c-1.33301 0 -2.33301 -0.333008 -3 -1c-23.333 -20.667 -41.333 -44.334 -54 -71.001c-1.33301 -2 -2.16602 -4.16699 -2.49902 -6.5s-0.833008 -4.5 -1.5 -6.5c0 -8.66699 3.66699 -11.334 11 -8.00098c8 3.33301 14.667 8 20 14c14 16 23.667 35.667 29 59z
M142.994 210.004c-5.33301 -7.33301 -9.33203 -14.501 -11.999 -21.501s-3.33398 -14.5 -2.00098 -22.5c6.66699 5.33301 11.5 12.333 14.5 21s2.83301 16.334 -0.5 23.001zM151.995 42.0029c0.666992 3.33301 1.16406 6.66699 1.49707 10s-0.166992 6.66602 -1.5 9.99902
c-1.33301 0 -2 -0.333008 -2 -1c-11.333 -10 -21.666 -20.833 -30.999 -32.5s-17 -24.5 -23 -38.5c-2.66699 -5.33301 -4 -9.66602 -4 -12.999c-1.33301 -8.66699 2.33398 -11.334 11.001 -8.00098c6.66699 2.66699 13.334 7.33398 20.001 14.001c14 16 23.667 35.667 29 59
z" />
    <glyph glyph-name="t_t" unicode="tt" horiz-adv-x="209" 
d="M359 310c2 -4.66699 0.666992 -7.33203 -4 -7.99902h-5c-21.333 1.33301 -42.666 2 -63.999 2s-42.666 -0.333008 -63.999 -1c-7.33301 0 -14.666 -0.166992 -21.999 -0.5s-14.666 -0.5 -21.999 -0.5l-2 -9l-6 -19.5c-2 -6.33301 -3.66699 -13.166 -5 -20.499
c-14.667 -50.667 -24.334 -100.334 -29.001 -149.001c0 -2.66699 -0.166992 -5.16699 -0.5 -7.5s-0.5 -4.83301 -0.5 -7.5v-13c0 -2.66699 0.833008 -5.33398 2.5 -8.00098s5.5 -2 11.5 2c3.33301 2 6.16602 4.33301 8.49902 7s4.16602 4.66699 5.49902 6
c2.66699 4 4.33398 6.33301 5.00098 7c7.33301 8 13.333 16.333 18 25l14 27l9 16c1.33301 1.33301 2.66602 2.33301 3.99902 3c2 1.33301 5.33301 -0.333984 10 -5.00098c1.33301 -1.33301 2 -4.33301 2 -9c0 -5.33301 -1.5 -10.333 -4.5 -15
s-5.83301 -9.33398 -8.5 -14.001l-9.5 -15.5l-9.5 -15.5l-12 -15.5c-4 -5 -8.33301 -9.83301 -13 -14.5c-2 -1.33301 -4.33301 -3.33301 -7 -6l-9 -6c-5.33301 -2.66699 -10 -4 -14 -4h-4h-5h-1c-2 0 -4.33301 0.666992 -7 2c-0.666992 0 -1.33398 0.333008 -2.00098 1
c-5.33301 2.66699 -9.33301 6.5 -12 11.5s-4.66699 10.333 -6 16s-2.16602 11.167 -2.49902 16.5s-0.5 10 -0.5 14v1c-1.33301 -2.66699 -3 -5.16699 -5 -7.5s-3.66699 -5.16602 -5 -8.49902l-12 -15.5c-4 -5 -8.33301 -9.83301 -13 -14.5
c-1.33301 -1.33301 -2.5 -2.33301 -3.5 -3s-2.16699 -1.66699 -3.5 -3l-9 -6c-5.33301 -2.66699 -10 -4 -14 -4h-4h-5h-1c-0.666992 0 -3 0.666992 -7 2c-0.666992 0 -1.33398 0.333008 -2.00098 1c-5.33301 2.66699 -9.33301 6.5 -12 11.5s-4.66699 10.333 -6 16
s-2.16602 11.167 -2.49902 16.5s-0.5 10 -0.5 14s0.333008 9 1 15s1.33398 11.667 2.00098 17c0.666992 6.66699 1.33398 13 2.00098 19v1c3.33301 23.333 7.66602 46.166 12.999 68.499s11.666 44.833 18.999 67.5c1.33301 2.66699 2 4.33398 2 5.00098h-3
c-11.333 -1.33301 -22.666 -2.5 -33.999 -3.5s-22.666 -2.16699 -33.999 -3.5c-16.667 -2 -33.167 -4.33301 -49.5 -7l-49.5 -8c-4 -0.666992 -8.16699 -1.16699 -12.5 -1.5s-8.16602 1.16699 -11.499 4.5c-2.66699 1.33301 -4.33398 3.33301 -5.00098 6
c-2.66699 4 -1.33398 6 3.99902 6c15.333 3.33301 30.833 6.33301 46.5 9l46.5 8c13.333 2 26.833 3.66699 40.5 5l40.5 4c4.66699 0.666992 9.16699 1 13.5 1s9.16602 0.333008 14.499 1c3.33301 9.33301 6.5 19 9.5 29s6.16699 19.667 9.5 29v2
c1.33301 1.33301 3 2.83301 5 4.5s6 1.83398 12 0.500977c7.33301 -1.33301 12 -3.5 14 -6.5s2.66699 -5.5 2 -7.5c-2 -8.66699 -4.16699 -17 -6.5 -25l-7.5 -25h1c11.333 0.666992 22.5 1.16699 33.5 1.5s22.167 0.5 33.5 0.5c3.33301 9.33301 6.33301 18.5 9 27.5
s5.66699 18.167 9 27.5v2c0.666992 1.33301 2.16699 2.83301 4.5 4.5s6.16602 1.83398 11.499 0.500977c7.33301 -1.33301 12.166 -3.5 14.499 -6.5s3.16602 -5.5 2.49902 -7.5l-6 -23.5c-2 -7.66699 -4.33301 -15.5 -7 -23.5c12 0 24.167 0.166992 36.5 0.5
s24.5 0.5 36.5 0.5c12.667 0 25.334 -0.166992 38.001 -0.5s25.334 -0.5 38.001 -0.5c2.66699 -0.666992 5.16699 -1 7.5 -1s4.83301 -0.333008 7.5 -1c4.66699 -0.666992 8.66699 -3.33398 12 -8.00098zM135 290.002c1.33301 2.66699 2.00391 4.33691 2.00391 5.00391
c0.666992 1.33301 1 2.33301 1 3s0.333008 1.66699 1 3c-10.667 -0.666992 -21 -1.16699 -31 -1.5s-20.333 -0.833008 -31 -1.5h-5l-12 -45c-14.667 -50.667 -24.334 -100.334 -29.001 -149.001c0 -2.66699 -0.166992 -5.16699 -0.5 -7.5s-0.5 -4.83301 -0.5 -7.5v-13
c0 -2.66699 0.833008 -5.33398 2.5 -8.00098s5.5 -2 11.5 2c3.33301 2 6.16602 4.33301 8.49902 7s4.16602 4.66699 5.49902 6s2.5 2.66602 3.5 3.99902s1.83301 2.33301 2.5 3c6.66699 8 12.334 16.333 17.001 25l15 27c1.33301 2 2.66602 4.33301 3.99902 7
c1.33301 2 2.16602 3.66699 2.49902 5s0.833008 2.66602 1.5 3.99902c3.33301 22 7.5 44 12.5 66s11.167 44 18.5 66z" />
    <glyph glyph-name="l_l" unicode="ll" horiz-adv-x="207" 
d="M221 156c2 -2 3.00684 -4.99414 3.00684 -8.99414c-0.666992 -5.33301 -2.33398 -10.333 -5.00098 -15s-5.66699 -9.33398 -9 -14.001l-9.5 -15.5l-9.5 -15.5l-12 -15.5c-4 -5 -8.33301 -9.83301 -13 -14.5c-2.66699 -2.66699 -5 -4.66699 -7 -6
c-1.33301 -1.33301 -2.66602 -2.33301 -3.99902 -3s-2.66602 -1.66699 -3.99902 -3c-6.66699 -2.66699 -11.667 -4 -15 -4h-4h-4h-1c-2 0 -4.33301 0.666992 -7 2c-0.666992 0 -1.16699 0.166992 -1.5 0.5s-0.833008 0.5 -1.5 0.5c-10 5.33301 -16 14.333 -18 27
s-2.66699 23 -2 31c-1.33301 -2.66699 -3 -5.16699 -5 -7.5s-3.66699 -4.83301 -5 -7.5l-12 -15.5c-4 -5 -8.33301 -9.83301 -13 -14.5c-1.33301 -1.33301 -2.5 -2.33301 -3.5 -3s-2.16699 -1.66699 -3.5 -3l-9 -6c-5.33301 -2.66699 -10 -4 -14 -4h-4h-4h-1
c-1.33301 0 -4 0.666992 -8 2c-0.666992 0 -1 0.166992 -1 0.5s-0.333008 0.5 -1 0.5c-5.33301 2.66699 -9.33301 6.5 -12 11.5s-4.66699 10.333 -6 16s-2.16602 11.167 -2.49902 16.5s-0.5 10 -0.5 14s0.333008 9 1 15s1.33398 11.667 2.00098 17
c0.666992 6.66699 1.66699 13 3 19v1c3.33301 23.333 7.66602 46.166 12.999 68.499s11.666 44.833 18.999 67.5l27 84c0 0.666992 0.333008 1.33398 1 2.00098l6 17.5c2 5.66699 3.66699 11.5 5 17.5c0.666992 0 1 0.333008 1 1c0.666992 1.33301 2 3 4 5s6 2.33301 12 1
c7.33301 -1.33301 12.166 -3.5 14.499 -6.5s3.16602 -5.5 2.49902 -7.5c-1.33301 -3.33301 -2.33301 -6.5 -3 -9.5s-1.66699 -6.16699 -3 -9.5c-0.666992 -1.33301 -1.33398 -4 -2.00098 -8s-1.66699 -8 -3 -12c-1.33301 -4.66699 -3 -10 -5 -16l-10.5 -33.5l-8.5 -27.5
c-1.33301 -6 -2.83301 -11.833 -4.5 -17.5s-3.16699 -11.5 -4.5 -17.5c-6.66699 -24.667 -12.334 -49.334 -17.001 -74.001s-8.66699 -49.667 -12 -75c0 -2.66699 -0.166992 -5.16699 -0.5 -7.5s-0.5 -4.83301 -0.5 -7.5v-13c0 -2.66699 0.833008 -5.33398 2.5 -8.00098
s5.5 -2 11.5 2c3.33301 2 6.16602 4.33301 8.49902 7s4.16602 4.66699 5.49902 6s2.5 2.66602 3.5 3.99902s1.83301 2.33301 2.5 3c6.66699 8 12.334 16.333 17.001 25l15 27c0.666992 1.33301 1.66699 3 3 5c0.666992 1.33301 1.33398 2.83301 2.00098 4.5
s1.33398 3.16699 2.00098 4.5c3.33301 22.667 7.66602 45.167 12.999 67.5s11.666 44.5 18.999 66.5l27 84c0.666992 0.666992 1 1.33398 1 2.00098c0.666992 1.33301 2.16699 2.83301 4.5 4.5s6.16602 1.83398 11.499 0.500977c7.33301 -1.33301 12.166 -3.5 14.499 -6.5
s3.16602 -5.5 2.49902 -7.5l-16 -57l-16 -57c-6.66699 -24.667 -12.334 -49.334 -17.001 -74.001s-8.33398 -49.667 -11.001 -75c-0.666992 -2.66699 -1 -5.16699 -1 -7.5s-0.333008 -4.83301 -1 -7.5v-13c0 -2.66699 0.833008 -5.33398 2.5 -8.00098s5.5 -2 11.5 2
c6.66699 4 11.334 8.33301 14.001 13c1.33301 1.33301 2.5 2.66602 3.5 3.99902s1.83301 2.33301 2.5 3c6.66699 8 12.334 16.333 17.001 25l15 27l8 16c0.666992 1.33301 2 2.33301 4 3c2.66699 1.33301 6 -0.333984 10 -5.00098z" />
    <glyph glyph-name=".notdef" horiz-adv-x="171" 
 />
    <glyph glyph-name="NULL" horiz-adv-x="0" 
 />
    <glyph glyph-name="NULL" horiz-adv-x="0" 
 />
    <glyph glyph-name="nonmarkingreturn" unicode="&#xd;" horiz-adv-x="171" 
 />
    <glyph glyph-name="space" unicode=" " horiz-adv-x="171" 
 />
    <glyph glyph-name="exclam" unicode="!" horiz-adv-x="122" 
d="M38 114c0.666992 2.66699 1 5 1 7s0.333008 4 1 6l10.5 46l11.5 46c6 24 12.333 47.833 19 71.5s13.667 47.167 21 70.5c0.666992 4 2 7.66699 4 11c1.33301 3.33301 3 5 5 5c5.33301 0.666992 10 -1.33301 14 -6c2.66699 -2.66699 3.33398 -6.33398 2.00098 -11.001
l-4 -15.5l-4 -15.5c-4 -14.667 -8.16699 -29.167 -12.5 -43.5s-8.5 -29.166 -12.5 -44.499l-17.5 -63.5l-16.5 -63.5c-1.33301 -4 -2 -7 -2 -9c-1.33301 -4 -3 -6 -5 -6c-4 -1.33301 -7.33301 -0.5 -10 2.5s-4.33398 7.16699 -5.00098 12.5zM22 -4
c-2.66699 0.666992 -5.33398 2.00098 -8.00098 4.00098c-2 1.33301 -2.66699 3.33301 -2 6c4 10.667 9.33301 18.334 16 23.001c3.33301 1.33301 7 1.66602 11 0.999023c3.33301 -2 4 -5 2 -9c-2 -1.33301 -3.66699 -3.16602 -5 -5.49902s-2.66602 -4.5 -3.99902 -6.5
c-0.666992 -0.666992 -1 -1.33398 -1 -2.00098s-0.333008 -1.66699 -1 -3c-1.33301 -4.66699 -4 -7.33398 -8 -8.00098z" />
    <glyph glyph-name="quotedbl" unicode="&#x22;" horiz-adv-x="142" 
d="M113 381l-8.00391 2c-2.66699 0.666992 -4.66699 2 -6 4c-1.33301 0.666992 -2 2.33398 -2 5.00098c1.33301 8 3 16 5 24l6 24c0.666992 3.33301 1.33398 6.16602 2.00098 8.49902s1.33398 4.83301 2.00098 7.5c2 7.33301 6.33301 10 13 8c4 0 8 -1.33301 12 -4
c4.66699 -2.66699 6 -6.66699 4 -12l-6 -21c-2 -6.66699 -4.33301 -13.667 -7 -21c-1.33301 -3.33301 -2.16602 -6.33301 -2.49902 -9s-1.16602 -5.66699 -2.49902 -9c-1.33301 -2 -2.5 -3.66699 -3.5 -5s-3.16699 -2 -6.5 -2zM75.9961 382l-5.99805 2
c-2 0.666992 -3.66699 1.33398 -5 2.00098c-3.33301 2.66699 -4.66602 6 -3.99902 10c1.33301 5.33301 2.33301 10.666 3 15.999s1.66699 10.666 3 15.999c1.33301 4.66699 2.5 9.16699 3.5 13.5l3.5 14.5c1.33301 5.33301 4.66602 8 9.99902 8
c6.66699 -1.33301 11.667 -2.66602 15 -3.99902c2.66699 -1.33301 4.16699 -2.83301 4.5 -4.5s0.166016 -4.16699 -0.500977 -7.5c-2 -7.33301 -4.16699 -14.833 -6.5 -22.5s-4.5 -15.167 -6.5 -22.5c-0.666992 -3.33301 -2.33398 -8.33301 -5.00098 -15
c-1.33301 -4 -4.33301 -6 -9 -6z" />
    <glyph glyph-name="numbersign" unicode="#" 
d="M86 144c5.33301 1.33301 9.00293 2.0127 11.0029 2.0127c2 5.33301 3.83301 10.833 5.5 16.5s3.5 11.167 5.5 16.5c3.33301 8 8.33301 10.667 15 8c3.33301 -2 4.66602 -5 3.99902 -9c-0.666992 -3.33301 -1.33398 -7 -2.00098 -11s-1.33398 -7.66699 -2.00098 -11
c0 -1.33301 -0.666992 -4 -2 -8c2 0 4 0.166992 6 0.5s4 0.166016 6 -0.500977c4.66699 0 8 -0.333008 10 -1c1.33301 0 2.66602 -0.666992 3.99902 -2c2.66699 -1.33301 4 -3.33301 4 -6c0 -3.33301 -1.66699 -5 -5 -5s-6 0.333008 -8 1
c-1.33301 0 -2.66602 0.166992 -3.99902 0.5s-2.66602 0.5 -3.99902 0.5c-2 0 -4 -0.166992 -6 -0.5s-4.33301 -0.5 -7 -0.5c-1.33301 -4.66699 -2.66602 -9 -3.99902 -13s-2.66602 -8.33301 -3.99902 -13c2 -0.666992 4 -1 6 -1s3.66699 -0.333008 5 -1
c4.66699 -1.33301 8 -3.33301 10 -6c2 -2 2.33301 -4 1 -6c0 -2 -1.33301 -3 -4 -3c-1.33301 -0.666992 -2.5 -0.833984 -3.5 -0.500977s-2.16699 0.5 -3.5 0.5h-15c-0.666992 -1.33301 -1 -2.33301 -1 -3s-0.333008 -1.33398 -1 -2.00098
c-1.33301 -5.33301 -2.5 -10.5 -3.5 -15.5s-2.16699 -10.167 -3.5 -15.5c-2 -8 -6.33301 -11 -13 -9c-4 1.33301 -5.66699 4.33301 -5 9c1.33301 5.33301 2.16602 10.166 2.49902 14.499s1.16602 9.16602 2.49902 14.499c0 0.666992 0.166992 1.16699 0.5 1.5
s0.5 0.833008 0.5 1.5c-2 1.33301 -4 1.5 -6 0.5s-4 -1.5 -6 -1.5c-0.666992 -4 -1.16699 -7.83301 -1.5 -11.5s-0.833008 -7.5 -1.5 -11.5c-0.666992 -5.33301 -3 -8 -7 -8c-1.33301 0 -2.16602 0.166992 -2.49902 0.5s-1.16602 0.5 -2.49902 0.5
c-4 0.666992 -6 3.66699 -6 9c0 3.33301 0.166992 6.33301 0.5 9s0.5 5.66699 0.5 9c-1.33301 -0.666992 -3.33301 -1 -6 -1c-3.33301 -0.666992 -8.66602 -0.333984 -15.999 0.999023l-2 2c-4 1.33301 -6 3.66602 -6 6.99902c0.666992 2 1.5 3.16699 2.5 3.5
s2.16699 0.833008 3.5 1.5c4 1.33301 7.83301 2.16602 11.5 2.49902s7.16699 1.16602 10.5 2.49902c1.33301 0.666992 2.16602 1 2.49902 1s1.16602 0.333008 2.49902 1c0.666992 3.33301 1.16699 6.66602 1.5 9.99902s0.833008 6.66602 1.5 9.99902
c-4.66699 -1.33301 -8.83398 -2.33301 -12.501 -3s-7.5 -1.66699 -11.5 -3c-4.66699 -1.33301 -8.66699 -0.666016 -12 2.00098c-2 0 -3 1 -3 3c1.33301 2.66699 2.33301 4 3 4l11.5 4l11.5 4c3.33301 1.33301 8.33301 2.66602 15 3.99902
c1.33301 7.33301 2.83301 14.5 4.5 21.5s3.16699 14.167 4.5 21.5c1.33301 4 2.66602 7 3.99902 9c0 1.33301 1 2.66602 3 3.99902c5.33301 2 10.333 1.66699 15 -1c2 -1.33301 3 -4.33301 3 -9c-1.33301 -5.33301 -2.33301 -10.333 -3 -15s-1.66699 -9.33398 -3 -14.001
c0 -2 -0.166992 -4 -0.5 -6s-0.833008 -4.33301 -1.5 -7zM88.0029 108.013c1.33301 2.66699 1.99805 4.99902 1.99805 6.99902s0.333008 3.66699 1 5l3 12c-2.66699 -0.666992 -5.66699 -1 -9 -1c-2 -1.33301 -3.33301 -2.66602 -4 -3.99902
c-1.33301 -3.33301 -2.16602 -6.33301 -2.49902 -9s-1.16602 -5.66699 -2.49902 -9c0.666992 -0.666992 1.66699 -1 3 -1h9z" />
    <glyph glyph-name="dollar" unicode="$" horiz-adv-x="234" 
d="M131 135l14.0068 -10.498l14 -10.5l12 -10.5c4 -3.66699 7.66699 -7.5 11 -11.5c2 -2 3.83301 -4.33301 5.5 -7s3.16699 -5.33398 4.5 -8.00098c5.33301 -10.667 4 -19.334 -4 -26.001c-5.33301 -5.33301 -10.666 -9.33301 -15.999 -12
c-12.667 -6.66699 -26.334 -11.667 -41.001 -15l-14.5 -3.5l-14.5 -3.5c-3.33301 -1.33301 -5.33301 -3 -6 -5c-1.33301 -6.66699 -3 -13 -5 -19l-6 -18c-3.33301 -9.33301 -9.33301 -12 -18 -8c-4 2 -5.66699 5 -5 9c1.33301 5.33301 2.5 10.5 3.5 15.5
s2.16699 10.167 3.5 15.5c0 0.666992 0.166992 1.5 0.5 2.5s0.5 2.16699 0.5 3.5h-9c-12.667 1.33301 -24 3.66602 -34 6.99902c-7.33301 2.66699 -13 6.33398 -17 11.001c-8.66699 8 -11.667 17.333 -9 28c1.33301 6.66699 2.66602 11.334 3.99902 14.001
c3.33301 7.33301 7.33301 14.5 12 21.5s10 13.167 16 18.5c3.33301 3.33301 7.66602 6.66602 12.999 9.99902c4.66699 2.66699 10.667 2.33398 18 -0.999023c6 -3.33301 7.33301 -8.33301 4 -15c0 -1.33301 -1 -2 -3 -2c-1.33301 0 -2.66602 0.166992 -3.99902 0.5
s-3 0.833008 -5 1.5c-1.33301 -1.33301 -2.33301 -2.66602 -3 -3.99902s-1.66699 -2.66602 -3 -3.99902c-8.66699 -12 -15.334 -24 -20.001 -36c-2 -5.33301 -3 -10.333 -3 -15c-0.666992 -10 3 -15.333 11 -16c4 -0.666992 7.83301 -1 11.5 -1h10.5
c6.66699 0 11.667 0.333008 15 1l13.5 52l13.5 52c-2 2 -3.66699 3.33301 -5 4c-4 3.33301 -8.16699 6.5 -12.5 9.5s-8.5 6.16699 -12.5 9.5c-5.33301 4 -10 8.66699 -14 14c-11.333 14.667 -14.333 31.334 -9 50.001c4 12 9.33301 22.333 16 31
c11.333 14 23.666 26.167 36.999 36.5s27.666 19.166 42.999 26.499c2 0.666992 4.33301 1.66699 7 3c4 0.666992 6.33301 3 7 7l3.5 9l3.5 9c0.666992 5.33301 3.66699 7 9 5c7.33301 -2 10.666 -6.66699 9.99902 -14c0 -3.33301 -0.666992 -7.66602 -2 -12.999l4 -2
c20.667 -8.66699 29 -24.334 25 -47.001c-3.33301 -20 -7.33301 -39.667 -12 -59s-10.334 -38.666 -17.001 -57.999c-2 -5.33301 -4.66699 -11 -8 -17c-1.33301 -3.33301 -4 -4 -8 -2c-2.66699 1.33301 -4.66699 2.66602 -6 3.99902c-2 2 -2.66699 4.66699 -2 8
c12.667 37.333 22 77.666 28 120.999l3 24c0 1.33301 -0.166992 2.5 -0.5 3.5s-0.5 2.16699 -0.5 3.5h-2c-4.66699 -0.666992 -7.33398 -1.33398 -8.00098 -2.00098s-1.66699 -3.33398 -3 -8.00098l-19 -63l-18 -63l-4 -13.5l-4 -12.5v-5zM144.007 285.002
c-0.666992 -0.666992 -1.33301 -1.16504 -2 -1.49805s-1.33398 -0.833008 -2.00098 -1.5c-3.33301 -2 -6.33301 -4 -9 -6s-5.33398 -4.33301 -8.00098 -7c-16 -12.667 -28.667 -27 -38 -43c-4.66699 -6 -8 -14 -10 -24c-1.33301 -6.66699 -1.16602 -12.834 0.500977 -18.501
s5.16699 -10.834 10.5 -15.501c2.66699 -2.66699 5.33398 -5 8.00098 -7l9 -7c0.666992 -0.666992 1.16699 -1 1.5 -1s0.833008 -0.333008 1.5 -1l19.5 67zM126.008 120.004c-3.33301 -13.333 -6.99805 -27.002 -10.998 -41.002s-7.66699 -28 -11 -42
c9.33301 2.66699 18.166 5.33398 26.499 8.00098s16.166 6.33398 23.499 11.001l6 3c10.667 9.33301 11.334 19.666 2.00098 30.999c-5.33301 6 -10.833 11.333 -16.5 16s-11.834 9.33398 -18.501 14.001h-1z" />
    <glyph glyph-name="percent" unicode="%" horiz-adv-x="180" 
d="M96 332c-4 -5.33301 -7.83203 -10.8311 -11.499 -16.498s-6.16699 -12.167 -7.5 -19.5l10 10c3.33301 3.33301 6 7.66602 8 12.999c1.33301 5.33301 5.33301 8.66602 12 9.99902l13.5 4l13.5 4c8 2 16 3.66699 24 5s15.667 2.33301 23 3
c2.66699 0 5.16699 0.166992 7.5 0.5s4.83301 0.5 7.5 0.5c4 0 8.33301 -1.66699 13 -5c0.666992 -0.666992 1.66699 -2.33398 3 -5.00098c1.33301 -2 1 -4.33301 -1 -7l-1 -1c-9.33301 -8 -17.666 -17 -24.999 -27l-22 -30c-12.667 -17.333 -24.5 -35.333 -35.5 -54
l-32.5 -57l-72 -132c-1.33301 -2.66699 -2 -5 -2 -7l1 1l33 32.5l33 31.5c4 4 6.66699 7.33301 8 10c4.66699 4.66699 9 6 13 4c1.33301 -0.666992 2.5 -1 3.5 -1s2.16699 -0.333008 3.5 -1c6 -1.33301 9.66699 -4.33301 11 -9c1.33301 -3.33301 2.33301 -6.33301 3 -9
s1.33398 -5.66699 2.00098 -9c0 -4 -0.333008 -7 -1 -9c-2 -13.333 -7.66699 -24.666 -17 -33.999c-8.66699 -8.66699 -18.334 -11 -29.001 -7c-8 4 -11.667 10.667 -11 20c0 2.66699 0.666992 7.33398 2 14.001c-0.666992 -1.33301 -1.33398 -2.16602 -2.00098 -2.49902
s-1.33398 -0.833008 -2.00098 -1.5l-37.5 -40c-12.333 -13.333 -24.166 -27.666 -35.499 -42.999c-6 -8 -13.667 -10 -23 -6c-5.33301 2 -7 6 -5 12c2 7.33301 4.33301 14.333 7 21s5.66699 13.667 9 21c7.33301 16 15 31.667 23 47l25 46l45.5 77l46.5 76
c7.33301 11.333 15 22.166 23 32.499s16.667 20.166 26 29.499c0 0.666992 0.166992 1 0.5 1s0.5 0.666992 0.5 2c-10.667 -2 -21.167 -4.16699 -31.5 -6.5s-21.166 -4.5 -32.499 -6.5c-2 -12 -8.33301 -22.333 -19 -31c-3.33301 -4 -7.33301 -6.66699 -12 -8
c-6.66699 -2.66699 -13 -2 -19 2s-9 9.66699 -9 17c-0.666992 2.66699 -0.333984 6.66699 0.999023 12c5.33301 16.667 15.666 31 30.999 43c8 6.66699 14.667 6 20 -2c2.66699 -2.66699 3 -6 1 -10c-2 -3.33301 -3.5 -5.33301 -4.5 -6s-3.16699 -0.333984 -6.5 0.999023z
M96.001 39.002c9.33301 9.33301 14.667 20.333 16 33c0 4 -0.333008 7 -1 9c0 0.666992 -0.166992 1.16699 -0.5 1.5s-0.5 0.833008 -0.5 1.5c-3.33301 -5.33301 -6.5 -12.833 -9.5 -22.5s-4.5 -17.167 -4.5 -22.5z" />
    <glyph glyph-name="ampersand" unicode="&#x26;" horiz-adv-x="217" 
d="M87 130c-2 0 -5.66504 -0.675781 -10.998 -2.00879c-4 -0.666992 -8.16699 -0.833984 -12.5 -0.500977s-8.5 1.16602 -12.5 2.49902c-2 1.33301 -3.83301 2.5 -5.5 3.5s-3.16699 2.16699 -4.5 3.5c-4 4 -5 9 -3 15c1.33301 2.66699 4 6.66699 8 12
c6.66699 8.66699 15 16.334 25 23.001c8.66699 5.33301 17.167 10 25.5 14s17.166 6.66699 26.499 8c3.33301 0.666992 6.5 1 9.5 1h9.5c0 0.666992 0.666992 2.33398 2 5.00098c12 32.667 24.667 64.834 38 96.501l40 95.5c1.33301 5.33301 4 8 8 8
c6 1.33301 11 -0.666992 15 -6c2 -2 2.33301 -4.66699 1 -8s-2.33301 -6.16602 -3 -8.49902s-1.66699 -5.16602 -3 -8.49902l-35 -87.5l-35 -87.5c-1.33301 -2.66699 -2.5 -5.16699 -3.5 -7.5s-1.16699 -5.16602 -0.5 -8.49902c0 -3.33301 -1.16699 -6 -3.5 -8
s-4.83301 -3.33301 -7.5 -4c-8.66699 -1.33301 -14.667 2.33398 -18 11.001c-10.667 -1.33301 -23 -6.5 -37 -15.5s-23.667 -18.167 -29 -27.5c0.666992 0 3 0.666992 7 2c5.33301 1.33301 10.666 3 15.999 5l16 6c4 1.33301 8 2.16602 12 2.49902s8 -0.166992 12 -1.5
c2.66699 -1.33301 5.33398 -3 8.00098 -5c3.33301 -3.33301 3.66602 -7 0.999023 -11c-1.33301 -2 -3.66602 -4.66699 -6.99902 -8c-5.33301 -6 -10.166 -11.833 -14.499 -17.5s-9.16602 -11.5 -14.499 -17.5c-1.33301 -1.33301 -2.33301 -3 -3 -5
c2.66699 1.33301 4.33398 2 5.00098 2c2.66699 1.33301 5.16699 3 7.5 5s4.5 3.66699 6.5 5c4.66699 2.66699 9 3.83398 13 3.50098s8 -1.16602 12 -2.49902c1.33301 -0.666992 2.66602 -1.66699 3.99902 -3c4 -4 5 -8 3 -12l-4 -10.5l-4 -10.5
c-13.333 -34 -25.5 -68.5 -36.5 -103.5s-21.167 -70.833 -30.5 -107.5c-1.33301 -4 -2.33301 -8 -3 -12s-1.33398 -8.33301 -2.00098 -13c0 -2.66699 -1.33301 -4.66699 -4 -6c-6 -3.33301 -12 -3 -18 1c-2.66699 2 -4 5 -4 9c0.666992 3.33301 1 6.33301 1 9
s0.333008 5.66699 1 9l11.5 48c3.66699 16 7.5 31.667 11.5 47l10 37.5l10 36.5c2 6.66699 4.16699 12.834 6.5 18.501s4.5 11.5 6.5 17.5c0.666992 1.33301 1 2.5 1 3.5s0.666992 2.16699 2 3.5c-2.66699 -1.33301 -6 -2.66602 -10 -3.99902
c-9.33301 -4 -18 -4.66699 -26 -2c-4 2 -7.66699 4.66699 -11 8c-2.66699 2.66699 -3.33398 6 -2.00098 10c1.33301 2.66699 2.33301 5.16699 3 7.5s1.66699 4.5 3 6.5l8 12c2.66699 4 5.66699 8 9 12c1.33301 2.66699 2.66602 4.33398 3.99902 5.00098z" />
    <glyph glyph-name="quotesingle" unicode="'" horiz-adv-x="106" 
d="M77 381l-8.00391 2c-2.66699 0.666992 -5 2 -7 4c-0.666992 0.666992 -1 2.33398 -1 5.00098c1.33301 8 3 16 5 24l6 24c0.666992 3.33301 1.33398 6.16602 2.00098 8.49902s1.33398 4.83301 2.00098 7.5c2 7.33301 6.33301 10 13 8c4 0 8 -1.33301 12 -4
c4.66699 -2.66699 6 -6.66699 4 -12l-6 -21c-2 -6.66699 -4.33301 -13.667 -7 -21c-1.33301 -3.33301 -2.16602 -6.33301 -2.49902 -9s-1.16602 -5.66699 -2.49902 -9c-1.33301 -2 -2.5 -3.66699 -3.5 -5s-3.16699 -2 -6.5 -2z" />
    <glyph glyph-name="parenleft" unicode="(" horiz-adv-x="136" 
d="M54 -5c-9.33301 1.33301 -14.999 6.66895 -16.999 16.002c-1.33301 7.33301 -2.33301 14.833 -3 22.5s-1.66699 15.5 -3 23.5c-2 13.333 -2.83301 27 -2.5 41s1.16602 28 2.49902 42c2 16 5 31.833 9 47.5s8.66699 31.167 14 46.5c14 40 32.667 76.667 56 110
c9.33301 12.667 18.666 22.667 27.999 30c3.33301 3.33301 7.33301 4.16602 12 2.49902s7.66699 -4.83398 9 -9.50098c1.33301 -3.33301 0.666016 -6.33301 -2.00098 -9c-3.33301 -5.33301 -7.16602 -10.5 -11.499 -15.5s-8.16602 -10.5 -11.499 -16.5
c-14.667 -22.667 -27.5 -46.5 -38.5 -71.5s-20.167 -51.5 -27.5 -79.5c-4 -16.667 -7 -33.334 -9 -50.001s-3.33301 -33.667 -4 -51c-0.666992 -10.667 -0.5 -21.167 0.5 -31.5s2.16699 -20.833 3.5 -31.5c0 -0.666992 0.166992 -1.33398 0.5 -2.00098s0.5 -1.66699 0.5 -3
c1.33301 -2.66699 2 -4.66699 2 -6c-0.666992 -1.33301 -1.5 -2.16602 -2.5 -2.49902s-2.16699 -1.16602 -3.5 -2.49902h-2z" />
    <glyph glyph-name="parenright" unicode=")" horiz-adv-x="115" 
d="M101 247c-2 -15.333 -4.83496 -30 -8.50195 -44s-8.16699 -28 -13.5 -42c-5.33301 -14.667 -10.833 -28.834 -16.5 -42.501s-12.5 -27.167 -20.5 -40.5l-20 -33.5l-20 -33.5l-6 -9c-4 -5.33301 -8.16699 -7.66602 -12.5 -6.99902s-7.5 2.66699 -9.5 6
c-1.33301 2.66699 -1 5 1 7c1.33301 1.33301 2.33301 3 3 5s1.66699 3.66699 3 5l24 45c8 14.667 15.667 30 23 46c8 18 15.333 36.5 22 55.5s12.667 38.167 18 57.5c6 26 10 52 12 78c0.666992 8.66699 0.833984 17 0.500977 25s-1.16602 15.667 -2.49902 23
c0 6.66699 -1.66699 12.667 -5 18c-2 3.33301 -2.33301 6 -1 8s2.5 2.83301 3.5 2.5s2.16699 -0.5 3.5 -0.5c4 -1.33301 7.16699 -3.66602 9.5 -6.99902s4.5 -7 6.5 -11c3.33301 -8.66699 5.66602 -19.334 6.99902 -32.001c1.33301 -11.333 1.83301 -24.333 1.5 -39
s-1.16602 -28 -2.49902 -40z" />
    <glyph glyph-name="asterisk" unicode="*" horiz-adv-x="225" 
d="M117 130l14.9902 0.00195312c10.667 0 21.667 -1 33 -3c2.66699 -0.666992 4.83398 -1.33398 6.50098 -2.00098s3.5 -1.66699 5.5 -3c2.66699 -2 4.66699 -5 6 -9c1.33301 -2 0.333008 -3.66699 -3 -5c-2.66699 -1.33301 -5.5 -1.33301 -8.5 0
s-5.16699 3.66602 -6.5 6.99902c-0.666992 1.33301 -1.5 2 -2.5 2s-2.16699 0.333008 -3.5 1c-14 0.666992 -28 0.666992 -42 0c1.33301 -2 2.83301 -3.83301 4.5 -5.5s3.16699 -3.5 4.5 -5.5l12 -14c4 -4.66699 8 -9.66699 12 -15c2 -2.66699 3.66699 -5.33398 5 -8.00098
c2 -2.66699 1.33301 -4.66699 -2 -6c-6 -0.666992 -11.333 1.33301 -16 6c-2.66699 2.66699 -5.16699 5.33398 -7.5 8.00098s-4.83301 5.33398 -7.5 8.00098l-15 18c-1.33301 -1.33301 -2.16602 -3 -2.49902 -5s-0.833008 -3.66699 -1.5 -5l-6 -20l-6 -20
c-0.666992 -1.33301 -1 -4 -1 -8c0 -2 -1.66699 -3.66699 -5 -5c-4 -1.33301 -8 -0.333008 -12 3c-4 2.66699 -5.33301 7 -4 13l4 18l4 18v1c0.666992 0.666992 1 1.33398 1 2.00098l-7 -7c-3.33301 -2.66699 -6.16602 -5.16699 -8.49902 -7.5
s-5.16602 -4.83301 -8.49902 -7.5c-5.33301 -6 -11 -6 -17 0c-3.33301 1.33301 -3.66602 3.33301 -0.999023 6c0.666992 2 2.66699 4.66699 6 8c4 3.33301 8 7 12 11l12 12l2 2c-6.66699 -1.33301 -12 -2 -16 -2c-6.66699 -1.33301 -12.667 -1 -18 1
c-1.33301 0.666992 -2.66602 1.5 -3.99902 2.5s-2 2.16699 -2 3.5s0.666992 2.33301 2 3s2.66602 1 3.99902 1c4 1.33301 8.16699 2.16602 12.5 2.49902s8.5 0.833008 12.5 1.5s8 1 12 1s7.66699 0.333008 11 1c0.666992 0 1.33398 0.333008 2.00098 1l-11.5 11.5
c-3.66699 3.66699 -7.83398 7.16699 -12.501 10.5c-1.33301 0.666992 -2.16602 1.16699 -2.49902 1.5s-1.16602 0.833008 -2.49902 1.5c-4 3.33301 -3.33301 5.66602 2 6.99902c4.66699 0 8.33398 -0.333008 11.001 -1c8 -2 15 -6 21 -12l3 -3h1
c0.666992 5.33301 2.33398 11.666 5.00098 18.999c0.666992 3.33301 1.33398 6.33301 2.00098 9s1.33398 5.66699 2.00098 9c2 4.66699 5.66699 7 11 7c2 0 5 -0.666992 9 -2c6 -1.33301 8.33301 -5 7 -11c-0.666992 -2.66699 -1.33398 -5.16699 -2.00098 -7.5
s-1.33398 -5.16602 -2.00098 -8.49902c0 -1.33301 -0.333008 -2.33301 -1 -3c2.66699 1.33301 4.33398 2.33301 5.00098 3l12 6c4 2 8 4.33301 12 7c4 2 8.66699 1.33301 14 -2c4 -2 4 -4 0 -6c-3.33301 -2.66699 -7 -5 -11 -7s-7.66699 -4.33301 -11 -7l-14 -10l-14 -10v-1
z" />
    <glyph glyph-name="plus" unicode="+" horiz-adv-x="202" 
d="M74 114c-3.33301 -0.666992 -6.66699 -1.16309 -10 -1.49609s-6.66602 -0.5 -9.99902 -0.5c-2.66699 -0.666992 -5.16699 -0.833984 -7.5 -0.500977s-4.83301 0.5 -7.5 0.5c-3.33301 1.33301 -5 2.33301 -5 3c-2.66699 1.33301 -4 2.66602 -4 3.99902
c1.33301 3.33301 3 5 5 5c3.33301 1.33301 6.5 2.16602 9.5 2.49902s6.16699 0.833008 9.5 1.5l21 3c2.66699 0 4 1 4 3c2.66699 9.33301 5 18.166 7 26.499l6 25.5l1 1c4 11.333 11.667 16 23 14c1.33301 0 2 -0.333008 2 -1c8.66699 -0.666992 12 -5.33398 10 -14.001
c-1.33301 -4.66699 -2.5 -9 -3.5 -13s-2.16699 -8.33301 -3.5 -13c-1.33301 -3.33301 -2.66602 -7 -3.99902 -11s-2.66602 -7.66699 -3.99902 -11v-3c5.33301 0.666992 10.333 1.16699 15 1.5s9.66699 0.5 15 0.5c3.33301 0 6.66602 -0.166992 9.99902 -0.5
s6.66602 -0.5 9.99902 -0.5c1.33301 0 2.66602 -0.666992 3.99902 -2c2 -2 3 -3.33301 3 -4c-1.33301 -2 -3 -3.66699 -5 -5c-3.33301 -0.666992 -6.66602 -1.16699 -9.99902 -1.5s-6.66602 -0.833008 -9.99902 -1.5c-6 -0.666992 -12.167 -1.16699 -18.5 -1.5
s-12.833 -0.833008 -19.5 -1.5c-1.33301 -5.33301 -2.83301 -10.666 -4.5 -15.999s-3.16699 -10.666 -4.5 -15.999c-2.66699 -5.33301 -5 -12.666 -7 -21.999c-2.66699 -6 -7 -10.167 -13 -12.5s-11.667 -1.5 -17 2.5c-1.33301 1.33301 -1.66602 3.33301 -0.999023 6
c1.33301 2.66699 2.66602 6.66699 3.99902 12c1.33301 3.33301 2.16602 6.66602 2.49902 9.99902s1.16602 6.66602 2.49902 9.99902l2 10.5c0.666992 3.66699 1.66699 7.16699 3 10.5z" />
    <glyph glyph-name="comma" unicode="," horiz-adv-x="102" 
d="M48 96c3.33301 -2 4.33105 -4.99902 2.99805 -8.99902l-12 -27c-1.33301 -2.66699 -2.16602 -5.16699 -2.49902 -7.5s-1.16602 -4.83301 -2.49902 -7.5s-4 -6.66699 -8 -12c-6.66699 -6.66699 -14 -7 -22 -1c-2 1.33301 -2.33301 3.66602 -1 6.99902
c4 5.33301 6.33301 9.33301 7 12c2.66699 6.66699 5 13.167 7 19.5s4.33301 12.833 7 19.5c2 6 6.33301 9 13 9c3.33301 0 7 -1 11 -3z" />
    <glyph glyph-name="hyphen" unicode="-" horiz-adv-x="161" 
d="M60 135c10.667 -0.666992 21.1699 -1.16895 31.5029 -1.50195s20.5 -1.5 30.5 -3.5c4.66699 -1.33301 7 -3.66602 7 -6.99902c-0.666992 -3.33301 -3.33398 -5 -8.00098 -5c-2.66699 -0.666992 -5.33398 -1 -8.00098 -1h-8h-22.5c-7.66699 0 -15.5 -0.666992 -23.5 -2
c-9.33301 -1.33301 -17 -0.666016 -23 2.00098c-3.33301 2 -5.33301 3.33301 -6 4c-4 2.66699 -3.66699 5.33398 1 8.00098c2 1.33301 4.16699 2.16602 6.5 2.49902s4.5 0.833008 6.5 1.5c3.33301 0.666992 6.16602 1 8.49902 1s4.83301 0.333008 7.5 1z" />
    <glyph glyph-name="period" unicode="." horiz-adv-x="88" 
d="M32 90c7.33301 0 11 -3.66699 11 -11s-3.66699 -11 -11 -11s-11 3.66699 -11 11s3.66699 11 11 11z" />
    <glyph glyph-name="slash" unicode="/" horiz-adv-x="155" 
d="M5 -4l-3.00098 -0.00292969c-7.33301 1.33301 -9.66602 6 -6.99902 14l55.5 140.5l59.5 138.5l18.5 39.5l19.5 39.5c2.66699 5.33301 6.5 8.33301 11.5 9s9.83301 -0.666016 14.5 -3.99902c1.33301 -2.66699 1.66602 -5.33398 0.999023 -8.00098
c-5.33301 -9.33301 -10.666 -20.666 -15.999 -33.999l-40 -90.5l-40 -91.5l-39 -99c-3.33301 -7.33301 -6.5 -14.666 -9.5 -21.999s-6.16699 -14.666 -9.5 -21.999c-2.66699 -6.66699 -8 -10 -16 -10z" />
    <glyph glyph-name="zero" unicode="0" horiz-adv-x="175" 
d="M117 134c2 11.333 1.00391 22.0039 -2.99609 32.0039c0 2 -1 3 -3 3c-2.66699 0 -5.33398 0.666992 -8.00098 2c-4.66699 1.33301 -6.66699 4 -6 8c1.33301 5.33301 4.66602 9 9.99902 11c4 0.666992 8.66699 0 14 -2s9 -5 11 -9
c5.33301 -10.667 9.66602 -21.334 12.999 -32.001s3.33301 -22.334 0 -35.001c-4.66699 -20.667 -14.334 -39.667 -29.001 -57c-12 -14 -26 -25 -42 -33c-12 -5.33301 -23.667 -6.5 -35 -3.5s-19.666 8.16699 -24.999 15.5c-6 8.66699 -9 19.667 -9 33
c0.666992 13.333 3 26.166 7 38.499s9 24.5 15 36.5c5.33301 9.33301 10.833 18.333 16.5 27s12.167 16.667 19.5 24c2 1.33301 4 2.83301 6 4.5s4 3.16699 6 4.5c3.33301 2.66699 7.33301 3.83398 12 3.50098s8.33398 -1.83301 11.001 -4.5c2.66699 -2 2.66699 -5 0 -9
c-5.33301 -5.33301 -10.166 -11.166 -14.499 -17.499s-8.5 -12.833 -12.5 -19.5c-5.33301 -9.33301 -10.333 -19 -15 -29s-8.33398 -20.333 -11.001 -31c-2.66699 -8 -4.5 -16 -5.5 -24s-0.833008 -16 0.5 -24c1.33301 -4 2.33301 -6.66699 3 -8
c1.33301 -2 2.66602 -2.66699 3.99902 -2c6 2 11.5 4.66699 16.5 8s9.5 7 13.5 11c17.333 17.333 29.666 38.666 36.999 63.999c0 1.33301 0.166992 2.33301 0.5 3s0.5 1.66699 0.5 3c0.666992 1.33301 1 2.66602 1 3.99902s0.333008 2.66602 1 3.99902z" />
    <glyph glyph-name="one" unicode="1" horiz-adv-x="118" 
d="M42 175c-2.66699 1.33301 -5.99902 3.33496 -9.99902 6.00195l-3 3c-1.33301 2.66699 -1 5 1 7c2 1.33301 3.83301 2.83301 5.5 4.5s3.5 3.16699 5.5 4.5c2.66699 2.66699 4.33398 4.66699 5.00098 6c4 4 8.66699 5.33301 14 4c7.33301 -2 13.333 -5.33301 18 -10
c2.66699 -2.66699 4 -6.33398 4 -11.001c0 -11.333 -1.66699 -23 -5 -35c-6.66699 -22 -13 -44 -19 -66l-18 -66c-2.66699 -8 -8.33398 -10.667 -17.001 -8c-4 1.33301 -7.33301 2.66602 -10 3.99902c-4 2 -5.33301 5.33301 -4 10c3.33301 12.667 6.16602 25 8.49902 37
l7.5 37c2.66699 11.333 5.16699 22.5 7.5 33.5s4.83301 22.167 7.5 33.5c0 1.33301 0.666992 3.33301 2 6z" />
    <glyph glyph-name="two" unicode="2" horiz-adv-x="150" 
d="M82 184c-4.66699 -2.66699 -8.83789 -5.33301 -12.5049 -8s-7.16699 -5.66699 -10.5 -9c0 -0.666992 -0.166992 -1.16699 -0.5 -1.5s-0.5 -0.833008 -0.5 -1.5c-0.666992 -2.66699 -2.66699 -4 -6 -4c-3.33301 0.666992 -6.16602 1.5 -8.49902 2.5
s-4.16602 3.16699 -5.49902 6.5c-1.33301 1.33301 -1.66602 2.83301 -0.999023 4.5s1.66699 3.16699 3 4.5c4.66699 6 8.33398 10 11.001 12c8 5.33301 15.667 10 23 14c12 4.66699 22.333 3.33398 31 -3.99902s11.334 -17 8.00098 -29c-1.33301 -7.33301 -4 -14.5 -8 -21.5
l-12 -20.5c-9.33301 -14.667 -19.333 -29 -30 -43s-21.667 -27.667 -33 -41c-0.666992 -1.33301 -1.33398 -2.33301 -2.00098 -3s-1.33398 -1.66699 -2.00098 -3l-1 -1h4h35c3.33301 -0.666992 6.5 -1.16699 9.5 -1.5s5.83301 -1.5 8.5 -3.5l3.5 -3.5
c1 -1 1.83301 -2.16699 2.5 -3.5c2.66699 -2.66699 1.66699 -4.66699 -3 -6c-1.33301 -0.666992 -3.66602 -1 -6.99902 -1h-26.5c-8.33301 0 -17.166 -0.333008 -26.499 -1c-12 -1.33301 -22 0.333984 -30 5.00098c-4 2 -7 4.66699 -9 8
c-3.33301 3.33301 -3.33301 7.66602 0 12.999l6 9l30 39c10 12.667 19.667 25.667 29 39c12 15.333 21.333 30.666 28 45.999c1.33301 2.66699 2.33301 5 3 7z" />
    <glyph glyph-name="three" unicode="3" horiz-adv-x="140" 
d="M73 131c1.33301 -1.33301 2.66895 -2.33398 4.00195 -3.00098s2.66602 -1.66699 3.99902 -3c14 -11.333 18.333 -29 13 -53c-3.33301 -13.333 -9.83301 -25 -19.5 -35s-20.167 -16.667 -31.5 -20c-2.66699 -0.666992 -5.33398 -1 -8.00098 -1h-8c-6 0 -12 0.333008 -18 1
s-11.667 2.66699 -17 6c-6.66699 3.33301 -11.334 8 -14.001 14c-2 5.33301 -0.333008 10 5 14c10.667 10.667 20.667 11.334 30 2.00098c2.66699 -4 2 -7.66699 -2 -11l-3 -3c4 -0.666992 7.83301 -0.833984 11.5 -0.500977s7.16699 1.83301 10.5 4.5
c7.33301 6 14 12.167 20 18.5s10.667 13.833 14 22.5c4 7.33301 5.33301 15 4 23c0 2.66699 -1.33301 4 -4 4c-8 0.666992 -15.333 4.33398 -22 11.001c-1.33301 2.66699 -2.33301 4.33398 -3 5.00098c-3.33301 5.33301 -2.66602 10.666 2.00098 15.999l10 12.5l10 12.5
c0.666992 0.666992 1 1.16699 1 1.5s0.333008 0.833008 1 1.5c-2 -1.33301 -4 -3 -6 -5s-4 -3.66699 -6 -5s-3.83301 -3 -5.5 -5s-3.83398 -2.66699 -6.50098 -2c-5.33301 0.666992 -9.66602 3.66699 -12.999 9c-1.33301 3.33301 -0.666016 6.33301 2.00098 9
c2 2.66699 5 5.66699 9 9c5.33301 4.66699 11.166 9 17.499 13s12.833 7.66699 19.5 11c6 3.33301 11.5 4 16.5 2s9.16699 -5 12.5 -9c4 -5.33301 4 -12.333 0 -21l-9.5 -15l-9.5 -15c-3.33301 -6 -7 -11.333 -11 -16z" />
    <glyph glyph-name="four" unicode="4" horiz-adv-x="160" 
d="M75 111l-22.001 0.00195312c-10 0 -19 3 -27 9c-7.33301 5.33301 -8.33301 12.666 -3 21.999c3.33301 6.66699 7.16602 13.167 11.499 19.5l12.5 18.5c3.33301 5.33301 6.83301 10.166 10.5 14.499s7.16699 8.83301 10.5 13.5c3.33301 4 7.33301 6.16699 12 6.5
s8.66699 -1.16699 12 -4.5c2 -3.33301 2.33301 -6 1 -8c-1.33301 -3.33301 -3 -6.83301 -5 -10.5l-6 -10.5c-3.33301 -7.33301 -6.83301 -14.166 -10.5 -20.499s-7.16699 -12.833 -10.5 -19.5c-2.66699 -4 -4.33398 -7.33301 -5.00098 -10c4 -0.666992 7.83301 -1 11.5 -1
s7.5 -0.333008 11.5 -1c0.666992 2.66699 1.33398 5.16699 2.00098 7.5s1.33398 4.5 2.00098 6.5c4.66699 18 11.334 36.667 20.001 56c0.666992 2 2.33398 5 5.00098 9c2 6 6 8.33301 12 7c7.33301 0 13 -2 17 -6c2 -2 2.33301 -4.66699 1 -8l-10.5 -36.5
c-3.66699 -12.333 -7.5 -24.5 -11.5 -36.5c0 -2.66699 0.666992 -4.33398 2 -5.00098l3 -3c3.33301 -4 2.33301 -6.66699 -3 -8h-7c-1.33301 -4 -2 -6.66699 -2 -8l-12 -45c-4 -14.667 -7.66699 -29.667 -11 -45c-1.33301 -4 -3.33301 -6 -6 -6
c-8.66699 -1.33301 -15 0.666992 -19 6c-2.66699 2.66699 -3.33398 5 -2.00098 7c1.33301 10 2.83301 20.167 4.5 30.5s3.5 20.5 5.5 30.5c1.33301 4.66699 2.33301 9 3 13s1.66699 8.33301 3 13v3z" />
    <glyph glyph-name="five" unicode="5" horiz-adv-x="155" 
d="M72 102c-6.66699 -1.33301 -11.6631 -2.66895 -14.9961 -4.00195c-6.66699 -2.66699 -13.834 -2 -21.501 2s-12.834 8.66699 -15.501 14c-2 4 -2 8 0 12l4.5 11c1.66699 4 3.16699 8 4.5 12l10 18l10 18c6 12.667 16.667 20 32 22c6 1.33301 12.167 2.33301 18.5 3
s12.5 1 18.5 1c7.33301 -1.33301 13.666 -3.66602 18.999 -6.99902l4 -4c2 -3.33301 1 -6 -3 -8c-3.33301 -1.33301 -7.66602 -2.66602 -12.999 -3.99902l-24 -6c-4.66699 -0.666992 -8 -3.33398 -10 -8.00098l-12.5 -26c-4.33301 -8.66699 -8.5 -17.667 -12.5 -27
c2.66699 0 6 -0.666992 10 -2c3.33301 -1.33301 6.33301 -2.66602 9 -3.99902s5 -2.66602 7 -3.99902c9.33301 -6 14.5 -14 15.5 -24s-2.16699 -19 -9.5 -27c-4.66699 -5.33301 -9.66699 -10.5 -15 -15.5l-17 -15.5c-6.66699 -5.33301 -13.334 -10 -20.001 -14
c-5.33301 -3.33301 -10.833 -4.33301 -16.5 -3s-10.5 4.33301 -14.5 9c-3.33301 4 -4 7.66699 -2 11c3.33301 4 7 5.66699 11 5c4 -1.33301 7 -0.333008 9 3c3.33301 4 6.83301 7.83301 10.5 11.5s7.16699 7.83398 10.5 12.501
c3.33301 3.33301 6.16602 7.16602 8.49902 11.499l7.5 13.5c1.33301 1.33301 2 3.16602 2 5.49902s0.666992 4.5 2 6.5c-0.666992 0 -1 0.166992 -1 0.5s-0.333008 0.5 -1 0.5z" />
    <glyph glyph-name="six" unicode="6" horiz-adv-x="140" 
d="M52 99c2 1.33301 4.00391 2.49707 6.00391 3.49707s3.66699 2.16699 5 3.5c5.33301 3.33301 11.166 4.5 17.499 3.5s11.166 -3.16699 14.499 -6.5c5.33301 -5.33301 6.33301 -12.666 3 -21.999c-2 -8 -6 -15 -12 -21c-5.33301 -6.66699 -11.333 -12.167 -18 -16.5
s-14 -6.83301 -22 -7.5c-12.667 -0.666992 -23 3.66602 -31 12.999c-3.33301 3.33301 -5.33301 7.33301 -6 12s-0.666992 9.66699 0 15c1.33301 8 3 15.667 5 23s4.66699 14.666 8 21.999c5.33301 12.667 11.666 24.834 18.999 36.501s15.666 22.167 24.999 31.5l6 6
c2 2 4.33301 4 7 6c4.66699 3.33301 9.66699 4.33301 15 3s9 -3.66602 11 -6.99902c2.66699 -3.33301 2.66699 -6.33301 0 -9c-13.333 -15.333 -24.333 -31.333 -33 -48c-7.33301 -12 -13.333 -24 -18 -36c-0.666992 -1.33301 -1 -2.16602 -1 -2.49902
s-0.333008 -1.16602 -1 -2.49902zM50.0039 61.9971l0.998047 -1c2.66699 2 5.33398 4.66699 8.00098 8s4.33398 6.33301 5.00098 9l-7 -8.5c-2 -2.33301 -4.33301 -4.83301 -7 -7.5z" />
    <glyph glyph-name="seven" unicode="7" horiz-adv-x="135" 
d="M85 137l11.999 -2.99805c1.33301 0 2 -0.666992 2 -2c5.33301 -3.33301 5 -6.33301 -1 -9c-5.33301 -2.66699 -11.666 -4 -18.999 -4c-2.66699 0 -5 -1.66699 -7 -5l-18 -34.5l-17 -34.5c-2 -2.66699 -4.33301 -6.66699 -7 -12
c-1.33301 -2.66699 -4.33301 -4.66699 -9 -6c-6.66699 0 -12 2 -16 6c-2 2 -2.66699 5 -2 9l13 31l13 31c1.33301 4 2.33301 6.66699 3 8l-6 2c-2 0.666992 -3.66699 1.33398 -5 2.00098c-0.666992 0 -1.66699 0.666992 -3 2l-2.5 2.5c-1 1 -1.16699 2.16699 -0.5 3.5
s3 2.66602 7 3.99902c2.66699 0.666992 7.33398 1 14.001 1c2 1.33301 3.33301 2.33301 4 3c4 9.33301 8.16699 18.333 12.5 27s8.5 17.667 12.5 27l2 4c-2.66699 0 -5.33398 -0.666992 -8.00098 -2c-4 -1.33301 -8 -2.33301 -12 -3s-8 -0.666992 -12 0
c-6 0 -11 2.33301 -15 7c-4 4 -2.66699 7 4 9c2 0.666992 4.16699 1.16699 6.5 1.5s4.5 0.833008 6.5 1.5l18 4c6 1.33301 11.667 2.66602 17 3.99902c11.333 2 21 -0.666992 29 -8c6.66699 -6 8 -13.667 4 -23l-8 -19.5c-2.66699 -6.33301 -5.66699 -12.833 -9 -19.5
c-1.33301 -2.66699 -2.33301 -4.33398 -3 -5.00098z" />
    <glyph glyph-name="eight" unicode="8" horiz-adv-x="155" 
d="M97 79c0.666992 -6 -0.165039 -11.168 -2.49805 -15.501s-5.5 -8.16602 -9.5 -11.499c-8 -7.33301 -16.333 -13.166 -25 -17.499s-18.334 -6.5 -29.001 -6.5c-12.667 1.33301 -22 5 -28 11s-7.66699 13.333 -5 22c5.33301 18 16.666 33.333 33.999 46
c0.666992 0 1.16699 0.166992 1.5 0.5s0.833008 0.5 1.5 0.5c-1.33301 2 -2.66602 3.83301 -3.99902 5.5s-2.66602 3.16699 -3.99902 4.5c-5.33301 7.33301 -6 16.333 -2 27c2.66699 6 7 12.667 13 20c7.33301 7.33301 14.5 14.166 21.5 20.499s14.5 12.5 22.5 18.5
c8 5.33301 15.333 7.66602 22 6.99902c7.33301 -1.33301 13.333 -3.66602 18 -6.99902c7.33301 -6 9.66602 -14.333 6.99902 -25l-4 -15.5l-4 -15.5l-8 -30l-8 -31c-0.666992 -2 -1.33398 -3.83301 -2.00098 -5.5s-2.66699 -2.5 -6 -2.5zM97.001 179.999l-1 1.00195
c-0.666992 -0.666992 -1.33398 -1 -2.00098 -1c-5.33301 -4.66699 -10.166 -9.33398 -14.499 -14.001l-13.5 -15l-5.5 -9.5c-1.66699 -3 -3.16699 -6.16699 -4.5 -9.5c-3.33301 -5.33301 -2.66602 -10.333 2.00098 -15c3.33301 -3.33301 7 -6.33301 11 -9s8 -5.66699 12 -9
c3.33301 14 6.16602 27.667 8.49902 41s4.83301 26.666 7.5 39.999zM57.001 92.001c-10.667 -14 -18.333 -27.667 -23 -41c12.667 4 22 11.333 28 22c4 8.66699 2.33301 15 -5 19z" />
    <glyph glyph-name="nine" unicode="9" horiz-adv-x="163" 
d="M96 180c1.33301 1.33301 2.00098 2.33691 2.00098 3.00391c4 8 11.333 10.667 22 8c8 -2.66699 12 -8.33398 12 -17.001v-6.5c0 -2.33301 -0.333008 -4.5 -1 -6.5c-3.33301 -15.333 -7 -30 -11 -44s-9.33301 -28 -16 -42c-5.33301 -10.667 -11.666 -19.667 -18.999 -27
c-8.66699 -8.66699 -18.667 -12.667 -30 -12h-14c-4.66699 0 -9.33398 0.333008 -14.001 1c-1.33301 0 -2.66602 0.333008 -3.99902 1l-4 2c-5.33301 4 -5 7.66699 1 11c2 1.33301 4.83301 2 8.5 2s6.5 -0.666992 8.5 -2c3.33301 -3.33301 6.66602 -3.33301 9.99902 0
c3.33301 2 6 4.66699 8 8c5.33301 6.66699 9.66602 13.667 12.999 21l10 22c4 8 7 17.333 9 28l-3.5 -3.5l-3.5 -3.5c-2.66699 -2.66699 -5.33398 -4.83398 -8.00098 -6.50098s-6 -2.83398 -10 -3.50098c-9.33301 -0.666992 -17.666 1.66602 -24.999 6.99902s-11 14 -11 26
c0 19.333 7.33301 35.666 22 48.999c8.66699 8.66699 19.667 11.334 33 8.00098c10 -3.33301 15 -11 15 -23zM91.001 170.004c-6 -2 -11.998 -1.33398 -17.998 1.99902c-2.66699 2.66699 -3.33398 5 -2.00098 7v3c-5.33301 -7.33301 -9.33301 -15.166 -12 -23.499
s-3.33398 -17.166 -2.00098 -26.499c7.33301 5.33301 13.5 11.166 18.5 17.499z" />
    <glyph glyph-name="colon" unicode=":" horiz-adv-x="97" 
d="M60 150c0.666992 -4 -0.666992 -6.00098 -4 -6.00098c-6.66699 -1.33301 -11.667 0.333984 -15 5.00098c-1.33301 1.33301 -2.33301 2.66602 -3 3.99902c-2 4 -0.666992 6.33301 4 7c0.666992 0.666992 2 1 4 1c1.33301 -0.666992 3.33301 -1 6 -1
c4 -1.33301 6 -3.33301 6 -6c0 -1.33301 0.666992 -2.66602 2 -3.99902zM52.999 125.999c3.33301 -2 3.66699 -4.33105 1 -6.99805c-2 -2.66699 -4.16699 -5 -6.5 -7s-5.5 -3 -9.5 -3c-1.33301 0.666992 -3 1.16699 -5 1.5s-3.66699 1.16602 -5 2.49902
c-0.666992 0 -1 1.33301 -1 4c2 3.33301 5.33301 6.16602 10 8.49902s9 2.83301 13 1.5c0.666992 0 1.16699 -0.166992 1.5 -0.5s0.833008 -0.5 1.5 -0.5z" />
    <glyph glyph-name="semicolon" unicode=";" horiz-adv-x="105" 
d="M50 103c4 -1.33301 4.99902 -4.33203 2.99902 -8.99902l-6 -13.5c-2 -4.33301 -3.66699 -8.83301 -5 -13.5l-6 -15c-1.33301 -2.66699 -4 -6.66699 -8 -12c-2.66699 -3.33301 -6.16699 -5 -10.5 -5s-8.16602 1.33301 -11.499 4c-2 1.33301 -2 3.66602 0 6.99902
c2.66699 4 5 8 7 12c2 6.66699 4.16699 13.167 6.5 19.5s4.5 12.833 6.5 19.5c2 6 6.66699 9 14 9c1.33301 -0.666992 3 -1 5 -1s3.66699 -0.666992 5 -2zM66.999 158.001c2.66699 -2 3.33398 -4.49902 2.00098 -7.49902s-3 -5.16699 -5 -6.5
c-1.33301 -0.666992 -3.33301 -1 -6 -1c-7.33301 0 -12.666 1.66699 -15.999 5c-2.66699 2.66699 -3 5.33398 -1 8.00098c3.33301 3.33301 7.66602 5.16602 12.999 5.49902s9.66602 -0.833984 12.999 -3.50098z" />
    <glyph glyph-name="less" unicode="&#x3c;" horiz-adv-x="180" 
d="M33 117c0 3.33301 1.99805 6.99609 5.99805 10.9961c4.66699 3.33301 9 6.83301 13 10.5s8.33301 7.16699 13 10.5c8.66699 5.33301 17 10.833 25 16.5s16.333 11.167 25 16.5c1.33301 1.33301 2.66602 2.16602 3.99902 2.49902s2.66602 0.833008 3.99902 1.5
c8.66699 4.66699 17 4.33398 25 -0.999023c4.66699 -3.33301 4.33398 -6.66602 -0.999023 -9.99902l-33 -24c-6 -5.33301 -12.167 -10.166 -18.5 -14.499s-12.5 -9.16602 -18.5 -14.499c-9.33301 -7.33301 -10.666 -14.666 -3.99902 -21.999l15 -15.5l14 -15.5l12 -12
c2.66699 -4 3.33398 -7 2.00098 -9s-3 -3 -5 -3h-6c-4.66699 0.666992 -9 2.66699 -13 6l-19.5 17.5l-19.5 17.5l-8.5 8.5c-2.33301 2.33301 -4.83301 5.16602 -7.5 8.49902c-3.33301 4.66699 -4.66602 9.33398 -3.99902 14.001z" />
    <glyph glyph-name="equal" unicode="=" horiz-adv-x="162" 
d="M63 147c10.667 -0.666992 21 -1.16602 31 -1.49902s20.333 -1.5 31 -3.5c4.66699 -1.33301 7 -3.66602 7 -6.99902c-0.666992 -3.33301 -3.33398 -5 -8.00098 -5c-2.66699 -0.666992 -5.33398 -1 -8.00098 -1h-8h-23c-8 0 -15.667 -0.666992 -23 -2
c-9.33301 -1.33301 -17.333 -0.666016 -24 2.00098c-2.66699 1.33301 -4.66699 2.66602 -6 3.99902s-2 2.66602 -2 3.99902s1.33301 2.33301 4 3c2 1.33301 4.16699 2.16602 6.5 2.49902s4.5 0.833008 6.5 1.5c2.66699 0.666992 5.33398 1.16699 8.00098 1.5
s5.33398 0.833008 8.00098 1.5zM53 112.001c10.667 -0.666992 21.166 -1.16992 31.499 -1.50293s20.5 -1.5 30.5 -3.5c2 -0.666992 3.83301 -1.66699 5.5 -3s2.16699 -2.66602 1.5 -3.99902c-0.666992 -3.33301 -3 -5 -7 -5c-3.33301 -0.666992 -6.16602 -1 -8.49902 -1
h-8.5c-7.33301 0 -14.833 0.166992 -22.5 0.5s-15.5 -0.166992 -23.5 -1.5c-8 -2 -15.667 -1.66699 -23 1c-2.66699 1.33301 -4.66699 2.66602 -6 3.99902c-4 2.66699 -3.66699 5.33398 1 8.00098c2 0.666992 4.16699 1.33398 6.5 2.00098s4.83301 1.33398 7.5 2.00098
s5.16699 1 7.5 1s4.83301 0.333008 7.5 1z" />
    <glyph glyph-name="greater" unicode="&#x3e;" horiz-adv-x="165" 
d="M59 189c2.66699 -1.33301 5.33301 -2.49805 8 -3.49805s5.33398 -2.16699 8.00098 -3.5c5.33301 -3.33301 10.166 -7 14.499 -11s8.5 -8.66699 12.5 -14c3.33301 -3.33301 6.33301 -7 9 -11s5.33398 -7.66699 8.00098 -11c4.66699 -8 3.33398 -15.667 -3.99902 -23
c-2.66699 -2.66699 -5.33398 -5.16699 -8.00098 -7.5l-9 -7.5l-28 -24c-9.33301 -8 -18.666 -16.667 -27.999 -26c-4 -4 -8 -5 -12 -3c-2 0.666992 -4 1.5 -6 2.5s-3.66699 2.83301 -5 5.5c-2 3.33301 -1.66699 7 1 11l12 12l53 53c3.33301 3.33301 5.16602 5.5 5.49902 6.5
s-0.833984 3.16699 -3.50098 6.5c-4.66699 6.66699 -9.5 12.5 -14.5 17.5s-10.5 10.167 -16.5 15.5c-2 1.33301 -3.33301 3.66602 -4 6.99902c-2 3.33301 -0.666992 5.66602 4 6.99902h3v1z" />
    <glyph glyph-name="question" unicode="?" horiz-adv-x="157" 
d="M141 358c-2 -1.33301 -3.99902 -2.16699 -5.99902 -2.5s-3.66699 -1.16602 -5 -2.49902c-18.667 -11.333 -34.667 -29.666 -48 -54.999c-1.33301 -2 -2.66602 -5 -3.99902 -9c-0.666992 -1.33301 -1 -3.66602 -1 -6.99902c0.666992 -2.66699 -0.333008 -4.66699 -3 -6
c-4 -2.66699 -8 -1.33398 -12 3.99902c-3.33301 2 -4.33301 7 -3 15c0.666992 1.33301 1 2.66602 1 3.99902s0.333008 2.66602 1 3.99902c1.33301 2.66699 2.66602 5.16699 3.99902 7.5s2.66602 4.5 3.99902 6.5c14.667 26 33 44.667 55 56
c11.333 6.66699 21.333 5.66699 30 -3c8.66699 -8 10.667 -19.333 6 -34c-1.33301 -4.66699 -2.66602 -9 -3.99902 -13l-4 -12c-3.33301 -8.66699 -7 -17.167 -11 -25.5l-12 -24.5c-14.667 -30 -28.667 -60.167 -42 -90.5l-40 -92.5c-1.33301 -3.33301 -3 -7 -5 -11
s-3.66699 -7.66699 -5 -11c-0.666992 -4.66699 -3 -7 -7 -7s-7.33301 2 -10 6c-2.66699 2.66699 -3 7 -1 13c0.666992 2 1.16699 4.16699 1.5 6.5s1.16602 4.5 2.49902 6.5l35.5 86.5l35.5 86.5c5.33301 12 11 23.833 17 35.5s11.667 23.5 17 35.5c1.33301 3.33301 3 7 5 11
s3.66699 8 5 12s2.33301 7.33301 3 10zM5.00098 -12.001c-3.33301 -1.33301 -6.33398 -0.333008 -9.00098 3c-2.66699 4 -2 6.66699 2 8c2 1.33301 4.16699 2.5 6.5 3.5s4.5 1.83301 6.5 2.5c1.33301 0.666992 3.33301 0.333984 6 -0.999023c4 -2 4.33301 -5.66699 1 -11
c-3.33301 -4.66699 -7.66602 -6.33398 -12.999 -5.00098z" />
    <glyph glyph-name="at" unicode="@" horiz-adv-x="214" 
d="M93 114c-1.33301 -1.33301 -2.66797 -3.00488 -4.00098 -5.00488s-2.66602 -3.66699 -3.99902 -5c-2 -2 -3.83301 -4.16699 -5.5 -6.5s-3.5 -4.5 -5.5 -6.5c-10.667 -8.66699 -21.334 -11 -32.001 -7c-7.33301 2.66699 -11.666 9.66699 -12.999 21c0 10 2 20.667 6 32
c4 12.667 10.333 25 19 37c10.667 11.333 21 15.666 31 12.999c5.33301 -1.33301 9.16602 -4.66602 11.499 -9.99902s2.16602 -11.666 -0.500977 -18.999c-2 -5.33301 -5 -8 -9 -8c-2.66699 0 -4.33398 0.333008 -5.00098 1
c-3.33301 0.666992 -4.66602 3.33398 -3.99902 8.00098c1.33301 6.66699 1.66602 11.334 0.999023 14.001c-4 -1.33301 -7.83301 -5.16602 -11.5 -11.499s-6.66699 -13.333 -9 -21s-4 -15.334 -5 -23.001s-0.5 -13.5 1.5 -17.5c4.66699 2.66699 9 6.66699 13 12l11.5 16
l11.5 16c1.33301 1.33301 2 2.33301 2 3c5.33301 9.33301 12.333 12.333 21 9c5.33301 -1.33301 7.33301 -4.66602 6 -9.99902c0 -3.33301 -0.166992 -6.33301 -0.5 -9s-0.5 -5.33398 -0.5 -8.00098c-0.666992 -3.33301 -1.16699 -6.83301 -1.5 -10.5
s0.166992 -7.5 1.5 -11.5c1.33301 1.33301 2.66602 2.33301 3.99902 3c9.33301 8.66699 18.333 20.334 27 35.001c10 19.333 17 39 21 59c2 15.333 1.33301 28.666 -2 39.999c-6 17.333 -17.333 26.666 -34 27.999c-18.667 0.666992 -37 -8 -55 -26
c-6 -6 -11.5 -12.667 -16.5 -20s-9.83301 -15 -14.5 -23c-19.333 -36 -31.333 -74.333 -36 -115c-1.33301 -10 -1.83301 -19.667 -1.5 -29s1.5 -18.666 3.5 -27.999c2 -7.33301 4.66699 -14.166 8 -20.499s7.66602 -11.5 12.999 -15.5c10 -8 20.667 -8.33301 32 -1
c4 2.66699 7.83301 5.5 11.5 8.5s7.16699 6.5 10.5 10.5l18 23.5l18 23.5l12 15c4 6 8.66699 7.66699 14 5c2 -1.33301 2.66699 -3.66602 2 -6.99902c-1.33301 -1.33301 -2.16602 -2.83301 -2.49902 -4.5s-1.16602 -3.16699 -2.49902 -4.5l-16.5 -24.5l-16.5 -24.5
c-2.66699 -3.33301 -5.16699 -6.66602 -7.5 -9.99902s-5.16602 -6.66602 -8.49902 -9.99902c-19.333 -19.333 -39.666 -27 -60.999 -23c-34 6 -53 30.667 -57 74c-1.33301 12 -1.5 24 -0.5 36s2.83301 24 5.5 36c9.33301 38.667 23.666 73.667 42.999 105
c5.33301 8 11 15.667 17 23s12.667 13.666 20 18.999c33.333 26.667 66.333 30.667 99 12c18 -10.667 27.333 -28 28 -52c0.666992 -6.66699 0.333984 -13.167 -0.999023 -19.5s-3 -12.5 -5 -18.5c-7.33301 -26.667 -18 -49.334 -32 -68.001
c-3.33301 -4.66699 -6.83301 -8.83398 -10.5 -12.501s-7.5 -7.16699 -11.5 -10.5c-9.33301 -7.33301 -18.333 -9 -27 -5c-7.33301 2 -11.666 8 -12.999 18c-0.666992 0.666992 -1 2.33398 -1 5.00098z" />
    <glyph glyph-name="A" unicode="A" horiz-adv-x="490" 
d="M464 -192c-0.666992 0.666992 -1.67285 0.998047 -3.00586 0.998047c-18 6.66699 -33.333 18.334 -46 35.001s-22.667 36 -30 58c-6.66699 17.333 -11.667 35.166 -15 53.499s-5.66602 36.833 -6.99902 55.5c-2 22 -2.16699 43.833 -0.5 65.5s4.16699 43.5 7.5 65.5
c4 31.333 9.16699 62.166 15.5 92.499s13.166 60.833 20.499 91.5v5h-6c-10.667 -1.33301 -21.167 -2.16602 -31.5 -2.49902s-20.833 -1.16602 -31.5 -2.49902c-12 -1.33301 -23.833 -3.16602 -35.5 -5.49902s-23.5 -4.5 -35.5 -6.5c-5.33301 -0.666992 -10 -3.66699 -14 -9
l-75.5 -105.5l-77.5 -103.5l-101.5 -135l-101.5 -134l-18.5 -23.5l-18.5 -23.5l-9 -9c-5.33301 -5.33301 -12 -7 -20 -5c-5.33301 0.666992 -6.33301 3.66699 -3 9c4.66699 8 9.33398 15.333 14.001 22l135 186l109.5 152l109.5 152c1.33301 1.33301 2.66602 3 3.99902 5
l4 6h-5c-34 -8.66699 -67.167 -18.5 -99.5 -29.5s-64.166 -24.5 -95.499 -40.5c-19.333 -10 -37.666 -20.667 -54.999 -32s-34.666 -23.666 -51.999 -36.999l-36 -27.5c-12 -9 -23.333 -18.833 -34 -29.5c-6 -6 -12.667 -6.33301 -20 -1
c-2.66699 2.66699 -3.33398 6 -2.00098 10c0.666992 1.33301 1.16699 2.5 1.5 3.5s1.16602 2.16699 2.49902 3.5l7 9c2 2.66699 4.66699 5.33398 8 8.00098c20 18.667 40.667 36.5 62 53.5s43.666 32.5 66.999 46.5c28 16.667 56.5 31 85.5 43s58.833 22.333 89.5 31
c16 4.66699 32 9 48 13l47 12c4.66699 0.666992 8.33398 3.33398 11.001 8.00098c1.33301 2 3 4.16699 5 6.5s3.66699 4.83301 5 7.5v1l2 2c4 6 10.667 15.333 20 28l33 44l41.5 54l44.5 58l115 149l26 31c8 8 17 11 27 9c4 -1.33301 7.66699 -2.5 11 -3.5
s6.66602 -2.83301 9.99902 -5.5c6.66699 -4.66699 9.33398 -11.667 8.00098 -21c-0.666992 -2.66699 -1.66699 -7.33398 -3 -14.001c-5.33301 -18.667 -11.333 -36.834 -18 -54.501l-21 -53.5c-14 -36 -27.167 -72 -39.5 -108s-24.166 -72.333 -35.499 -109
c-0.666992 -1.33301 -1 -2.66602 -1 -3.99902s-0.333008 -3 -1 -5l15 -3c8.66699 -2 17 -5 25 -9l3.5 -2.5c2.33301 -1.66699 4.33301 -3.83398 6 -6.50098s2.33398 -5.83398 2.00098 -9.50098s-2.83301 -7.5 -7.5 -11.5l-2 2c-13.333 7.33301 -29.333 12 -48 14l-2 -1
l-4 -14c-1.33301 -4.66699 -2.66602 -9.66699 -3.99902 -15c-6.66699 -28 -12.834 -55.667 -18.501 -83s-10.5 -55 -14.5 -83c-2.66699 -16 -4.83398 -32 -6.50098 -48s-2.16699 -32 -1.5 -48c0.666992 -21.333 2.83398 -42.333 6.50098 -63s9.16699 -41 16.5 -61
c6.66699 -18 15.334 -34 26.001 -48c4.66699 -6 8.33398 -10 11.001 -12c1.33301 -1.33301 2.33301 -2 3 -2c1.33301 -1.33301 2.83301 -2.66602 4.5 -3.99902s3.5 -2.66602 5.5 -3.99902c8 -4 15.833 -5.33301 23.5 -4s14.667 4 21 8s11.833 8.66699 16.5 14
s8.33398 9.66602 11.001 12.999c5.33301 7.33301 9.66602 14 12.999 20s5.33301 9.33301 6 10l12 24c2 3.33301 5.33301 6.33301 10 9c0.666992 0.666992 1.33398 1 2.00098 1c2 0.666992 4.33301 0.333984 7 -0.999023c1.33301 -1.33301 2.83301 -3 4.5 -5
s1.83398 -4.66699 0.500977 -8c-0.666992 0 -1 -0.666992 -1 -2v-1c-0.666992 -0.666992 -2 -3.33398 -4 -8.00098s-4.83301 -10.334 -8.5 -17.001s-8.16699 -14.167 -13.5 -22.5s-11 -16.5 -17 -24.5l-11.5 -11.5c-5.66699 -5.66699 -12.834 -11.167 -21.501 -16.5
s-18.5 -9.5 -29.5 -12.5s-22.5 -2.83301 -34.5 0.5zM282.994 346.998c22 3.33301 43.834 6.33301 65.501 9s43.834 3.66699 66.501 3l8 29.5l8 29.5c3.33301 9.33301 6.16602 18.833 8.49902 28.5s5.16602 19.167 8.49902 28.5c3.33301 10 6.33301 19.833 9 29.5
s5.66699 19.5 9 29.5l10 28l10 28l10 28.5l10 29.5l-61 -77l-47.5 -61.5l-34.5 -44.5l-52.5 -74.5c-15 -21.667 -24.167 -36.167 -27.5 -43.5z" />
    <glyph glyph-name="B" unicode="B" horiz-adv-x="573" 
d="M616 615c1.33301 -11.333 1.66211 -22.1709 0.995117 -32.5039s-2.33398 -20.833 -5.00098 -31.5c-4.66699 -20 -11 -39.167 -19 -57.5s-17.667 -35.833 -29 -52.5c-14 -22.667 -29.333 -44 -46 -64s-34.667 -39.333 -54 -58l-50 -47l-51 -47
c-2.66699 -2.66699 -5 -4.66699 -7 -6c2.66699 -1.33301 5 -1.83301 7 -1.5s3.66699 0.5 5 0.5c10 0.666992 19.833 0.666992 29.5 0s19.167 -2.33398 28.5 -5.00098c7.33301 -1.33301 14.166 -3.5 20.499 -6.5s12.5 -6.16699 18.5 -9.5c6 -4 11.167 -7.66699 15.5 -11
s8.16602 -7.66602 11.499 -12.999c5.33301 -5.33301 10.666 -15.333 15.999 -30c0.666992 -2 1.83398 -7.5 3.50098 -16.5s1.83398 -19.5 0.500977 -31.5c0 -3.33301 -0.333008 -6 -1 -8c-1.33301 -7.33301 -2.83301 -14.333 -4.5 -21s-3.83398 -13.667 -6.50098 -21
c-21.333 -62.667 -56.666 -118 -105.999 -166c-44.667 -44 -95 -77.667 -151 -101c-34 -13.333 -68.667 -18.666 -104 -15.999c-6 0 -12 0.666992 -18 2s-12 3 -18 5c-27.333 10.667 -45.666 30.334 -54.999 59.001c-0.666992 2 -2.33398 5 -5.00098 9
c0 3.33301 -0.166992 6.5 -0.5 9.5s-0.833008 6.16699 -1.5 9.5c1.33301 2.66699 2 4.66699 2 6c0 9.33301 1.5 18.333 4.5 27s6.83301 17 11.5 25c7.33301 13.333 15.666 25.5 24.999 36.5s19.666 21.5 30.999 31.5c17.333 15.333 35.5 29.333 54.5 42
s39.167 24.334 60.5 35.001c14.667 8.66699 32.667 16.667 54 24c18 6.66699 40.333 13.167 67 19.5s57.667 11.166 93 14.499c1.33301 0 4 0.166992 8 0.5s8.33301 0.833008 13 1.5c-0.666992 17.333 -3.33398 30.333 -8.00098 39l-7 12
c-9.33301 12.667 -21.666 20.667 -36.999 24c-8 2 -15.833 2.83301 -23.5 2.5s-15.167 -1.16602 -22.5 -2.49902l-18.5 -4l-18.5 -4c-9.33301 -2 -19 -1.33301 -29 2c-3.33301 0.666992 -6 2.33398 -8 5.00098c-7.33301 4.66699 -8.66602 10 -3.99902 16c1.33301 2 3 4 5 6
l6 6l90 84c21.333 20 41.5 40.667 60.5 62s36.833 44 53.5 68c13.333 19.333 25.5 39.5 36.5 60.5s20.167 43.167 27.5 66.5c7.33301 20 11 40 11 60c-0.666992 5.33301 -1.33398 10.333 -2.00098 15s-2.66699 9.66699 -6 15c-5.33301 10 -13.333 15 -24 15
c-5.33301 -0.666992 -10.833 -1.5 -16.5 -2.5s-11.167 -2.83301 -16.5 -5.5c-13.333 -5.33301 -25.333 -12.166 -36 -20.499s-21 -17.166 -31 -26.499c-17.333 -16.667 -33.666 -34.167 -48.999 -52.5s-29.666 -37.5 -42.999 -57.5c-18.667 -28 -36.167 -56 -52.5 -84
l-47.5 -85c-18 -32.667 -35.167 -65.5 -51.5 -98.5l-48.5 -99.5l-20.5 -41.5l-20.5 -40.5c-1.33301 -3.33301 -2.5 -6.5 -3.5 -9.5s-2.16699 -6.16699 -3.5 -9.5c-1.33301 -6.66699 -4.5 -11 -9.5 -13s-10.833 -1.66699 -17.5 1c-5.33301 2 -7.66602 5.33301 -6.99902 10
c0.666992 3.33301 1.33398 6.33301 2.00098 9l2 8c12 72.667 27 143.667 45 213s37.333 138.333 58 207l34.5 114l35.5 114c0.666992 3.33301 1.33398 6.5 2.00098 9.5s1.66699 6.5 3 10.5l-8 -4l-44.5 -27.5l-43.5 -27.5c-8 -5.33301 -16.167 -10.5 -24.5 -15.5
l-25.5 -15.5c-4 -2.66699 -8.16699 -4.83398 -12.5 -6.50098s-8.83301 -3.16699 -13.5 -4.5c-5.33301 -2.66699 -11.333 -2.33398 -18 0.999023c-3.33301 1.33301 -5 3.33301 -5 6c0 0.666992 1.66699 2 5 4c5.33301 0.666992 10.333 2 15 4s9 4.66699 13 8l33 20l33 21
l40.5 27l41.5 27c3.33301 2 6.83301 3.83301 10.5 5.5s7.83398 1.83398 12.501 0.500977c5.33301 -1.33301 9.66602 -2.66602 12.999 -3.99902c8.66699 -4.66699 13 -12 13 -22c0 -4 -0.166992 -8 -0.5 -12s-0.833008 -8 -1.5 -12c-8 -41.333 -18 -81.333 -30 -120
l-36.5 -128.5l-37.5 -127.5l-17.5 -65l-17.5 -65c-1.33301 -4 -1.66602 -6.66699 -0.999023 -8l2 4l2 4c23.333 49.333 47.5 97.666 72.5 144.999s51.833 94 80.5 140c13.333 22.667 27.333 44.5 42 65.5s30.667 41.167 48 60.5c10 11.333 20.333 22 31 32
s22.334 19.667 35.001 29c8 5.33301 16.167 10.5 24.5 15.5s17.5 8.83301 27.5 11.5c6.66699 1.33301 13.5 2.16602 20.5 2.49902s14.167 -0.5 21.5 -2.5c16.667 -4 30.334 -12 41.001 -24s17.334 -26.667 20.001 -44zM458.996 67.9951
c2.66699 12 4.66895 22.9971 6.00195 32.9971c-28 -2 -54 -6 -78 -12s-45 -12 -63 -18c-2.66699 -1.33301 -4.33398 -2 -5.00098 -2c-30 -11.333 -58.5 -24.333 -85.5 -39s-52.5 -32 -76.5 -52c-9.33301 -7.33301 -18.166 -15.166 -26.499 -23.499
s-16.166 -17.166 -23.499 -26.499c-4.66699 -6 -8.83398 -12.167 -12.501 -18.5s-6.83398 -13.166 -9.50098 -20.499c-3.33301 -9.33301 -5.33301 -18.5 -6 -27.5s0.666016 -18.5 3.99902 -28.5c4 -13.333 10.667 -24.5 20 -33.5s20.666 -14.5 33.999 -16.5
c3.33301 -1.33301 7 -2 11 -2h11c11.333 0 22.333 1.5 33 4.5s21 6.83301 31 11.5c100.667 46.667 172.667 118.667 216 216c8.66699 18 15.334 36.333 20.001 55z" />
    <glyph glyph-name="C" unicode="C" horiz-adv-x="503" 
d="M517 144l-66.002 -92.5039l-63 -94.5l-28 -43.5c-9.33301 -14.333 -19.333 -28.166 -30 -41.499c-12.667 -16 -26.5 -30.833 -41.5 -44.5s-31.5 -25.5 -49.5 -35.5c-14.667 -7.33301 -29.334 -13.833 -44.001 -19.5s-30 -9.16699 -46 -10.5c-28 -3.33301 -53 0 -75 10
s-40.667 26.667 -56 50c-7.33301 11.333 -12.833 22.833 -16.5 34.5s-6.83398 24.167 -9.50098 37.5s-4.5 26.666 -5.5 39.999s-1.5 27 -1.5 41c0 5.33301 -0.5 10.666 -1.5 15.999s-0.833008 10.333 0.5 15c0.666992 4.66699 1.33398 9 2.00098 13
s1.33398 8.33301 2.00098 13c4 43.333 11 86 21 128c11.333 46 24.5 90.833 39.5 134.5s32.5 86.834 52.5 129.501c15.333 32.667 32.333 64 51 94s40 58.667 64 86c14 16.667 28.833 32.334 44.5 47.001s32.5 28 50.5 40c11.333 7.33301 23.333 14 36 20
s25.667 10.667 39 14c3.33301 1.33301 6.83301 2.16602 10.5 2.49902s7.16699 0.833008 10.5 1.5h10l15 -3c26.667 -5.33301 45.334 -19.666 56.001 -42.999c5.33301 -12 8.5 -24.167 9.5 -36.5s0.833008 -25.166 -0.5 -38.499c-2 -17.333 -7 -34.666 -15 -51.999
c-5.33301 -10 -11.666 -19.333 -18.999 -28c-7.33301 -6 -14.666 -7.66699 -21.999 -5c-1.33301 0.666992 -2.33301 1.33398 -3 2.00098s-1.66699 1.33398 -3 2.00098c0.666992 0.666992 0.833984 1.16699 0.500977 1.5s-0.166016 0.833008 0.500977 1.5
c6.66699 6.66699 11.834 13.667 15.501 21s6.83398 15.333 9.50098 24c5.33301 15.333 8.5 30.166 9.5 44.499s-0.166992 29.166 -3.5 44.499c-2 10.667 -5.33301 19.334 -10 26.001c-8.66699 16.667 -22.667 23.334 -42 20.001c-19.333 -4 -37 -11 -53 -21
c-20 -12.667 -39 -27.334 -57 -44.001c-22 -21.333 -42.167 -43.833 -60.5 -67.5s-35.166 -48.167 -50.499 -73.5c-18.667 -32 -35.334 -64.667 -50.001 -98s-28 -67.333 -40 -102c-22 -59.333 -39 -120.666 -51 -183.999c-5.33301 -25.333 -9.33301 -50.666 -12 -75.999
s-3.66699 -51 -3 -77c0 -17.333 1.16699 -34.5 3.5 -51.5s6.16602 -33.833 11.499 -50.5l10 -21.5c3.33301 -7 7.66602 -13.5 12.999 -19.5c26 -34 60.333 -45.333 103 -34c27.333 7.33301 53.666 21.666 78.999 42.999c13.333 11.333 25.5 23.666 36.5 36.999
s21.5 27.333 31.5 42l27.5 41l27.5 42c19.333 28.667 39.166 56.5 59.499 83.5l62.5 81.5l1 1c4 -0.666992 7.33301 -2 10 -4c2 -1.33301 3.66699 -3 5 -5s0.666016 -4.66699 -2.00098 -8z" />
    <glyph glyph-name="D" unicode="D" horiz-adv-x="549" 
d="M550 161c2 -4 3.33984 -7.33203 4.00684 -9.99902c1.33301 -6.66699 -0.333984 -10.667 -5.00098 -12l-9 -3.5l-9 -3.5c-11.333 -3.33301 -22.5 -7 -33.5 -11s-22.167 -7.66699 -33.5 -11c-2.66699 -1.33301 -5.33398 -4 -8.00098 -8
c-19.333 -41.333 -41.333 -80.333 -66 -117c-22 -31.333 -45.667 -60.833 -71 -88.5s-53.666 -53.167 -84.999 -76.5c-13.333 -10 -27.333 -19.333 -42 -28s-30.334 -15.667 -47.001 -21c-24 -9.33301 -49 -13 -75 -11c-15.333 0.666992 -30.333 5.33398 -45 14.001
c-16 10 -27 23.333 -33 40c-1.33301 2 -2.33301 3.83301 -3 5.5s-1.33398 3.5 -2.00098 5.5c-0.666992 1.33301 -1 2.66602 -1 3.99902s-0.333008 2.66602 -1 3.99902c0 1.33301 0.166992 2.33301 0.5 3s0.5 1.66699 0.5 3c-1.33301 15.333 0 29.666 4 42.999
s9.66699 26 17 38c13.333 22 31 41.333 53 58c52 43.333 113.333 74.666 184 93.999l79.5 22l79.5 22c6.66699 2 11 5.66699 13 11c26 60 47 121.667 63 185s26 129.333 30 198c0.666992 13.333 1 26.5 1 39.5s-1 26.167 -3 39.5l-4 25c-1.33301 8 -4 16.333 -8 25
c-1.33301 4 -2.66602 7 -3.99902 9c-6 8.66699 -13.667 12.334 -23 11.001c-12 -2 -23.667 -6 -35 -12c-10.667 -5.33301 -20.5 -11.833 -29.5 -19.5l-27.5 -23.5c-22 -20.667 -42.667 -42.5 -62 -65.5s-37.666 -46.833 -54.999 -71.5
c-60.667 -83.333 -111.667 -174 -153 -272c-4.66699 -10.667 -9 -21.5 -13 -32.5s-7.66699 -22.167 -11 -33.5c-1.33301 -3.33301 -2.83301 -6 -4.5 -8s-4.16699 -3.33301 -7.5 -4c-4 -1.33301 -8.16699 -1.83301 -12.5 -1.5s-8.83301 2.16602 -13.5 5.49902
c-3.33301 1.33301 -5 4.33301 -5 9c0.666992 2.66699 1.16699 5 1.5 7s0.5 4.33301 0.5 7c11.333 60 24.166 118.833 38.499 176.5s30.166 115.167 47.499 172.5l25 83c8 27.333 15.667 55 23 83c2.66699 7.33301 4.66699 14.833 6 22.5l4 23.5
c0.666992 2.66699 1 5.5 1 8.5s0.333008 6.16699 1 9.5c-3.33301 -1.33301 -6 -2.16602 -8 -2.49902s-4 -0.833008 -6 -1.5c-8.66699 -4.66699 -17.167 -8.83398 -25.5 -12.501s-16.833 -7.83398 -25.5 -12.501l-109 -62c-36 -20.667 -71.667 -42.334 -107 -65.001
c-4.66699 -3.33301 -9 -6.16602 -13 -8.49902s-8.33301 -4.5 -13 -6.5c-6 -3.33301 -13 -2 -21 4c0.666992 2.66699 3 5.33398 7 8.00098l53 34c17.333 11.333 35 22.333 53 33l79.5 46l79.5 46l20 10.5c6.66699 3.66699 13.667 6.16699 21 7.5
c11.333 2 22.666 -0.666992 33.999 -8c5.33301 -3.33301 9 -7.33301 11 -12s3.33301 -9.66699 4 -15c1.33301 -7.33301 1.5 -14.666 0.5 -21.999s-2.16699 -14.333 -3.5 -21l-10.5 -46l-11.5 -46l-34 -124.5l-34 -124.5c-1.33301 -4 -1.66602 -7.33301 -0.999023 -10
c0.666992 0.666992 1.16699 1.33398 1.5 2.00098s0.833008 1.33398 1.5 2.00098c25.333 44.667 52.666 89.334 81.999 134.001c21.333 32 43.666 62.667 66.999 92s48.666 57.333 75.999 84c7.33301 7.33301 14.666 14.166 21.999 20.499s15.333 12.166 24 17.499
c12.667 8.66699 26 14.334 40 17.001c16.667 3.33301 33.667 0.833008 51 -7.5s31 -20.833 41 -37.5c9.33301 -14.667 16 -31.334 20 -50.001c3.33301 -13.333 5.33301 -26.833 6 -40.5s1 -27.5 1 -41.5c-0.666992 -38 -4 -75 -10 -111s-14 -71.667 -24 -107
c-7.33301 -23.333 -15 -46.5 -23 -69.5s-16.667 -45.833 -26 -68.5c-0.666992 -1.33301 -1.66699 -4 -3 -8h5c12 3.33301 23.833 6.83301 35.5 10.5s23.5 7.16699 35.5 10.5zM396.007 84.001c0.666992 0.666992 1.00195 1.33301 1.00195 2s0.333008 1.66699 1 3
c-2.66699 0 -4.33398 -0.333008 -5.00098 -1l-40 -10.5l-40 -10.5l-50 -13.5c-16.667 -4.33301 -33 -9.83301 -49 -16.5c-26.667 -10.667 -51.834 -23 -75.501 -37s-45.834 -30.333 -66.501 -49c-21.333 -20 -36.666 -43 -45.999 -69
c-3.33301 -9.33301 -5.33301 -18.5 -6 -27.5s0.333008 -18.833 3 -29.5c5.33301 -23.333 19 -38 41 -44c11.333 -2.66699 21.333 -3 30 -1c9.33301 1.33301 18 3.5 26 6.5s16 6.5 24 10.5c17.333 9.33301 33.333 19.5 48 30.5s29 23.167 43 36.5c34 32 64 66.167 90 102.5
s49.667 75.5 71 117.5z" />
    <glyph glyph-name="E" unicode="E" horiz-adv-x="473" 
d="M461 557c8.66699 23.333 13.9971 47.3193 15.9971 71.9863c2 13.333 1.33301 27.666 -2 42.999c-1.33301 2.66699 -2.33301 5.33398 -3 8.00098s-1.66699 5.33398 -3 8.00098c-10 19.333 -26.667 27 -50 23c-10 -1.33301 -19.667 -3.66602 -29 -6.99902
s-18.666 -7.66602 -27.999 -12.999c-13.333 -7.33301 -26 -15.5 -38 -24.5s-23.667 -18.5 -35 -28.5c-60 -53.333 -111.667 -114.666 -155 -183.999c-11.333 -18 -20.333 -37 -27 -57c-3.33301 -11.333 -5 -21.333 -5 -30c1.33301 -14.667 7.33301 -23.667 18 -27l15.5 -4
c5 -1.33301 10.167 -2.33301 15.5 -3c13.333 -1.33301 26.333 -2.16602 39 -2.49902s25.667 -1.16602 39 -2.49902c10 -0.666992 20 -1.16699 30 -1.5s20 -1.16602 30 -2.49902c5.33301 -0.666992 10.333 -1.5 15 -2.5s9 -3.16699 13 -6.5c4.66699 -2 8.33398 -5 11.001 -9
c5.33301 -7.33301 5 -14.333 -1 -21c-2 -2.66699 -4.16699 -5 -6.5 -7s-4.83301 -4 -7.5 -6c-4.66699 -3.33301 -9.33398 -6.5 -14.001 -9.5s-9.33398 -6.16699 -14.001 -9.5l-45.5 -27.5c-15 -9 -29.833 -18.833 -44.5 -29.5
c-42.667 -29.333 -78.5 -63.166 -107.5 -101.499s-52.167 -81.166 -69.5 -128.499c-11.333 -32 -18 -63.333 -20 -94c0 -7.33301 0.166992 -14.333 0.5 -21s1.16602 -13.334 2.49902 -20.001c2.66699 -9.33301 5.33398 -16.333 8.00098 -21
c7.33301 -14.667 19.333 -19.334 36 -14.001c5.33301 1.33301 10.166 2.83301 14.499 4.5s8.83301 3.83398 13.5 6.50098c15.333 6.66699 29.666 14.5 42.999 23.5l40 27.5l57 47.5l55 50.5l78.5 76l77.5 77l49 52c2.66699 -0.666992 5.33398 -1.66699 8.00098 -3
c5.33301 -2.66699 6.33301 -6.33398 3 -11.001c-2 -2.66699 -8.16699 -9.5 -18.5 -20.5l-33.5 -35.5l-46 -48c-13.333 -15.333 -27 -30.166 -41 -44.499l-42 -42.5l-56 -54.5c-18.667 -17.667 -38 -34.5 -58 -50.5l-39 -28.5c-12.667 -9 -26 -17.167 -40 -24.5
c-10.667 -5.33301 -21.167 -10.166 -31.5 -14.499s-21.166 -7.5 -32.499 -9.5c-16 -3.33301 -30.667 -3 -44 1c-19.333 4.66699 -32.666 16.667 -39.999 36c-5.33301 14.667 -7.33301 30.667 -6 48c0.666992 26 4.33398 51.5 11.001 76.5s15.667 50.167 27 75.5
c12.667 28 27.334 54.333 44.001 79s36 48 58 70c14 14 29 27 45 39s32.333 23.333 49 34c11.333 7.33301 22.333 14 33 20s21.667 12.667 33 20l13.5 8l12.5 8l7.5 5.5c2.33301 1.66699 4.16602 4.16699 5.49902 7.5l-10 2c-3.33301 0.666992 -6.66602 1 -9.99902 1l-81 3
l-32.5 2c-10.333 0.666992 -20.833 2.33398 -31.5 5.00098c-7.33301 2 -14.5 4.33301 -21.5 7s-13.5 6.33398 -19.5 11.001c-18.667 13.333 -25.667 32.333 -21 57c2 8 4.66699 17.333 8 28c3.33301 10 7.66602 19.667 12.999 29s11 18.666 17 27.999
c22.667 34.667 47.334 67.334 74.001 98.001s56 59.667 88 87c12.667 10.667 25.5 20.334 38.5 29.001s26.833 16.667 41.5 24c9.33301 4.66699 19 8.5 29 11.5s20.333 5.16699 31 6.5c37.333 2 64.333 -12.333 81 -43c9.33301 -17.333 13 -37.666 11 -60.999
c-2 -30 -8.5 -58.667 -19.5 -86s-25.833 -53.666 -44.5 -78.999c-4.66699 -6 -9.33398 -11.5 -14.001 -16.5s-10 -9.83301 -16 -14.5c-2 -1.33301 -4 -2.5 -6 -3.5s-4 -1.83301 -6 -2.5c-6 -2 -10.667 -0.333008 -14 5c0 1.33301 0.666992 2 2 2
c6.66699 4 12.334 8.83301 17.001 14.5s9 11.5 13 17.5c20 28 36.333 59 49 93z" />
    <glyph glyph-name="F" unicode="F" horiz-adv-x="352" 
d="M152 346c-1.33301 4 -2.33398 6.66895 -3.00098 8.00195c-5.33301 13.333 -12.166 25.333 -20.499 36s-17.5 21 -27.5 31c-11.333 11.333 -22.833 21.833 -34.5 31.5s-23.834 19.167 -36.501 28.5c-6 5.33301 -12.167 10.333 -18.5 15s-12.5 9.66699 -18.5 15
c-7.33301 6 -13.333 12.333 -18 19c-12 16 -10.333 29.667 5 41c3.33301 3.33301 7.16602 6.16602 11.499 8.49902l12.5 6.5c12.667 5.33301 25.5 10.166 38.5 14.499s26.167 8.16602 39.5 11.499c26.667 7.33301 53.167 13.833 79.5 19.5s53.5 10.834 81.5 15.501
c5.33301 1.33301 10.333 2.16602 15 2.49902s9.66699 0.833008 15 1.5c4 0.666992 6.33301 2.66699 7 6l10.5 34l10.5 34l3 12c0.666992 4.66699 3.33398 6.33398 8.00098 5.00098c5.33301 -1.33301 9 -2.33301 11 -3c6 -3.33301 8 -7.66602 6 -12.999l-2 -12
c-0.666992 -4 -1.66699 -8 -3 -12l-9 -39c-0.666992 -1.33301 -1 -3.33301 -1 -6c3.33301 0.666992 6.66602 1 9.99902 1s6.66602 0.333008 9.99902 1c10 1.33301 19.833 2.5 29.5 3.5s19.5 2.16699 29.5 3.5s20 2.5 30 3.5s20.333 2.16699 31 3.5
c8 1.33301 16.167 2.16602 24.5 2.49902s16.833 1.16602 25.5 2.49902l28 2c9.33301 0.666992 18.666 1.66699 27.999 3c7.33301 0.666992 14.166 1.16699 20.499 1.5s12.833 0.833008 19.5 1.5c12.667 0.666992 25 1 37 1s24.333 0.333008 37 1c9.33301 0 18 -3 26 -9
c2 -0.666992 3.66699 -2.66699 5 -6c1.33301 -2.66699 1.5 -4.66699 0.5 -6s-2.5 -2 -4.5 -2c-4 0 -7 0.666992 -9 2c-4 1.33301 -7.66699 2 -11 2c-12.667 -0.666992 -25.167 -1.16699 -37.5 -1.5s-24.5 -1.16602 -36.5 -2.49902l-27.5 -2
c-9 -0.666992 -18.167 -1.66699 -27.5 -3c-10.667 -1.33301 -21.334 -2.5 -32.001 -3.5s-21.667 -2.16699 -33 -3.5c-9.33301 -1.33301 -18.666 -2.33301 -27.999 -3s-18.666 -1.66699 -27.999 -3l-32.5 -4l-31.5 -4c-9.33301 -1.33301 -18.333 -2.5 -27 -3.5
s-17.667 -2.16699 -27 -3.5c-3.33301 -0.666992 -5.33301 -1.66699 -6 -3s-1.66699 -3 -3 -5l-18.5 -72l-19.5 -71l-14 -53l-14 -53c-1.33301 -4 -2.33301 -7.33301 -3 -10c2.66699 0.666992 5 1 7 1s4 0.333008 6 1l83 17.5l83 16.5
c4.66699 1.33301 9.33398 2.16602 14.001 2.49902s9.33398 1.16602 14.001 2.49902c8 1.33301 15.333 0 22 -4c2.66699 -2 5 -4.33301 7 -7c1.33301 -2 1.5 -4 0.5 -6s-2.83301 -3 -5.5 -3c-4 0 -7.33301 1 -10 3c-2 0.666992 -5.33301 1 -10 1
c-31.333 -6 -62.333 -12.333 -93 -19l-93 -21c-5.33301 -1.33301 -10.5 -2.5 -15.5 -3.5s-10.167 -2.16699 -15.5 -3.5c0 -1.33301 -0.666992 -3.33301 -2 -6l-42 -159c-2.66699 -9.33301 -4.83398 -18.5 -6.50098 -27.5s-3.83398 -18.167 -6.50098 -27.5l-9.5 -32.5
l-9.5 -31.5c-5.33301 -17.333 -10.166 -35 -14.499 -53s-9.16602 -36 -14.499 -54l-24 -87.5c-8 -29 -15.667 -58.5 -23 -88.5c-1.33301 -5.33301 -4 -9 -8 -11c-3.33301 -0.666992 -6.33301 -1 -9 -1s-5.66699 0.666992 -9 2s-4.33301 4 -3 8
c1.33301 7.33301 2.83301 14.333 4.5 21l5.5 21c2 9.33301 4.16699 18.833 6.5 28.5s4.83301 19.167 7.5 28.5c1.33301 4 1 7 -1 9c-1.33301 1.33301 -1 3.66602 1 6.99902l4 12l4 12c3.33301 9.33301 6.16602 18.5 8.49902 27.5s4.83301 18.167 7.5 27.5l35 139l35 139
c1.33301 4 2 7.33301 2 10c0 22.667 -2.33301 44.334 -7 65.001c-0.666992 0.666992 -1 1.33398 -1 2.00098s-0.333008 1.66699 -1 3c-1.33301 0 -2.16602 -0.166992 -2.49902 -0.5s-1.16602 -0.5 -2.49902 -0.5l-65.5 -17.5l-65.5 -17.5
c-3.33301 -0.666992 -6.16602 -1.66699 -8.49902 -3s-4.83301 -2.66602 -7.5 -3.99902s-6 -1.33301 -10 0s-7 3 -9 5c-1.33301 2.66699 -1 5 1 7c1.33301 1.33301 3 2.33301 5 3s3.66699 1.66699 5 3c10.667 3.33301 21 6.83301 31 10.5s20.333 7.16699 31 10.5l44.5 11.5
l43.5 11.5c0.666992 0 1.16699 0.166992 1.5 0.5s0.833008 0.5 1.5 0.5zM269.999 624.002c-4 0 -6.66797 -0.332031 -8.00098 -0.999023c-14 -2.66699 -27.833 -5.16699 -41.5 -7.5s-27.167 -4.83301 -40.5 -7.5l-64 -14c-21.333 -4.66699 -42.333 -10.334 -63 -17.001
c-6.66699 -2 -13.167 -4.16699 -19.5 -6.5s-12.5 -4.83301 -18.5 -7.5c-5.33301 -2.66699 -10.333 -6.33398 -15 -11.001c-6.66699 -7.33301 -7 -15.333 -1 -24c1.33301 -1.33301 2.83301 -3 4.5 -5s3.5 -3.66699 5.5 -5l30 -24l35.5 -28.5l34.5 -29.5
c12.667 -12.667 24.334 -25.667 35.001 -39s19.667 -28.333 27 -45c0.666992 0 1 -0.166992 1 -0.5s0.333008 -0.5 1 -0.5h1c5.33301 1.33301 9.33301 2 12 2c6 0.666992 10 4.66699 12 12l35 127l35 127c0.666992 0.666992 1 1.33398 1 2.00098s0.333008 1.66699 1 3z
M179.998 331.003c1.33301 -5.33301 2.66504 -10 3.99805 -14h1l2 8c0.666992 2.66699 1.33398 5.66699 2.00098 9c-2 -0.666992 -3.66699 -1.16699 -5 -1.5s-2.66602 -0.833008 -3.99902 -1.5z" />
    <glyph glyph-name="G" unicode="G" horiz-adv-x="493" 
d="M505 160c2 -1.33301 3.33496 -3.33105 4.00195 -5.99805s0.333984 -5 -0.999023 -7c-5.33301 -8.66699 -11 -16.834 -17 -24.501s-12.333 -15.167 -19 -22.5c-32.667 -40 -68.334 -75.333 -107.001 -106c-0.666992 -0.666992 -1 -1.33398 -1 -2.00098l-8 -23l-1 -2
l-16.5 -42.5l-17.5 -43.5c-9.33301 -23.333 -21.666 -44 -36.999 -62c-24 -30.667 -55 -48 -93 -52c-12.667 -2.66699 -23.667 -2 -33 2c-21.333 7.33301 -28.333 22 -21 44c4 12.667 10.667 25 20 37c7.33301 10.667 15.666 20.334 24.999 29.001s19 17 29 25l52.5 40
l52.5 40l4 4c1.33301 1.33301 2.33301 3 3 5c9.33301 26 18.166 52.167 26.499 78.5s15.5 52.833 21.5 79.5c3.33301 12.667 6.33301 25 9 37s4.66699 24.333 6 37c0 4 0.333008 7.66699 1 11c-2 -1.33301 -3.83301 -2.33301 -5.5 -3s-3.16699 -1.66699 -4.5 -3l-23.5 -19
c-7.66699 -6 -15.167 -12.667 -22.5 -20l-36.5 -33.5l-35.5 -33.5l-22 -19.5c-7.33301 -6.33301 -15.333 -12.166 -24 -17.499c-7.33301 -5.33301 -14.666 -9.83301 -21.999 -13.5s-15.333 -6.16699 -24 -7.5c-13.333 -2.66699 -25.833 -3 -37.5 -1
s-22.167 7.33301 -31.5 16c-10 8 -17.667 19 -23 33c-4 10.667 -6.66699 21.667 -8 33s-1.66602 23 -0.999023 35c0.666992 23.333 3 46 7 68s9.66699 44 17 66c36.667 114 92.667 218 168 312c11.333 14 23 27.167 35 39.5s25 24.166 39 35.499
c5.33301 3.33301 10.333 6.66602 15 9.99902s9.66699 6.66602 15 9.99902c7.33301 4.66699 15.333 8 24 10c13.333 4.66699 26 4 38 -2s20.667 -15 26 -27c3.33301 -6.66699 5.5 -13.167 6.5 -19.5s1.83301 -13.166 2.5 -20.499c1.33301 -16 1.16602 -32 -0.500977 -48
s-3.83398 -32 -6.50098 -48c-3.33301 -17.333 -7.33301 -34.166 -12 -50.499s-10.334 -32.833 -17.001 -49.5c-6.66699 -14 -13.667 -26.667 -21 -38c-2.66699 -3.33301 -6.16699 -5.33301 -10.5 -6s-8.16602 0.333008 -11.499 3c-2 2 -2.66699 4.33301 -2 7
c1.33301 1.33301 2 2.66602 2 3.99902c9.33301 13.333 16.833 27.5 22.5 42.5s10.834 30.167 15.501 45.5c12.667 41.333 19.334 81.666 20.001 120.999c0 8 -0.333008 16 -1 24s-2 15.667 -4 23l-3.5 8.5c-1 2.33301 -2.16699 4.83301 -3.5 7.5c-2 4 -5 5.66699 -9 5
c-2.66699 -0.666992 -5.16699 -1.33398 -7.5 -2.00098s-4.83301 -1.66699 -7.5 -3c-10.667 -6 -20 -12.333 -28 -19c-14.667 -12 -28.167 -24.833 -40.5 -38.5s-24.166 -28.167 -35.499 -43.5c-36.667 -48 -68.334 -98 -95.001 -150s-48.667 -106.667 -66 -164
c-6.66699 -20.667 -11.834 -41.5 -15.501 -62.5s-5.83398 -42.167 -6.50098 -63.5c0 -9.33301 0.333008 -18.5 1 -27.5s2.66699 -18.167 6 -27.5s7.66602 -16.666 12.999 -21.999c5.33301 -6 12 -8 20 -6c10 3.33301 20.667 8 32 14c10.667 6 20.834 12.667 30.501 20
s19.167 15 28.5 23l44.5 40.5l44.5 40.5c5.33301 4 10.333 8.16699 15 12.5s9.66699 8.5 15 12.5c10 6.66699 21 9 33 7c15.333 -3.33301 23.666 -13.333 24.999 -30c1.33301 -7.33301 1.5 -14.333 0.5 -21s-2.16699 -13.667 -3.5 -21
c-4 -23.333 -9.16699 -46.166 -15.5 -68.499s-13.166 -44.833 -20.499 -67.5l-7 -18c21.333 18.667 41.5 38.5 60.5 59.5s37.167 43.167 54.5 66.5c3.33301 6 7.66602 7.33301 12.999 4zM304.002 -59.998c0.666992 0.666992 0.998047 2.33301 0.998047 5
c-1.33301 -0.666992 -2.16602 -1.16699 -2.49902 -1.5s-1.16602 -0.833008 -2.49902 -1.5c-7.33301 -5.33301 -14.333 -10.833 -21 -16.5l-21 -17.5l-28 -23c-9.33301 -8 -18 -16.667 -26 -26c-12 -12.667 -20.667 -26 -26 -40
c-1.33301 -3.33301 -2.33301 -6.83301 -3 -10.5s-0.666992 -7.16699 0 -10.5c0 -8.66699 4.66699 -13 14 -13c3.33301 0 6 0.333008 8 1c19.333 4 36 15 50 33c11.333 14.667 20 29.667 26 45l15.5 37.5z" />
    <glyph glyph-name="H" unicode="H" horiz-adv-x="453" 
d="M-123 -109c1.33301 2.66699 2.00195 4.33398 2.00195 5.00098c4 17.333 11.333 33 22 47c10 12.667 22 26 36 40c15.333 15.333 31.333 30 48 44l51 41l47 35.5l48 35.5c5.33301 4 8.66602 8.33301 9.99902 13c19.333 47.333 37.5 94.666 54.5 141.999l51.5 143l33 93.5
l32 93.5c2.66699 7.33301 4.83398 14.333 6.50098 21l5.5 21c0.666992 3.33301 1 9 1 17c-3.33301 -1.33301 -6.5 -2.33301 -9.5 -3s-6.16699 -1.66699 -9.5 -3l-38.5 -18l-37.5 -18l-87 -45l-87 -44c-12.667 -6.66699 -25.334 -12.834 -38.001 -18.501
s-25.667 -10.834 -39 -15.501c-3.33301 -0.666992 -7.66602 -1.66699 -12.999 -3c-6 -1.33301 -11 -0.666016 -15 2.00098c-0.666992 1.33301 -2.33398 3.33301 -5.00098 6c1.33301 0.666992 2.5 1.33398 3.5 2.00098s1.83301 1 2.5 1c8 2 15.833 4.5 23.5 7.5
s15.167 6.16699 22.5 9.5l120 60l76 39.5l77 39.5c6 3.33301 12.167 6.16602 18.5 8.49902l19.5 7.5c4 1.33301 8 1.66602 12 0.999023s8 -1.66699 12 -3c13.333 -6 19.333 -16.333 18 -31c0 -6.66699 -0.5 -13 -1.5 -19s-2.16699 -12.333 -3.5 -19
c-5.33301 -21.333 -11.166 -42.333 -17.499 -63l-19.5 -63l-52 -153l-56 -151c-1.33301 -2.66699 -2 -5.33398 -2 -8.00098c1.33301 0.666992 2.16602 1.16699 2.49902 1.5s1.16602 0.833008 2.49902 1.5c37.333 28.667 72.5 59 105.5 91s64.167 66.667 93.5 104
c2 2 3.5 4.16699 4.5 6.5s2.16699 4.83301 3.5 7.5c12 38 24.5 75.5 37.5 112.5s27.167 74.167 42.5 111.5c5.33301 13.333 11 26.333 17 39s12.667 25 20 37l9.5 13.5l9.5 13.5c5.33301 6.66699 11.333 9.83398 18 9.50098s12.667 -3.83301 18 -10.5
c2.66699 -4 3.66699 -8.66699 3 -14l-4 -18l-4 -18c-8.66699 -36 -20.334 -70.667 -35.001 -104s-31.667 -66 -51 -98l-4 -8c-1.33301 -2.66699 -2.33301 -5.66699 -3 -9c-27.333 -83.333 -52.833 -166.5 -76.5 -249.5s-46.167 -167.167 -67.5 -252.5
c-6 -23.333 -11.667 -46.666 -17 -69.999s-10.333 -46.666 -15 -69.999c-0.666992 -4 -1.16699 -7.83301 -1.5 -11.5s-0.833008 -7.5 -1.5 -11.5c-0.666992 -1.33301 -0.333984 -4 0.999023 -8c1.33301 -2.66699 0.333008 -5.66699 -3 -9
c-4.66699 -3.33301 -10.834 -4.66602 -18.501 -3.99902s-13.167 2.66699 -16.5 6c-4 3.33301 -5.33301 7.66602 -4 12.999c0.666992 5.33301 1.16699 10.333 1.5 15s1.16602 9.66699 2.49902 15l19 91.5c6 30.333 12.667 60.833 20 91.5l25.5 106l25.5 106l14 55.5
c4.66699 18.333 9.66699 36.833 15 55.5c0.666992 1.33301 1 2.5 1 3.5s0.333008 2.16699 1 3.5c-1.33301 -0.666992 -2.66602 -1.66699 -3.99902 -3c-29.333 -32.667 -60 -63.167 -92 -91.5s-65.667 -55.166 -101 -80.499l-2 -2
c-5.33301 -3.33301 -9.66602 -8.66602 -12.999 -15.999l-39.5 -95.5c-13.667 -31.667 -28.5 -62.834 -44.5 -93.501c-7.33301 -14 -15.166 -27.833 -23.499 -41.5s-17.5 -26.834 -27.5 -39.501c-13.333 -18 -28 -32 -44 -42c-7.33301 -5.33301 -15 -9.5 -23 -12.5
s-16.667 -4.5 -26 -4.5c-19.333 -1.33301 -35.166 3.5 -47.499 14.5s-20.166 24.5 -23.499 40.5c0 1.33301 -0.333008 2.83301 -1 4.5s-1.33398 3.16699 -2.00098 4.5c0 2.66699 0.166992 5.16699 0.5 7.5s0.5 4.83301 0.5 7.5zM122.002 107
c-1.33301 -1.33301 -2.16211 -1.99902 -2.49512 -1.99902s-0.833008 -0.333008 -1.5 -1l-72.5 -55c-23.667 -18.667 -46.834 -38.334 -69.501 -59.001c-8.66699 -7.33301 -16.834 -15 -24.501 -23s-14.834 -16.667 -21.501 -26c-9.33301 -10 -16.666 -22.667 -21.999 -38
c-3.33301 -11.333 -4.33301 -22.333 -3 -33s6 -20.667 14 -30c12.667 -14.667 27.334 -17 44.001 -7c11.333 6.66699 21.666 15.667 30.999 27c7.33301 8.66699 14.166 17.667 20.499 27s12.166 19 17.499 29c16.667 30 32.167 60.5 46.5 91.5s28.166 62.5 41.499 94.5z" />
    <glyph glyph-name="I" unicode="I" horiz-adv-x="223" 
d="M279 741c12.667 -1.33301 18.332 -8.67188 16.999 -22.0049c-1.33301 -9.33301 -2.5 -18.833 -3.5 -28.5s-2.16699 -19.167 -3.5 -28.5l-13.5 -68.5c-4.33301 -22.333 -9.16602 -45.166 -14.499 -68.499c-9.33301 -43.333 -19.5 -86.166 -30.5 -128.499l-34.5 -127.5
l-30.5 -106.5l-32.5 -105.5c-1.33301 -6 -3.16602 -12 -5.49902 -18s-4.16602 -12 -5.49902 -18l-2 -6l13 7.5c4 2.33301 8 4.83301 12 7.5c3.33301 0.666992 6.33301 0.666992 9 0c2 -0.666992 3.66699 -2 5 -4s1.33301 -5 0 -9l-21 -12l-21 -13
c-4.66699 -2.66699 -8 -7 -10 -13l-22.5 -55c-7.66699 -18 -16.167 -35.667 -25.5 -53c-10 -20 -22 -39 -36 -57c-8 -9.33301 -16.667 -18 -26 -26c-12 -10.667 -25.333 -16 -40 -16c-16.667 -1.33301 -29 5.66699 -37 21c-6.66699 13.333 -9 29 -7 47
c2 20.667 10.667 38.667 26 54l14 13.5c4.66699 4.33301 9.66699 8.16602 15 11.499l44.5 29.5l45.5 28.5c6 4.66699 9.66699 9.66699 11 15c13.333 42.667 25.833 85.334 37.5 128.001l34.5 129l39 147.5l39 147.5l18 70.5c6 23.667 12.333 47.167 19 70.5
c0 1.33301 0.166992 2.5 0.5 3.5s0.5 2.16699 0.5 3.5c-6.66699 -6.66699 -13.334 -6.66699 -20.001 0c-2 2 -2 4.66699 0 8c0.666992 0.666992 1.16699 1.33398 1.5 2.00098s1.16602 1.33398 2.49902 2.00098l13.5 16l12.5 16c3.33301 4.66699 7.33301 6.33398 12 5.00098z
M40.998 -89.0059l7.5 20.5l7.5 20.5c-0.666992 0 -1 0.166992 -1 0.5s-0.333008 0.5 -1 0.5l-43.5 -28c-14.333 -9.33301 -28.166 -20 -41.499 -32c-5.33301 -5.33301 -10 -11 -14 -17c-14 -20.667 -18 -43 -12 -67c2 -7.33301 5.66699 -13 11 -17
c4 -3.33301 7.66699 -3.66602 11 -0.999023c4.66699 2.66699 9 6 13 10c8 9.33301 16 20 24 32s15.167 24.667 21.5 38s12.166 26.666 17.499 39.999z" />
    <glyph glyph-name="J" unicode="J" horiz-adv-x="324" 
d="M242 67c2 -2.66699 3.3291 -5.33594 3.99609 -8.00293c0.666992 -2 0.666992 -4.16699 0 -6.5s-2.66699 -4.16602 -6 -5.49902c-5.33301 -1.33301 -10.166 -2.83301 -14.499 -4.5s-8.83301 -3.16699 -13.5 -4.5c-4 -0.666992 -7 -3.33398 -9 -8.00098
c-20 -39.333 -42.667 -78 -68 -116c-14 -20 -29 -38.667 -45 -56s-33.667 -33.333 -53 -48c-13.333 -9.33301 -27 -17.666 -41 -24.999s-29 -12.666 -45 -15.999c-10.667 -2.66699 -21.334 -4.33398 -32.001 -5.00098s-21.334 0 -32.001 2c-10 2 -18 5.33301 -24 10
c-28 14.667 -37.667 38 -29 70c2 9.33301 5 17.5 9 24.5s8.66699 13.833 14 20.5c12 14 26 27.333 42 40c32.667 24.667 69 44.334 109 59.001c48 18.667 95.333 34.667 142 48c4 0.666992 7.66699 3.66699 11 9c20.667 46 39.5 92.333 56.5 139s32.5 94.334 46.5 143.001
c8.66699 32 16.5 63.667 23.5 95l20.5 95c4 19.333 7.83301 38.833 11.5 58.5l10.5 58.5l4 30c1.33301 10 1.66602 20 0.999023 30c0 4 -0.333008 7.66699 -1 11c-3.33301 -1.33301 -6.16602 -2.66602 -8.49902 -3.99902s-4.5 -2.66602 -6.5 -3.99902l-45 -26.5l-45 -26.5
c-23.333 -14 -47.166 -27.167 -71.499 -39.5s-49.166 -23.5 -74.499 -33.5c-8.66699 -3.33301 -17.167 -6 -25.5 -8s-17.166 -4.33301 -26.499 -7c-8.66699 -2.66699 -16.334 -3 -23.001 -1c-6 1.33301 -9.66699 4.66602 -11 9.99902c1.33301 0 2.33301 0.333008 3 1
s1.33398 1 2.00098 1c10.667 0 21 1.66699 31 5l29 10c32 12 62.667 25.833 92 41.5s58.333 32.834 87 51.501l57 39c1.33301 1.33301 3 2.66602 5 3.99902l6 4c10 6.66699 19.5 8.16699 28.5 4.5s16.167 -8.83398 21.5 -15.501c6 -8 9.33301 -16 10 -24
c1.33301 -5.33301 2.33301 -10.833 3 -16.5s1 -11.167 1 -16.5c1.33301 -12.667 1.5 -25.167 0.5 -37.5s-2.16699 -24.5 -3.5 -36.5c-9.33301 -77.333 -23.333 -153 -42 -227c-8.66699 -34 -18.667 -67 -30 -99s-23.666 -64 -36.999 -96l-20 -47.5l-21 -47.5
c-0.666992 -1.33301 -1 -2.5 -1 -3.5s-0.666992 -2.16699 -2 -3.5c2 0.666992 3.66699 1.16699 5 1.5s2.66602 0.833008 3.99902 1.5c2.66699 1.33301 5.33398 2.33301 8.00098 3s5.33398 1.66699 8.00098 3zM144.996 14.998l1.00391 1.99805
c-1.33301 0 -2.33301 -0.166992 -3 -0.5s-1.33398 -0.5 -2.00098 -0.5c-19.333 -7.33301 -39 -14.166 -59 -20.499s-39.667 -13.166 -59 -20.499c-36.667 -13.333 -70.667 -31.666 -102 -54.999l-23 -20c-7.33301 -6.66699 -14 -14.334 -20 -23.001
c-8.66699 -11.333 -14.334 -24 -17.001 -38c-4 -21.333 1.66699 -37.333 17 -48c10 -6 20.333 -9 31 -9c14 0 27.333 2.16699 40 6.5s25 10.5 37 18.5c11.333 8 22.166 16.667 32.499 26s20.166 19.333 29.499 30c19.333 22.667 37 46.5 53 71.5s30.667 51.5 44 79.5v1z" />
    <glyph glyph-name="K" unicode="K" horiz-adv-x="326" 
d="M560 594c2.66699 -4 3.00391 -7.33594 1.00391 -10.0029c-4 -4 -7.33301 -6.33301 -10 -7c-4.66699 -2 -7.66699 -4.33301 -9 -7c-17.333 -17.333 -33.833 -35.166 -49.5 -53.499l-46.5 -55.5l-86 -102.5l-84 -105.5l-47.5 -63.5
c-15.667 -21 -30.834 -42.833 -45.501 -65.5c-0.666992 -0.666992 -2.33398 -3 -5.00098 -7c1.33301 -1.33301 2.33301 -2 3 -2c7.33301 -2 13.333 -5.33301 18 -10s8.66699 -10.334 12 -17.001c4.66699 -7.33301 8.5 -15 11.5 -23s5.83301 -16 8.5 -24
c3.33301 -12.667 6.33301 -25.167 9 -37.5l8 -38.5c3.33301 -18.667 7 -37.334 11 -56.001s8.66699 -37.334 14 -56.001l6 -18l9 -24c2.66699 -6 5.33398 -11.667 8.00098 -17s5 -8 7 -8c-8.66699 -8.66699 -17 -12.334 -25 -11.001
c-1.33301 0 -2.66602 0.333008 -3.99902 1c-13.333 2 -23 8.66699 -29 20c-6 10.667 -11 21.667 -15 33c-5.33301 14.667 -9.66602 29.334 -12.999 44.001s-6.33301 29.334 -9 44.001l-10 63l-10 62c-2 17.333 -6.33301 33 -13 47
c-0.666992 3.33301 -2.66699 7.66602 -6 12.999c-1.33301 -1.33301 -2.33301 -2.5 -3 -3.5s-1.33398 -2.16699 -2.00098 -3.5c-17.333 -27.333 -33.833 -55 -49.5 -83s-30.167 -57 -43.5 -87l-25 -55.5l-24 -55.5c-2 -5.33301 -3.66699 -10.666 -5 -15.999l-4 -16
c-1.33301 -5.33301 -4 -8.33301 -8 -9c-0.666992 0 -2 -1 -4 -3c-4.66699 -5.33301 -10.334 -7 -17.001 -5c-4.66699 2 -7 5 -7 9c0.666992 1.33301 1.16699 3 1.5 5s0.833008 3.66699 1.5 5l44 164c5.33301 23.333 11.166 46.333 17.499 69l19.5 68l15.5 48.5l15.5 48.5
l43.5 127.5l41.5 128.5c26 82.667 49 166.667 69 252c0.666992 3.33301 1.33398 6.5 2.00098 9.5s1.33398 6.5 2.00098 10.5c-2 -1.33301 -4.33301 -2.66602 -7 -3.99902l-55 -34l-54 -34c-17.333 -11.333 -35 -21.833 -53 -31.5s-36.667 -18.167 -56 -25.5
c-15.333 -6.66699 -30.333 -11.334 -45 -14.001c-4 -0.666992 -7.83301 -1 -11.5 -1h-11.5c-8 1.33301 -13.667 5 -17 11c1.33301 0.666992 2.33301 1.33398 3 2.00098s1.66699 0.666992 3 0c10 0 19.333 1.16699 28 3.5s17.334 5.16602 26.001 8.49902
c19.333 7.33301 38.166 15.833 56.499 25.5s36.166 19.834 53.499 30.501c21.333 12.667 41.833 25.667 61.5 39l58.5 41c2.66699 2 5.16699 3.66699 7.5 5s4.5 3 6.5 5c3.33301 2.66699 7.33301 3.83398 12 3.50098s9 -1.66602 13 -3.99902s7.66699 -5.33301 11 -9
s5 -7.5 5 -11.5c0.666992 -4 1.16699 -8.16699 1.5 -12.5s0.166016 -8.83301 -0.500977 -13.5c-1.33301 -20 -3.66602 -39.833 -6.99902 -59.5s-7.33301 -39.167 -12 -58.5c-8 -35.333 -17 -70.166 -27 -104.499s-20.667 -68.5 -32 -102.5l-48.5 -144l-50.5 -143l-3 -9l1 -1
c2.66699 3.33301 5 6.83301 7 10.5l6 10.5c0.666992 0.666992 1 2 1 4c-2 3.33301 -1 5.66602 3 6.99902c4 3.33301 7.33301 7 10 11l47.5 69c16.333 22.667 33.166 44.667 50.499 66l98 119.5l99 118.5c15.333 18 31 35.333 47 52l48 51l6 6c2 2 4.33301 3.66699 7 5
c3.33301 3.33301 7.16602 4.33301 11.499 3s8.16602 -3.66602 11.499 -6.99902z" />
    <glyph glyph-name="L" unicode="L" horiz-adv-x="304" 
d="M6 -211c2.66699 4 4.66895 6.66602 6.00195 7.99902c20 32 37.333 65.167 52 99.5s28.667 69.5 42 105.5c16 42.667 30.833 85.834 44.5 129.501l40.5 131.5l50 168l52 167l16.5 47.5c5.66699 15.667 11.167 31.834 16.5 48.501c1.33301 4 2.5 8.33301 3.5 13
s2.16699 9.66699 3.5 15c-3.33301 0 -5.33301 -0.333008 -6 -1l-35 -13c-11.333 -4 -22.666 -8.66699 -33.999 -14c-36 -15.333 -71 -31.333 -105 -48l-102 -51l-82 -39.5l-81 -39.5c-1.33301 -1.33301 -2.83301 -2.16602 -4.5 -2.49902s-2.5 -1.83301 -2.5 -4.5
c0 -1.33301 -1.33301 -2 -4 -2c-6.66699 -1.33301 -13.667 0.333984 -21 5.00098c-3.33301 2.66699 -4 5.33398 -2 8.00098c1.33301 1.33301 3 2.5 5 3.5s3.66699 2.16699 5 3.5l42 22l41 22l155 77l155 75l27.5 11.5c9 3.66699 18.167 6.83398 27.5 9.50098
c6.66699 1.33301 13 1.5 19 0.5s12.667 -3.5 20 -7.5c11.333 -6 17 -14 17 -24v-12c0 -4 -0.666992 -8 -2 -12l-10 -39c-3.33301 -12.667 -7 -25.334 -11 -38.001l-49.5 -163l-49.5 -163l-34.5 -111l-34.5 -110c-11.333 -34 -23.5 -67.333 -36.5 -100
s-27.167 -64.667 -42.5 -96c-4 -8 -8.33301 -15.833 -13 -23.5s-9 -15.167 -13 -22.5c-0.666992 -1.33301 -1.33398 -2.5 -2.00098 -3.5s-1.33398 -2.5 -2.00098 -4.5c3.33301 1.33301 6.5 2.16602 9.5 2.49902s6.16699 1.16602 9.5 2.49902
c23.333 4.66699 47.666 7.66699 72.999 9s50.666 2 75.999 2c20 -0.666992 40 -1.66699 60 -3s40.333 -3 61 -5c14.667 -2 29.167 -3.83301 43.5 -5.5s28.833 -3.5 43.5 -5.5c16.667 -2 33 -3.83301 49 -5.5s32.333 -3.83398 49 -6.50098
c19.333 -2.66699 39 -5.16699 59 -7.5s39.667 -4.83301 59 -7.5c7.33301 -1.33301 14.5 -2.5 21.5 -3.5s14.167 -2.16699 21.5 -3.5l8 -2c2.66699 -0.666992 5 -2.66699 7 -6c0 -4 -2.66699 -6 -8 -6c-3.33301 -0.666992 -6.33301 -0.833984 -9 -0.500977
s-5.66699 0.5 -9 0.5c-17.333 2 -34.5 4.16699 -51.5 6.5s-34.167 4.5 -51.5 6.5l-51.5 6l-51.5 6l-150 15c-17.333 1.33301 -34.5 2.5 -51.5 3.5s-33.833 1.5 -50.5 1.5c-24 0.666992 -47.5 0.5 -70.5 -0.5s-45.5 -4.16699 -67.5 -9.5c-8.66699 -2 -17 -4.33301 -25 -7
s-15.667 -6 -23 -10c-5.33301 -2.66699 -12 -4 -20 -4c-4 0 -7.66699 1 -11 3s-6.66602 3.66699 -9.99902 5c0 1.33301 -0.333008 2.33301 -1 3z" />
    <glyph glyph-name="M" unicode="M" horiz-adv-x="879" 
d="M684 -202c3.33301 1.33301 6.16309 2.83594 8.49609 4.50293s4.83301 3.16699 7.5 4.5c18 11.333 35.5 23 52.5 35s33.833 24.667 50.5 38l27.5 21.5l27.5 21.5c2 1.33301 3.83301 2.66602 5.5 3.99902s3.5 2.66602 5.5 3.99902
c3.33301 1.33301 7.66602 2.66602 12.999 3.99902c4.66699 0 7 -1.33301 7 -4c1.33301 -2.66699 0.333008 -4.66699 -3 -6l-85.5 -69.5c-28.333 -23 -58.166 -44.167 -89.499 -63.5c-11.333 -8 -23.666 -13 -36.999 -15h-6c-17.333 0 -26.333 8.66699 -27 26
c-0.666992 8 -0.5 16 0.5 24s2.16699 16 3.5 24c7.33301 37.333 15.833 73.833 25.5 109.5s20.167 71.5 31.5 107.5c13.333 42 27.833 83.167 43.5 123.5l46.5 121.5l68 180l66 180l4 12l4 12c0.666992 1.33301 1 2.66602 1 3.99902s0.333008 3 1 5
c-3.33301 -3.33301 -7 -6.33301 -11 -9c-13.333 -11.333 -25.666 -23 -36.999 -35l-34 -37c-40 -46 -77.5 -93.167 -112.5 -141.5s-68.833 -98.5 -101.5 -150.5c-39.333 -60.667 -76.333 -122.334 -111 -185.001s-68 -126.667 -100 -192l-8 -16.5
c-2.66699 -5.66699 -5.66699 -11.5 -9 -17.5c-6.66699 -12 -17.667 -17.333 -33 -16c-10.667 0.666992 -15.667 6.66699 -15 18c0.666992 12.667 2.66699 26.334 6 41.001c5.33301 28 12 55.333 20 82l25 80c19.333 58.667 39.833 116.5 61.5 173.5l67.5 170.5l45 114
c3.33301 6 5.33301 12.333 6 19c-2 -0.666992 -4.33301 -2.33398 -7 -5.00098c-9.33301 -8 -18.333 -16.667 -27 -26s-17 -19 -25 -29c-69.333 -86.667 -134 -178 -194 -274c-38.667 -62.667 -75 -126.167 -109 -190.5s-65.333 -130.5 -94 -198.5l-19.5 -46l-19.5 -46
c-2.66699 -6.66699 -5 -11.334 -7 -14.001c-2.66699 -5.33301 -7.83398 -8.5 -15.501 -9.5s-13.5 -0.5 -17.5 1.5s-6 5 -6 9v12.5c0 4.33301 0.333008 8.5 1 12.5c2.66699 20.667 6 41 10 61s8.66699 40.333 14 61c11.333 47.333 23.166 94 35.499 140l38.5 139l117 405
c2.66699 9.33301 5 18.5 7 27.5l6 27.5c0.666992 0.666992 1 2.66699 1 6c-2 -1.33301 -3.83301 -2.16602 -5.5 -2.49902s-3.16699 -1.16602 -4.5 -2.49902l-36.5 -22.5l-36.5 -23.5l-123 -83l-123 -83l-85.5 -55l-84.5 -54l-18 -12
c-7.33301 -5.33301 -14.333 -3.66602 -21 5.00098l5 5c4 3.33301 8 6.33301 12 9l12 8l156.5 104l154.5 106l74.5 51.5l74.5 50.5c10 7.33301 21.667 14.333 35 21c11.333 5.33301 23.333 4.33301 36 -3c8 -5.33301 12.667 -12 14 -20c1.33301 -6 1.83301 -11.833 1.5 -17.5
s-1.16602 -11.167 -2.49902 -16.5c-2.66699 -16.667 -6 -33 -10 -49s-8.33301 -32 -13 -48l-45.5 -155.5l-44.5 -155.5l-35 -125l-34 -125l-15 -54c-0.666992 -2 -0.666992 -3.33301 0 -4c0.666992 0.666992 1.66699 2.33398 3 5.00098
c39.333 85.333 81.833 168.5 127.5 249.5s95.167 159.833 148.5 236.5l55 77.5l57 75.5l26 31.5c8.66699 10.333 18.334 20.166 29.001 29.499c2.66699 2.66699 5.33398 5 8.00098 7s5.66699 4 9 6c7.33301 4.66699 15.5 6 24.5 4s16.167 -6.66699 21.5 -14
c4.66699 -6.66699 6.33398 -14.667 5.00098 -24l-4 -19.5c-1.33301 -6.33301 -3.33301 -12.833 -6 -19.5l-22.5 -60.5l-23.5 -60.5l-77 -198.5c-24.667 -65.667 -47.667 -132.834 -69 -201.501c-1.33301 -3.33301 -2.5 -6.66602 -3.5 -9.99902
s-2.16699 -6.66602 -3.5 -9.99902c0.666992 -0.666992 1 -1.33398 1 -2.00098c1.33301 2 2.33301 3.83301 3 5.5s1.33398 3.16699 2.00098 4.5l109 189c36.667 62 75.667 123.333 117 184l79.5 115c27 38 55.5 75 85.5 111c11.333 14.667 23.166 29 35.499 43
s25.166 27.667 38.499 41l13 11c4.66699 4 9.33398 7.66699 14.001 11c12.667 8.66699 26.334 7.66699 41.001 -3c7.33301 -6 11 -13.333 11 -22c-0.666992 -5.33301 -1.16699 -10.833 -1.5 -16.5s-1.16602 -11.167 -2.49902 -16.5
c-8.66699 -36.667 -20.334 -74.334 -35.001 -113.001l-46 -118.5l-46 -118.5l-68 -178c-22 -59.333 -42.667 -119.333 -62 -180c-6.66699 -20.667 -12.834 -41.5 -18.501 -62.5s-10.5 -42.167 -14.5 -63.5c-0.666992 -5.33301 -1.16699 -10.166 -1.5 -14.499
s-0.833008 -9.16602 -1.5 -14.499c0 -2.66699 0.666992 -7.33398 2 -14.001z" />
    <glyph glyph-name="N" unicode="N" horiz-adv-x="549" 
d="M407 -240c-0.666992 0.666992 -1.33398 0.998047 -2.00098 0.998047c-6 2 -9.66699 6.33301 -11 13c0 6.66699 -0.333008 13 -1 19s-0.666992 12.333 0 19c0 15.333 0.166992 30.666 0.5 45.999s0.833008 30.666 1.5 45.999c0.666992 8.66699 1 17.334 1 26.001
s0.333008 17 1 25c1.33301 22 3.5 43.833 6.5 65.5s6.5 43.167 10.5 64.5c11.333 62.667 24.833 124.334 40.5 185.001s34.167 120.667 55.5 180c10 28.667 20.833 56.667 32.5 84l34.5 83c5.33301 11.333 10 22.833 14 34.5s8.33301 23.5 13 35.5
c3.33301 8 5.33301 17 6 27c-2 -1.33301 -3.66699 -2.33301 -5 -3s-2.66602 -1.66699 -3.99902 -3c-9.33301 -6 -18.333 -12.667 -27 -20s-17 -15 -25 -23c-46.667 -46.667 -91 -97.667 -133 -153c-44 -56.667 -84.167 -115.5 -120.5 -176.5s-70.5 -123.833 -102.5 -188.5
l-48.5 -101l-47.5 -101l-18 -36c-6.66699 -12.667 -18.334 -18 -35.001 -16c-11.333 2 -17.333 8 -18 18c-0.666992 14.667 -0.666992 29 0 43c3.33301 44 9.33301 86.833 18 128.5s18.667 83.5 30 125.5c13.333 50.667 27.833 100.5 43.5 149.5l47.5 148.5
c7.33301 21.333 14.333 42.833 21 64.5l20 64.5c2.66699 8 4.83398 16.167 6.50098 24.5s2.83398 16.833 3.50098 25.5c0 4 -0.166992 7.83301 -0.5 11.5s-0.833008 7.5 -1.5 11.5c-0.666992 4.66699 -3.66699 6.66699 -9 6c-8.66699 -0.666992 -17 -2.66699 -25 -6
c-11.333 -4.66699 -22.166 -9.83398 -32.499 -15.501s-20.5 -11.834 -30.5 -18.501c-40 -25.333 -79.167 -52 -117.5 -80s-75.5 -57.333 -111.5 -88l-25.5 -21.5l-26.5 -21.5c-8.66699 -6.66699 -16.334 -5 -23.001 5c0.666992 0.666992 1 1.16699 1 1.5
s0.333008 0.833008 1 1.5l54 46.5l55 46.5c62 50 128.667 97 200 141c7.33301 4.66699 14.666 8.83398 21.999 12.501l22 11.5c5.33301 2 10.666 3.66699 15.999 5s11 1.33301 17 0c11.333 -1.33301 21.166 -5.83301 29.499 -13.5s13.833 -17.5 16.5 -29.5
c3.33301 -13.333 4 -28.333 2 -45s-5 -33 -9 -49s-8.66699 -32 -14 -48l-29 -93l-30 -93c-16 -52 -31 -103.833 -45 -155.5s-26.667 -104.167 -38 -157.5c-2.66699 -14.667 -5 -29.167 -7 -43.5s-4.33301 -28.833 -7 -43.5v-1c0 -0.666992 0.333008 -1.33398 1 -2.00098
c0.666992 2 1.66699 4.33301 3 7l40 81.5l40 81.5l65 124c22 40.667 45.667 81 71 121c36 54.667 73.5 107.667 112.5 159s81.5 100.333 127.5 147c7.33301 7.33301 15 14.333 23 21s15.667 13.667 23 21c2.66699 2.66699 5.16699 4.83398 7.5 6.50098
s4.83301 3.16699 7.5 4.5c18.667 10.667 34.334 7 47.001 -11c2.66699 -4.66699 4.66699 -10.334 6 -17.001c1.33301 -10 1.5 -19.667 0.5 -29s-2.83301 -18.666 -5.5 -27.999c-4.66699 -17.333 -10 -34.333 -16 -51s-12.333 -33 -19 -49
c-34 -85.333 -62.833 -171.666 -86.5 -258.999s-44.167 -176.666 -61.5 -267.999l-10 -55.5c-3.33301 -18.333 -6.33301 -36.833 -9 -55.5c-1.33301 -13.333 -2.33301 -26.833 -3 -40.5s-1.66699 -27.167 -3 -40.5v-45c0 -4 0.333008 -7 1 -9
c2 -5.33301 0.666992 -9.33301 -4 -12c-3.33301 -1.33301 -7.66602 -2.66602 -12.999 -3.99902h-8z" />
    <glyph glyph-name="O" unicode="O" horiz-adv-x="570" 
d="M570 158c4 4.66699 8.33203 4.83398 12.999 0.500977s5 -9.16602 1 -14.499c-19.333 -21.333 -41.666 -39.666 -66.999 -54.999c-18 -10.667 -35.667 -18.334 -53 -23.001c-1.33301 -2.66699 -3.33301 -6 -6 -10l-2 -4l-16.5 -28l-12.5 -21l-20 -29l-21 -28
c-18.667 -25.333 -38.5 -48.833 -59.5 -70.5s-44.167 -41.167 -69.5 -58.5c-28.667 -21.333 -59 -36 -91 -44c-14 -3.33301 -27.833 -5 -41.5 -5s-27.167 2.33301 -40.5 7c-34.667 10.667 -60.334 35 -77.001 73c-5.33301 13.333 -9.33301 27 -12 41s-4.66699 28.333 -6 43
c-2 25.333 -1.83301 50.5 0.5 75.5s5.83301 49.833 10.5 74.5c8.66699 46 19.834 90.667 33.501 134s29.167 86.333 46.5 129c24.667 60.667 52.5 118.5 83.5 173.5s64.833 108.5 101.5 160.5c3.33301 5.33301 7 10.833 11 16.5s7.66699 11.167 11 16.5
c1.33301 1.33301 2.33301 2.66602 3 3.99902c-2.66699 -1.33301 -4.33398 -2 -5.00098 -2c-24 -11.333 -47.5 -23.5 -70.5 -36.5l-69.5 -39.5l-70.5 -41l-70.5 -42c-14 -8 -28.333 -15.5 -43 -22.5l-45 -20.5c-6.66699 -2.66699 -13 -2 -19 2c-4 4 -3.66699 7.33301 1 10
c7.33301 3.33301 14.333 6.83301 21 10.5l20 10.5c20.667 10 40.667 20.833 60 32.5l58 34.5l171 99l20.5 11l23 11.5c7.66699 3.66699 15 6.66699 22 9s12.5 3.5 16.5 3.5c11.333 -0.666992 20 -3.33398 26 -8.00098s8 -10 6 -16
c-1.33301 -3.33301 -2.66602 -6.33301 -3.99902 -9s-2.66602 -5.66699 -3.99902 -9l-28 -45.5l-28 -44.5c-28 -44.667 -53.833 -90.167 -77.5 -136.5s-45.5 -94.166 -65.5 -143.499c-14.667 -36.667 -28 -73.667 -40 -111s-22.333 -75.333 -31 -114
c-5.33301 -25.333 -9.66602 -50.5 -12.999 -75.5s-4.66602 -50.5 -3.99902 -76.5c0.666992 -14.667 2 -29.167 4 -43.5s5.66699 -28.166 11 -41.499c3.33301 -10 7.83301 -19.333 13.5 -28s12.5 -16.334 20.5 -23.001c26 -20.667 54.333 -24.334 85 -11.001
c13.333 5.33301 26 12.166 38 20.499s23.667 17.5 35 27.5c24.667 21.333 47.5 44.5 68.5 69.5s41.167 51.5 60.5 79.5c1.33301 2 2.5 4 3.5 6s2.16699 4 3.5 6c6 8.66699 11 16.667 15 24c2.66699 3.33301 5 7 7 11l1 2c-17.333 -1.33301 -32.833 -0.666016 -46.5 2.00098
s-25.834 6.66699 -36.501 12s-20.167 11.666 -28.5 18.999s-15.5 15 -21.5 23c-14 18.667 -24.333 40.334 -31 65.001c-2 5.33301 -3.83301 10.833 -5.5 16.5s-3.16699 11.167 -4.5 16.5c-5.33301 23.333 -9.33301 46.5 -12 69.5s-3.33398 46.167 -2.00098 69.5
c1.33301 44 6.33301 87.167 15 129.5s21.667 83.5 39 123.5c6.66699 16 14.5 31.333 23.5 46s19.5 28 31.5 40c8 8.66699 16.5 16 25.5 22s18.833 10.333 29.5 13c27.333 6.66699 54 1.66699 80 -15c12.667 -8 23.834 -17.833 33.501 -29.5s18.167 -24.167 25.5 -37.5
c15.333 -31.333 25.333 -63.666 30 -96.999c4 -26 6.16699 -52 6.5 -78s-0.833984 -52 -3.50098 -78c-10 -105.333 -38 -204.333 -84 -297c18 7.33301 34.667 16.666 50 27.999s29.666 24.333 42.999 39zM425.999 78c15.333 28 29.0039 56.8311 41.0039 86.498
s22.667 60.5 32 92.5c10 36 17.833 71.5 23.5 106.5s8.5 68.5 8.5 100.5c0 18.667 -0.333008 34.834 -1 48.501s-2 27.167 -4 40.5c-2.66699 16.667 -6.33398 32.667 -11.001 48s-11 30.333 -19 45c-11.333 22 -26.333 39.333 -45 52c-12.667 8 -26 10 -40 6
c-9.33301 -2 -17.5 -5.5 -24.5 -10.5s-13.5 -10.833 -19.5 -17.5c-13.333 -13.333 -24.5 -27.5 -33.5 -42.5s-17.167 -30.833 -24.5 -47.5c-14.667 -35.333 -25.834 -71.166 -33.501 -107.499s-12.834 -73.5 -15.501 -111.5c-4 -64 4 -126.667 24 -188
c1.33301 -4 2.66602 -7.33301 3.99902 -10c2 -6 5.83301 -14.167 11.5 -24.5s13 -20.5 22 -30.5s20 -18.667 33 -26s28.167 -11.333 45.5 -12h12.5c4.33301 0 8.83301 0.666992 13.5 2z" />
    <glyph glyph-name="P" unicode="P" horiz-adv-x="521" 
d="M627 642c4 -10.667 6.50098 -21.332 7.50098 -31.999s1.16699 -21.334 0.5 -32.001c-1.33301 -23.333 -5.33301 -45.833 -12 -67.5s-14.667 -42.834 -24 -63.501c-14 -30.667 -29.667 -60 -47 -88s-36 -55.333 -56 -82c-19.333 -25.333 -39.5 -49.333 -60.5 -72
s-43.5 -44 -67.5 -64c-6 -5.33301 -12 -10.166 -18 -14.499l-18 -13.5c-2 -1.33301 -4.16699 -3 -6.5 -5s-5.16602 -4 -8.49902 -6c3.33301 -0.666992 7 -1 11 -1s8 -0.333008 12 -1c32.667 -1.33301 64 4.5 94 17.5s59 27.167 87 42.5c2.66699 1.33301 5.16699 1.5 7.5 0.5
s4.16602 -2.5 5.49902 -4.5s1.83301 -4.33301 1.5 -7s-1.83301 -4.66699 -4.5 -6l-26 -13.5l-26 -13.5c-15.333 -7.33301 -30.833 -13.833 -46.5 -19.5s-32.167 -10.167 -49.5 -13.5c-15.333 -2 -30.5 -2.5 -45.5 -1.5s-30.167 2.83301 -45.5 5.5l-9 -6
c-1.33301 0 -2.66602 -0.666992 -3.99902 -2c-2.66699 -0.666992 -5.33398 -2 -8.00098 -4c-0.666992 0 -1.16699 -0.166992 -1.5 -0.5s-0.833008 -0.5 -1.5 -0.5c-10 -5.33301 -20.167 -9.83301 -30.5 -13.5s-21.166 -6.5 -32.499 -8.5
c-6.66699 -1.33301 -13.334 -2.16602 -20.001 -2.49902s-13.334 0.5 -20.001 2.5s-12.334 5 -17.001 9c-7.33301 5.33301 -8.33301 11.333 -3 18c4 4.66699 8.66699 8.66699 14 12c7.33301 3.33301 14.833 5.83301 22.5 7.5s15.5 3.16699 23.5 4.5
c10 1.33301 20.167 2 30.5 2s20.5 -0.333008 30.5 -1c2.66699 0 5 1 7 3c16 10.667 31.167 22.167 45.5 34.5s28.166 25.166 41.499 38.499c22 21.333 42.5 44.333 61.5 69s37.167 49.667 54.5 75c16 24 31 48.333 45 73s26.667 50.334 38 77.001
c7.33301 16 13.666 32.333 18.999 49s9.33301 34 12 52c1.33301 10 2.16602 20 2.49902 30s-0.166992 20.333 -1.5 31l-4 16.5c-1.33301 5.66699 -3.66602 11.167 -6.99902 16.5c-6 10 -11.833 16.167 -17.5 18.5s-13.5 2.83301 -23.5 1.5
c-11.333 -2 -21.833 -5.5 -31.5 -10.5s-19.167 -10.833 -28.5 -17.5c-13.333 -10.667 -25.833 -21.834 -37.5 -33.501s-22.834 -23.834 -33.501 -36.501c-20 -23.333 -38.5 -47.5 -55.5 -72.5s-33.167 -50.5 -48.5 -76.5c-22 -37.333 -42.667 -75.166 -62 -113.499
s-37.666 -77.5 -54.999 -117.5c-15.333 -34.667 -30 -69.5 -44 -104.5s-27.333 -70.5 -40 -106.5c-12 -36 -23.167 -71.667 -33.5 -107s-19.833 -71.333 -28.5 -108c-0.666992 -4.66699 -3.33398 -8 -8.00098 -10s-9.16699 -3.33301 -13.5 -4s-9.16602 0 -14.499 2
c-4.66699 1.33301 -7 4.33301 -7 9l2 21c0.666992 6.66699 1.66699 13.667 3 21c11.333 75.333 26 149.333 44 222s38 145.334 60 218.001l55.5 171.5l58.5 169.5c5.33301 14.667 10 29 14 43s8.33301 28.333 13 43c1.33301 4 2 8.16699 2 12.5s0.333008 8.83301 1 13.5
c0 2.66699 -0.333008 5.33398 -1 8.00098c-4 -1.33301 -8 -2 -12 -2s-7.66699 -0.666992 -11 -2c-16 -3.33301 -31.5 -7.83301 -46.5 -13.5l-44.5 -17.5c-32 -14 -63.5 -28.833 -94.5 -44.5l-92.5 -47.5l-55.5 -29.5l-56.5 -28.5
c-3.33301 -1.33301 -6.83301 -2.5 -10.5 -3.5s-7.16699 -2.16699 -10.5 -3.5c-5.33301 -2 -11 -0.333008 -17 5c-2.66699 2.66699 -2.33398 5 0.999023 7l199 104l81.5 39c27 12.667 54.833 24.667 83.5 36c20.667 8 41.334 14 62.001 18
c9.33301 2 19.666 1.33301 30.999 -2c21.333 -5.33301 32 -19 32 -41c0.666992 -17.333 -1.66602 -35.333 -6.99902 -54l-21 -69l-21 -68l-51 -158.5c-16.667 -52.333 -32.667 -105.5 -48 -159.5c-2 -6 -3.83301 -12.167 -5.5 -18.5s-3.5 -12.5 -5.5 -18.5
c0 -0.666992 -0.166992 -1.33398 -0.5 -2.00098s-0.5 -1.33398 -0.5 -2.00098h1c2.66699 5.33301 5 10.833 7 16.5s4.33301 11.167 7 16.5l57.5 126c19.667 41.333 40.834 82 63.501 122l46.5 78c15.667 25.333 32.834 50 51.501 74l38.5 45
c13 14.667 27.167 28.667 42.5 42c8.66699 7.33301 17.5 14 26.5 20s18.833 11 29.5 15c12.667 5.33301 25.5 7.66602 38.5 6.99902s25.333 -3.66699 37 -9s21.834 -13.166 30.501 -23.499s15.667 -22.5 21 -36.5zM243.001 87.002
c-2.66699 0.666992 -5.99902 0.668945 -9.99902 0.00195312s-7.66699 -1.33398 -11 -2.00098h-3c-1.33301 0 -2.33301 -0.333008 -3 -1h-1c-5.33301 -1.33301 -10.333 -2.33301 -15 -3s-9.33398 -1.66699 -14.001 -3c-1.33301 -0.666992 -2.83301 -1.5 -4.5 -2.5
s-3.16699 -2.16699 -4.5 -3.5c-0.666992 0 -1 -1 -1 -3c0 -1.33301 1.33301 -2 4 -2c3.33301 0.666992 6.5 1.16699 9.5 1.5s6.16699 1.16602 9.5 2.49902s6.83301 2.5 10.5 3.5s7.16699 2.16699 10.5 3.5z" />
    <glyph glyph-name="Q" unicode="Q" horiz-adv-x="652" 
d="M407 -83c-7.33301 -6 -14.1689 -11.9951 -20.502 -17.9951s-13.166 -11.667 -20.499 -17c-22.667 -17.333 -46 -32.833 -70 -46.5s-49.667 -24.834 -77 -33.501c-29.333 -9.33301 -58.333 -14 -87 -14c-21.333 0.666992 -41.666 3.66699 -60.999 9
s-37.666 14.666 -54.999 27.999c-30 23.333 -47 54.333 -51 93c-2 23.333 0.666992 45 8 65s18.666 38.667 33.999 56c36 40 79 65 129 75c48 10 94 2.66699 138 -22c15.333 -8.66699 30 -18.334 44 -29.001s27.333 -22.334 40 -35.001c8.66699 -8.66699 17 -17.5 25 -26.5
l25 -27.5l4 -4c4 4 7.83301 8.16699 11.5 12.5l10.5 12.5c33.333 43.333 63.166 88.166 89.499 134.499s48.833 95.5 67.5 147.5c10.667 29.333 19.167 58.833 25.5 88.5s11.5 59.834 15.5 90.501c2.66699 17.333 4.66699 34.166 6 50.499s1.66602 33.166 0.999023 50.499
c-0.666992 15.333 -2.16699 30.5 -4.5 45.5s-6.83301 29.167 -13.5 42.5c-7.33301 16 -17 28.667 -29 38c-6 4.66699 -12.5 7.83398 -19.5 9.50098s-14.167 2.83398 -21.5 3.50098c-16 1.33301 -31.5 0 -46.5 -4s-29.833 -9.66699 -44.5 -17c-23.333 -10 -45 -22 -65 -36
s-39.333 -29.667 -58 -47c-89.333 -83.333 -152 -183.333 -188 -300l-11.5 -38c-3.66699 -12.667 -7.16699 -25.667 -10.5 -39c-2.66699 -8.66699 -3 -16.334 -1 -23.001c0.666992 -3.33301 -0.333008 -5.33301 -3 -6c-6 -2 -12.333 -1.33301 -19 2
c-1.33301 1.33301 -2 2.66602 -2 3.99902c-0.666992 2.66699 -1 5.16699 -1 7.5s-0.333008 4.83301 -1 7.5c-1.33301 7.33301 -1.5 14.833 -0.5 22.5s2.16699 15.167 3.5 22.5c2.66699 18.667 5.83398 37 9.50098 55s8.5 35.667 14.5 53c34.667 106 93.667 196 177 270
c38 34.667 79.333 62 124 82c11.333 5.33301 23 10 35 14s24.667 6.66699 38 8c38.667 4 74 -5 106 -27c19.333 -13.333 35 -28.666 47 -45.999s21.667 -36.666 29 -57.999c4.66699 -14 7.83398 -28.167 9.50098 -42.5s2.16699 -28.833 1.5 -43.5
c-2 -52 -8.83301 -102.5 -20.5 -151.5s-28.5 -96.833 -50.5 -143.5c-21.333 -45.333 -45.333 -88.5 -72 -129.5s-56.334 -80.5 -89.001 -118.5l-13.5 -15l-14.5 -15c3.33301 -4.66699 7 -9 11 -13s7.66699 -8.33301 11 -13c22 -26.667 45.333 -50.667 70 -72
c14.667 -12 29.834 -22.833 45.501 -32.5s32.167 -18.5 49.5 -26.5c1.33301 -1.33301 3.66602 -1.33301 6.99902 0c6.66699 5.33301 13.667 6.33301 21 3c6 -2.66699 7.66699 -7.33398 5 -14.001c-2 -3.33301 -4.66699 -5.66602 -8 -6.99902s-7 -2.66602 -11 -3.99902
c-7.33301 -1.33301 -14.166 -1 -20.499 1s-12.5 4.33301 -18.5 7c-13.333 5.33301 -26.333 11.666 -39 18.999l-38 22c-20 11.333 -38.167 24.833 -54.5 40.5s-31.833 32.167 -46.5 49.5c-3.33301 3.33301 -7 7.66602 -11 12.999zM385.997 -57.9951
c0 0.666992 -0.331055 1.33105 -0.998047 1.99805l-29 35l-29 35c-10 11.333 -20.333 22 -31 32s-22.334 19 -35.001 27c-31.333 22 -66.333 29.333 -105 22c-44 -8 -82.333 -28.667 -115 -62c-17.333 -18 -29.833 -37.667 -37.5 -59s-9.5 -44.666 -5.5 -69.999
c2.66699 -14 7.16699 -26.667 13.5 -38s15.166 -21.666 26.499 -30.999c18 -14 37.333 -23 58 -27s42 -4.33301 64 -1c14 2 27.5 5.33301 40.5 10s25.833 10 38.5 16c28 13.333 54 29 78 47s46.667 38 68 60c0 0.666992 0.166992 1 0.5 1s0.5 0.333008 0.5 1z" />
    <glyph glyph-name="R" unicode="R" horiz-adv-x="470" 
d="M220 714l-15.0186 -3.00098c-11.333 -3.33301 -22.666 -7.5 -33.999 -12.5l-34 -15.5l-75.5 -39l-75.5 -39c-21.333 -11.333 -42.833 -22.166 -64.5 -32.499s-43.167 -21.166 -64.5 -32.499c-2 -0.666992 -3.83301 -1.33398 -5.5 -2.00098
s-3.16699 -1.33398 -4.5 -2.00098c-6 -2 -11 -1.33301 -15 2c-2.66699 1.33301 -4 2.66602 -4 3.99902c0 0.666992 1 2 3 4c4.66699 2.66699 9.33398 5.16699 14.001 7.5s9.33398 4.83301 14.001 7.5l140 74.5l140 73.5c9.33301 5.33301 18.666 10 27.999 14
s19 7.66699 29 11c7.33301 2 15 2.83301 23 2.5s15.667 -2.5 23 -6.5c14 -8 22 -20 24 -36c1.33301 -9.33301 1.16602 -18.166 -0.500977 -26.499s-3.5 -16.833 -5.5 -25.5c-4 -18 -8.83301 -35.667 -14.5 -53l-16.5 -52l-36 -113l-37 -113
c-3.33301 -9.33301 -6.16602 -18.666 -8.49902 -27.999s-5.16602 -18.666 -8.49902 -27.999v-3l2 2c16 37.333 32.667 73.833 50 109.5s36 71.167 56 106.5c14.667 26 29.834 51.333 45.501 76s32.834 48.667 51.501 72c12.667 14.667 25.5 28.667 38.5 42
s27.167 25.666 42.5 36.999c10 7.33301 20.167 13.5 30.5 18.5s21.5 9.16699 33.5 12.5c22.667 5.33301 44.334 2.66602 65.001 -8.00098c24.667 -12.667 40.334 -34.334 47.001 -65.001c3.33301 -15.333 4.5 -30.166 3.5 -44.499s-3.16699 -28.833 -6.5 -43.5
c-4.66699 -19.333 -10.667 -37.5 -18 -54.5s-15.666 -33.833 -24.999 -50.5c-13.333 -22 -27.666 -42.833 -42.999 -62.5s-32.666 -37.834 -51.999 -54.501c-15.333 -13.333 -31.666 -25.666 -48.999 -36.999s-35 -21.666 -53 -30.999
c-21.333 -11.333 -42.666 -21.5 -63.999 -30.5l-64 -27.5c-3.33301 -1.33301 -6.66602 -2.83301 -9.99902 -4.5s-6.66602 -3.5 -9.99902 -5.5c-6 -3.33301 -6.66699 -8 -2 -14c2 -2.66699 4.16699 -5 6.5 -7s4.83301 -4 7.5 -6c26.667 -22.667 51.334 -47.167 74.001 -73.5
s44.334 -54.166 65.001 -83.499c13.333 -18.667 25.833 -37.667 37.5 -57l35.5 -58l34.5 -55l34.5 -55c2.66699 -4 5.33398 -7.66699 8.00098 -11s6 -6.66602 10 -9.99902c2.66699 -2.66699 2.33398 -5 -0.999023 -7c-4 -4.66699 -9.66699 -6.33398 -17 -5.00098
c-7.33301 2 -13.666 6.66699 -18.999 14l-13.5 18l-12.5 18l-123 189l-46.5 66.5c-15.667 21.667 -32.5 42.5 -50.5 62.5l-22 22l-22 22l-7.5 7.5c-2.33301 2.33301 -4.5 4.83301 -6.5 7.5c-6.66699 10 -5.66699 18.333 3 25c5.33301 3.33301 10.333 6.16602 15 8.49902
l15 7.5c22.667 10 44.834 20.5 66.501 31.5s43.167 22.833 64.5 35.5s41.5 26.667 60.5 42s36.167 33 51.5 53c20 25.333 37.833 51.5 53.5 78.5s28.834 56.5 39.501 88.5c4 12 7.33301 24.5 10 37.5s4.66699 26.5 6 40.5c0 7.33301 -0.333008 14.333 -1 21
s-2.33398 13.667 -5.00098 21c-6 16.667 -17.333 25.667 -34 27c-9.33301 0.666992 -18.166 -0.166016 -26.499 -2.49902s-16.5 -5.5 -24.5 -9.5c-24.667 -12 -47.334 -28.333 -68.001 -49c-18 -17.333 -34.667 -35.5 -50 -54.5s-29.666 -38.833 -42.999 -59.5
c-18 -28 -34.833 -56.167 -50.5 -84.5s-30.834 -57.5 -45.501 -87.5l-36.5 -76.5c-11.667 -25.667 -22.834 -51.834 -33.501 -78.501c-14.667 -36 -28.334 -72 -41.001 -108l-37 -110c-6 -18 -11.167 -36.167 -15.5 -54.5l-13.5 -55.5l-3 -9
c-1.33301 -6 -5 -9.66699 -11 -11c-3.33301 -0.666992 -6.5 -1 -9.5 -1s-6.16699 0.666992 -9.5 2c-4 2.66699 -6 6 -6 10l6 45c8.66699 52 18.834 103 30.501 153s24.5 100 38.5 150c16.667 59.333 34 117.666 52 174.999l56 173l15.5 51l15.5 51c4 12 6 25 6 39v3
c0 0.666992 -0.333008 1.33398 -1 2.00098z" />
    <glyph glyph-name="S" unicode="S" horiz-adv-x="540" 
d="M540 161c2.66699 -0.666992 4.66797 -1.33594 6.00098 -2.00293c1.33301 -1.33301 2 -2.5 2 -3.5s-1 -3.16699 -3 -6.5c-8 -11.333 -41.333 -28.333 -100 -51c-1.33301 -4 -2.33301 -7.33301 -3 -10c-5.33301 -18 -12.166 -35.5 -20.499 -52.5
s-17.166 -33.833 -26.499 -50.5c-12 -21.333 -25 -42.166 -39 -62.499s-29.333 -39.833 -46 -58.5c-12.667 -13.333 -25.834 -25.833 -39.501 -37.5s-28.5 -22.167 -44.5 -31.5c-10 -5.33301 -20.5 -9.66602 -31.5 -12.999s-22.167 -5.66602 -33.5 -6.99902
c-10.667 -1.33301 -21.334 -1.33301 -32.001 0s-20.667 4.66602 -30 9.99902c-15.333 8.66699 -26 19.667 -32 33s-8.33301 27.333 -7 42s5 28 11 40s13.333 23.667 22 35c12 15.333 25.333 29.333 40 42s30.334 24.334 47.001 35.001c22.667 14 45.834 26.167 69.501 36.5
s48.167 19.5 73.5 27.5l63 18c0.666992 0.666992 1.33398 1.16699 2.00098 1.5s1.33398 0.833008 2.00098 1.5c5.33301 20 8 39.333 8 58c-1.33301 31.333 -14 57 -38 77c-10 8.66699 -20.667 16 -32 22s-23 11.667 -35 17c-14.667 6.66699 -29.167 12.834 -43.5 18.501
l-43.5 17.5l-35 16c-11.333 5.33301 -22.333 11.666 -33 18.999c-5.33301 3.33301 -10 7 -14 11s-8 8.33301 -12 13c-16.667 20.667 -21.334 43 -14.001 67c3.33301 10 7.33301 19.5 12 28.5s9.66699 17.833 15 26.5c12 17.333 25 33.833 39 49.5s28.667 30.834 44 45.501
c21.333 20.667 43.666 40 66.999 58s47.666 34.333 72.999 49c14.667 8.66699 29.5 16.5 44.5 23.5s30.5 12.833 46.5 17.5c8.66699 2.66699 17.167 4.66699 25.5 6s17.166 1.66602 26.499 0.999023c8 -0.666992 15.833 -2 23.5 -4s14.834 -5.66699 21.501 -11
c12 -9.33301 18.667 -22.333 20 -39c0 -9.33301 -1.16699 -18.166 -3.5 -26.499s-5.16602 -16.833 -8.49902 -25.5c-6 -16 -13 -31.5 -21 -46.5s-16.667 -29.833 -26 -44.5l-38 -60l-39 -60c-3.33301 -5.33301 -6.83301 -10 -10.5 -14s-7.16699 -8.33301 -10.5 -13
c-2.66699 -3.33301 -5.5 -5.33301 -8.5 -6s-6.5 -0.333984 -10.5 0.999023c-2.66699 1.33301 -4.33398 2.33301 -5.00098 3v4c9.33301 12 18 23.667 26 35l42.5 66l41.5 66c14.667 23.333 26.334 46.333 35.001 69c3.33301 8 6 16 8 24s3.33301 16.667 4 26
c0 9.33301 -1.33301 17 -4 23c-2.66699 8.66699 -9 13.334 -19 14.001c-7.33301 0.666992 -14.333 0.333984 -21 -0.999023s-13.667 -3 -21 -5c-14 -4 -27.333 -9.16699 -40 -15.5s-25.334 -13.166 -38.001 -20.499c-29.333 -18.667 -56.833 -38.834 -82.5 -60.501
s-50.167 -45.167 -73.5 -70.5l-35.5 -40.5c-11.667 -13.667 -22.167 -28.167 -31.5 -43.5c-5.33301 -8 -10 -16 -14 -24s-7 -16.667 -9 -26c-2.66699 -10.667 -3 -19.667 -1 -27c2.66699 -10.667 9 -20 19 -28c6.66699 -4.66699 13.667 -8.83398 21 -12.501l22 -10.5l50 -20
l51 -21c15.333 -6.66699 30.166 -13.667 44.499 -21s28.166 -16 41.499 -26c15.333 -12 28 -24.333 38 -37c18 -24.667 25 -53.667 21 -87c-0.666992 -0.666992 -1 -2.33398 -1 -5.00098c16 6 32.667 13 50 21s31 15.667 41 23zM376.001 58.998
c1.33301 2.66699 2.50293 5.16602 3.50293 7.49902l3.5 8.5c-5.33301 -1.33301 -8.33301 -2 -9 -2c-20.667 -6 -40.834 -12.5 -60.501 -19.5s-39.167 -15.167 -58.5 -24.5c-20 -10 -39.333 -21.167 -58 -33.5s-36 -26.166 -52 -41.499c-9.33301 -9.33301 -18 -19 -26 -29
s-14.667 -21 -20 -33c-4.66699 -9.33301 -7.83398 -19 -9.50098 -29s-0.833984 -20.333 2.49902 -31c3.33301 -14.667 11 -25.667 23 -33s25.667 -9.33301 41 -6c16.667 5.33301 31.334 12.333 44.001 21c12.667 8 24.167 16.833 34.5 26.5s20.166 20.167 29.499 31.5
c23.333 28 44.333 57.667 63 89s35 64 49 98z" />
    <glyph glyph-name="T" unicode="T" horiz-adv-x="258" 
d="M264 693c-4.66699 -32 -10.9922 -63.165 -18.9922 -93.498l-25 -90.5l-31.5 -111l-31.5 -112c-11.333 -41.333 -21.833 -82.5 -31.5 -123.5s-18.834 -82.5 -27.501 -124.5c-4.66699 -20.667 -8.83398 -41 -12.501 -61s-7.16699 -40.667 -10.5 -62
c-1.33301 -10 -2.5 -20.167 -3.5 -30.5s-0.833008 -20.5 0.5 -30.5c0 -9.33301 1.66699 -17.333 5 -24l8 8c6 7.33301 11.5 15 16.5 23s9.83301 16.667 14.5 26l25.5 50.5l26.5 51.5l38 72l39 72c2 3.33301 4.16699 6.5 6.5 9.5s4.5 6.16699 6.5 9.5c5.33301 8 12 11 20 9
l4 -2c3.33301 -1.33301 3.66602 -3.33301 0.999023 -6c-6 -5.33301 -11 -11.666 -15 -18.999l-12 -22c-19.333 -35.333 -37.833 -70.833 -55.5 -106.5l-52.5 -108.5c-5.33301 -11.333 -10.833 -22.333 -16.5 -33s-12.167 -20.667 -19.5 -30
c-8 -11.333 -16.333 -18.666 -25 -21.999c-8 -2.66699 -15.667 -3.5 -23 -2.5s-14 5.16699 -20 12.5c-4 5.33301 -6.66699 10.666 -8 15.999s-2.66602 11.333 -3.99902 18c-1.33301 11.333 -1.66602 22.833 -0.999023 34.5s1.66699 23.167 3 34.5
c5.33301 50 13.166 99.5 23.499 148.5s21.166 97.833 32.499 146.5c15.333 64.667 31.5 128.334 48.5 191.001s35.167 125.667 54.5 189l12.5 42.5l13.5 43.5c0 0.666992 0.166992 1.16699 0.5 1.5s0.5 1.16602 0.5 2.49902c-5.33301 -0.666992 -10.5 -1 -15.5 -1
s-10.167 -0.333008 -15.5 -1s-10.666 -1.16699 -15.999 -1.5s-10.666 -0.833008 -15.999 -1.5c-7.33301 -1.33301 -14.833 -2.16602 -22.5 -2.49902s-15.167 -1.16602 -22.5 -2.49902l-23.5 -2c-7.66699 -0.666992 -15.167 -1.66699 -22.5 -3l-33.5 -4l-33.5 -4
c-11.333 -1.33301 -22.666 -2.83301 -33.999 -4.5s-22.666 -3.16699 -33.999 -4.5c-15.333 -2.66699 -30.5 -5.5 -45.5 -8.5s-29.833 -7.83301 -44.5 -14.5c-6.66699 -2.66699 -13.334 -6.33398 -20.001 -11.001c-1.33301 -0.666992 -2.83301 -1.5 -4.5 -2.5
s-3.16699 -2.16699 -4.5 -3.5c-6 -4.66699 -11.667 -4.66699 -17 0c-2 3.33301 -2 5.66602 0 6.99902c2 2.66699 4.16699 5 6.5 7s4.5 4 6.5 6c18.667 12.667 38.667 21.667 60 27c14 3.33301 28.167 6.5 42.5 9.5l42.5 8.5c15.333 3.33301 30.166 6.16602 44.499 8.49902
s29.166 4.5 44.499 6.5c10.667 1.33301 21 2.83301 31 4.5s20.333 3.16699 31 4.5c10 1.33301 19.833 2.33301 29.5 3s19.5 1.66699 29.5 3c8 1.33301 16 2.16602 24 2.49902s15.667 1.16602 23 2.49902h8.5c2.33301 0 5.16602 0.333008 8.49902 1c1.33301 0 2 1 2 3
c1.33301 1.33301 2.16602 3 2.49902 5s1.16602 4 2.49902 6c2 4.66699 5 6.66699 9 6c4.66699 -1.33301 8.83398 -3 12.501 -5s6.5 -5.66699 8.5 -11c0 -0.666992 1.33301 -1 4 -1c8 0 16.167 0.166992 24.5 0.5s16.833 0.5 25.5 0.5
c15.333 0.666992 30.666 1.16699 45.999 1.5s30.666 0.5 45.999 0.5c19.333 0 38.5 0.166992 57.5 0.5s38.167 0.166016 57.5 -0.500977c11.333 0 22.166 -0.166992 32.499 -0.5s21.166 -0.833008 32.499 -1.5c6.66699 0 13.167 0.166992 19.5 0.5s12.833 0.5 19.5 0.5
s12.667 -1.33301 18 -4h1c2 -1.33301 3.83301 -2.66602 5.5 -3.99902s2.16699 -3.33301 1.5 -6c0 -3.33301 -2.33301 -5.66602 -7 -6.99902c-6.66699 -2.66699 -11.667 -4 -15 -4c-2.66699 -0.666992 -6 -0.333984 -10 0.999023c-3.33301 2 -7.33301 2.33301 -12 1
c-10 -2 -20 -3.16699 -30 -3.5s-20.333 -0.5 -31 -0.5h-142c-16 0 -31.833 -0.166992 -47.5 -0.5s-31.5 -0.833008 -47.5 -1.5c-8 0 -16.167 -0.166992 -24.5 -0.5s-16.5 -0.833008 -24.5 -1.5z" />
    <glyph glyph-name="U" unicode="U" horiz-adv-x="593" 
d="M89 -241c-1.33301 1.33301 -2.66309 2.00488 -3.99609 2.00488c-17.333 4 -31 14 -41 30c-4.66699 6.66699 -8.16699 13.667 -10.5 21s-4.16602 15 -5.49902 23c-2.66699 12 -4.33398 24 -5.00098 36s-0.666992 24 0 36c1.33301 25.333 3.83301 50.666 7.5 75.999
s8.16699 50.666 13.5 75.999c13.333 64.667 29.333 128 48 190s39.667 124 63 186c28 74 59.333 146.667 94 218l10 21l10 21c0.666992 1.33301 1 2.33301 1 3s0.666992 1.66699 2 3c-1.33301 -0.666992 -2.5 -1 -3.5 -1s-2.16699 -0.333008 -3.5 -1
c-10.667 -4 -21.167 -8.33301 -31.5 -13s-20.5 -9.66699 -30.5 -15c-21.333 -10.667 -42.166 -21.667 -62.499 -33l-60.5 -35l-53.5 -33.5l-53.5 -33.5c-1.33301 -1.33301 -2.5 -2.33301 -3.5 -3s-2.16699 -1.33398 -3.5 -2.00098c-3.33301 -2.66699 -6.33301 -3 -9 -1
c-1.33301 0.666992 -2.16602 1.16699 -2.49902 1.5s-1.16602 0.833008 -2.49902 1.5c-4.66699 4 -4.33398 7.66699 0.999023 11c7.33301 5.33301 14.833 10.5 22.5 15.5s15.167 10.167 22.5 15.5l32 21l32 21l45 26.5l45 25.5l31.5 16l31.5 16l22.5 12
c7.66699 4 15.5 7.66699 23.5 11c4 1.33301 8 2.33301 12 3s8.33301 0 13 -2c8.66699 -6 14 -13.333 16 -22c1.33301 -5.33301 1.66602 -10 0.999023 -14s-1.66699 -8.33301 -3 -13c-3.33301 -13.333 -7 -26.333 -11 -39s-8.66699 -25.667 -14 -39l-29 -78.5l-29 -79.5
c-13.333 -38 -26 -75.833 -38 -113.5l-35 -113.5c-8.66699 -30 -16.667 -60 -24 -90s-14 -60.333 -20 -91c-8 -36 -14 -72.667 -18 -110c-1.33301 -12.667 -2.5 -25.334 -3.5 -38.001s-0.833008 -25.334 0.5 -38.001c0.666992 -8 1.66699 -16.167 3 -24.5
s3.66602 -16.166 6.99902 -23.499c1.33301 -2.66699 4 -6.66699 8 -12c2 -2.66699 4.33301 -3 7 -1c3.33301 2 6.16602 4.16699 8.49902 6.5s4.83301 4.5 7.5 6.5c11.333 12 21.666 26 30.999 42c10 16 19.5 32.333 28.5 49l26.5 51l40.5 83l38.5 83l27.5 64.5l27.5 64.5
l31 72.5l30 73.5l53 127l55 126c2.66699 4 5 9.33301 7 16c2 3.33301 5.33301 4.66602 10 3.99902c12.667 -3.33301 20 -10.333 22 -21c2 -4 2.33301 -9.33301 1 -16c-1.33301 -13.333 -3.16602 -26.166 -5.49902 -38.499s-5.16602 -24.833 -8.49902 -37.5
c-6.66699 -28.667 -14 -57 -22 -85l-25 -84c-11.333 -38 -22 -75.667 -32 -113s-18.667 -75.333 -26 -114c-4.66699 -21.333 -9 -43 -13 -65l-12 -66c-6 -34 -10 -68.333 -12 -103c-2 -17.333 -2 -34.333 0 -51c1.33301 -5.33301 2.66602 -9.66602 3.99902 -12.999
c7.33301 4 13.666 9 18.999 15c6.66699 6.66699 12.5 13.5 17.5 20.5s9.83301 14.167 14.5 21.5c9.33301 14.667 18.166 29.5 26.499 44.5l25.5 45.5l41.5 75.5l43.5 75.5l9 12c4 4 9.33301 5 16 3c4.66699 -1.33301 5.66699 -3.33301 3 -6
c-4 -4 -7.16699 -8.16699 -9.5 -12.5s-4.83301 -8.5 -7.5 -12.5l-51 -90l-49 -91l-22 -39.5c-7.33301 -13 -15.666 -26.167 -24.999 -39.5l-10.5 -14c-3.66699 -4.66699 -7.83398 -9 -12.501 -13c-7.33301 -7.33301 -16 -12 -26 -14c-8.66699 -2 -16.667 -1.83301 -24 0.5
s-12.666 7.16602 -15.999 14.499c-2.66699 4.66699 -4.33398 9.16699 -5.00098 13.5s-1.66699 9.16602 -3 14.499c-2 20 -2 40.333 0 61c1.33301 14 2.5 27.833 3.5 41.5s2.16699 27.5 3.5 41.5c2.66699 25.333 6.66699 52 12 80c10.667 63.333 24.667 126.666 42 189.999
l22 78.5l22 78.5c1.33301 6 3 12 5 18s3.66699 12 5 18v3c-1.33301 -2.66699 -2.5 -5.16699 -3.5 -7.5s-2.16699 -4.83301 -3.5 -7.5l-72 -165c-11.333 -26 -22 -52 -32 -78s-20.667 -52.333 -32 -79l-31.5 -72.5l-31.5 -72.5c-9.33301 -21.333 -19 -42.166 -29 -62.499
l-30 -61.5c-12.667 -24.667 -26 -48 -40 -70c-4 -6 -8.16699 -11.667 -12.5 -17s-9.5 -10.333 -15.5 -15c-4.66699 -4.66699 -12 -8.66699 -22 -12c-0.666992 0 -2.33398 -0.666992 -5.00098 -2h-18z" />
    <glyph glyph-name="V" unicode="V" horiz-adv-x="305" 
d="M200 669c-4.66699 -1.33301 -8.99609 -2.16895 -12.9961 -2.50195s-7.66699 -1.16602 -11 -2.49902c-18.667 -5.33301 -36.5 -12 -53.5 -20s-34.167 -16.667 -51.5 -26l-42.5 -22.5l-43.5 -22.5l-43.5 -22l-43.5 -22l-10.5 -6c-3.66699 -2 -7.16699 -3.66699 -10.5 -5
c-6 -4 -11.333 -2.66699 -16 4c-1.33301 3.33301 -0.666016 5.66602 2.00098 6.99902l9 6l37.5 19l37.5 19c7.33301 3.33301 14.333 6.83301 21 10.5l21 11.5l43 22.5l42 22.5c10 5.33301 19.833 10.333 29.5 15l29.5 14c7.33301 3.33301 14.666 6.5 21.999 9.5
s14.666 6.16699 21.999 9.5c1.33301 0.666992 3 1 5 1s3.66699 0.333008 5 1c8.66699 2.66699 16.334 2.16699 23.001 -1.5s12 -8.5 16 -14.5c3.33301 -5.33301 5.5 -10.666 6.5 -15.999s1.83301 -11 2.5 -17c0 -10 -0.833008 -20.167 -2.5 -30.5s-3.5 -20.5 -5.5 -30.5
c-5.33301 -24.667 -11.666 -49 -18.999 -73l-22 -73l-35 -116.5c-11.333 -38.333 -22 -77.5 -32 -117.5l-23.5 -93l-22.5 -92c-8 -36 -15 -72 -21 -108c-2.66699 -13.333 -4.83398 -26.833 -6.50098 -40.5s-2.16699 -27.167 -1.5 -40.5v-9.5c0 -3 0.666992 -6.16699 2 -9.5
c2.66699 4 5.33398 7.33301 8.00098 10c5.33301 9.33301 10.666 18.166 15.999 26.499s10.666 17.166 15.999 26.499c15.333 25.333 29.166 51 41.499 77l37.5 79l47 102.5l48 102.5l43.5 95l43.5 95l60 132l62 132l10.5 20c3.66699 6.66699 7.16699 13.667 10.5 21
c0.666992 2.66699 2 5.33398 4 8.00098c2.66699 3.33301 5.66699 4.66602 9 3.99902c4.66699 0 7.66699 -2.66699 9 -8c0 -0.666992 -0.666992 -1.66699 -2 -3c-3.33301 -7.33301 -7 -14.666 -11 -21.999s-7.66699 -14.666 -11 -21.999l-58 -125.5l-58 -125.5
c-12 -25.333 -23.5 -50.833 -34.5 -76.5l-33.5 -76.5l-36 -79l-36 -79l-27.5 -62l-27.5 -63c-11.333 -26.667 -23.333 -53.167 -36 -79.5s-26.334 -52.166 -41.001 -77.499l-14 -23c-4.66699 -7.33301 -9.66699 -14.666 -15 -21.999c-4 -5.33301 -8.16699 -10 -12.5 -14
s-9.5 -7 -15.5 -9c-6.66699 -2.66699 -13.167 -4 -19.5 -4s-12.166 2.33301 -17.499 7c-5.33301 4 -8.33301 9 -9 15c-2.66699 6.66699 -4.16699 13.334 -4.5 20.001s-0.5 13.667 -0.5 21c0 17.333 1 34.666 3 51.999s4.33301 34.666 7 51.999
c3.33301 21.333 7 42.833 11 64.5s8.66699 43.167 14 64.5c6.66699 30 13.667 59.5 21 88.5l23 88.5c12 44 24.833 87.5 38.5 130.5l41.5 130.5l20 63l20 63c1.33301 5.33301 2.66602 10.333 3.99902 15s2.66602 9.66699 3.99902 15c0.666992 2.66699 1 6.66699 1 12z" />
    <glyph glyph-name="W" unicode="W" horiz-adv-x="639" 
d="M690 649c-0.666992 -2.66699 -0.999023 -5.16406 -0.999023 -7.49707s-0.333008 -4.83301 -1 -7.5l-6 -40c-2 -13.333 -4.33301 -26.666 -7 -39.999l-11.5 -67.5c-3.66699 -22.333 -7.83398 -44.5 -12.501 -66.5c-18 -100 -43 -196.667 -75 -290
c-9.33301 -28.667 -19.166 -57 -29.499 -85s-21.5 -56 -33.5 -84l-28 -63.5c-9.33301 -21 -19.666 -41.833 -30.999 -62.5c-4 -7.33301 -8.16699 -14.5 -12.5 -21.5s-9.16602 -13.5 -14.499 -19.5c-4 -5.33301 -8.5 -10.166 -13.5 -14.499s-10.833 -7.5 -17.5 -9.5
c-13.333 -4.66699 -25 -3.33398 -35 3.99902c-3.33301 2.66699 -6 5.83398 -8 9.50098l-6 11.5c-2.66699 6.66699 -4.83398 13.334 -6.50098 20.001s-3.16699 13.667 -4.5 21c-3.33301 20 -5.5 40.167 -6.5 60.5s-1.16699 40.833 -0.5 61.5c0 21.333 0.833008 42.5 2.5 63.5
s3.5 42.167 5.5 63.5c3.33301 30 7.66602 59.833 12.999 89.5s11 59.5 17 89.5l22.5 99c7.66699 32.667 15.834 65.667 24.501 99c0 0.666992 0.166992 1.16699 0.5 1.5s0.166016 1.16602 -0.500977 2.49902l-3 -6l-31.5 -67.5l-30.5 -68.5l-40.5 -93l-38.5 -94l-29.5 -73.5
l-29.5 -72.5l-21.5 -51.5c-7 -17 -14.5 -33.833 -22.5 -50.5c-5.33301 -10 -11.666 -20.667 -18.999 -32c-7.33301 -10.667 -16.666 -16.334 -27.999 -17.001c-12.667 -2 -23 3.66699 -31 17c-3.33301 5.33301 -5.83301 10.833 -7.5 16.5s-3.16699 11.5 -4.5 17.5
c-1.33301 8 -2.5 16.167 -3.5 24.5s-1.5 16.833 -1.5 25.5c-0.666992 22.667 -0.166992 45 1.5 67s4.16699 44.333 7.5 67c5.33301 34.667 11.5 69.167 18.5 103.5s14.5 68.5 22.5 102.5c12 50.667 25.167 100.667 39.5 150l44.5 149
c5.33301 15.333 10.166 30.666 14.499 45.999l13.5 46c1.33301 3.33301 2.16602 6.5 2.49902 9.5s0.833008 6.16699 1.5 9.5c0.666992 0.666992 1 2.66699 1 6c-1.33301 0 -2.5 -0.166992 -3.5 -0.5s-1.83301 -0.5 -2.5 -0.5c-6.66699 -2.66699 -12.834 -5.66699 -18.501 -9
s-11.5 -7 -17.5 -11c-14 -9.33301 -27.667 -19 -41 -29s-26.666 -20.667 -39.999 -32l-105 -90c-9.33301 -7.33301 -18.166 -15 -26.499 -23l-25.5 -24c-2.66699 -2.66699 -5.83398 -3.5 -9.50098 -2.5s-6.16699 3.5 -7.5 7.5c-0.666992 1.33301 0 3.66602 2 6.99902
c3.33301 3.33301 6.33301 6.5 9 9.5s5.66699 6.16699 9 9.5c30 30.667 61.333 60 94 88l29.5 26c9.66699 8.66699 19.834 17.334 30.501 26.001c26 22 53 43 81 63c4.66699 3.33301 9.16699 6.33301 13.5 9s9.16602 5 14.499 7c10.667 4 20.667 2.66699 30 -4
c14.667 -9.33301 23 -24 25 -44c0.666992 -9.33301 0.333984 -18.5 -0.999023 -27.5s-3 -18.167 -5 -27.5c-3.33301 -17.333 -7.5 -34.333 -12.5 -51l-15.5 -51l-35.5 -126c-11.667 -42 -22.834 -84.333 -33.501 -127l-23 -95.5c-7.33301 -31.667 -14 -63.5 -20 -95.5
c-3.33301 -18.667 -6.5 -37.334 -9.5 -56.001s-5.16699 -37.667 -6.5 -57c-0.666992 -10 -1 -20 -1 -30v-30c0 -5.33301 0.5 -10.666 1.5 -15.999s1.83301 -10.666 2.5 -15.999c0.666992 -0.666992 1 -1.33398 1 -2.00098s0.333008 -1.66699 1 -3
c4.66699 5.33301 7.66699 9.66602 9 12.999c7.33301 11.333 13.833 22.833 19.5 34.5l16.5 35.5c17.333 38 33.833 76.167 49.5 114.5l48.5 114.5l69 156l27 61l27 60l19.5 43l19.5 43c1.33301 3.33301 2.33301 5 3 5c4.66699 8.66699 11 10.667 19 6
c8.66699 -4.66699 13 -12 13 -22c0 -7.33301 -0.333008 -14.333 -1 -21s-1.66699 -13.334 -3 -20.001l-13.5 -64c-4.33301 -21.333 -9.16602 -42.666 -14.499 -63.999c-6.66699 -30 -13 -60 -19 -90s-11.333 -60.333 -16 -91l-9.5 -67.5
c-3 -22.333 -5.5 -45.166 -7.5 -68.499c-2.66699 -46 -3.66699 -92.333 -3 -139c0.666992 -13.333 1.66699 -27 3 -41s3.66602 -27.667 6.99902 -41c1.33301 -4 2.5 -8.16699 3.5 -12.5s3.16699 -8.5 6.5 -12.5c1.33301 1.33301 2.5 2.66602 3.5 3.99902
s2.16699 2.66602 3.5 3.99902c5.33301 7.33301 10.166 15 14.499 23s8.5 16.333 12.5 25c17.333 34 33.333 68.167 48 102.5s28.667 69.5 42 105.5c20.667 54 39.667 109.667 57 167c8.66699 30 16.5 59.833 23.5 89.5l21.5 90.5c6.66699 27.333 12.5 54.333 17.5 81
l15.5 81c2.66699 13.333 5 26.666 7 39.999s4.33301 26.666 7 39.999c0.666992 3.33301 1 8.33301 1 15c0 3.33301 1.33301 5.33301 4 6c6.66699 0.666992 12 -2.66602 16 -9.99902v-16z" />
    <glyph glyph-name="X" unicode="X" horiz-adv-x="425" 
d="M268 -145c3.33301 3.33301 5.83594 6.83594 7.50293 10.5029s3.5 7.16699 5.5 10.5l28 57.5l28 57.5l33.5 63.5l33.5 63.5c2.66699 5.33301 5.33398 10.166 8.00098 14.499s5.66699 8.83301 9 13.5c3.33301 6.66699 7.66602 11.334 12.999 14.001
c2 0.666992 4.66699 1 8 1s4 -1.66699 2 -5c0 -0.666992 -0.333008 -1.33398 -1 -2.00098c-4.66699 -5.33301 -8.66699 -10.833 -12 -16.5l-10 -17.5l-45.5 -86c-15 -28.667 -29.167 -57.667 -42.5 -87l-16 -35.5l-16 -34.5l-7.5 -13.5
c-2.33301 -4.33301 -4.83301 -8.5 -7.5 -12.5c-5.33301 -7.33301 -12 -13 -20 -17c-14 -6 -25.333 -3.66699 -34 7c-4 5.33301 -7.16699 11 -9.5 17s-4.5 12.333 -6.5 19c-3.33301 12.667 -6.16602 25.334 -8.49902 38.001s-4.16602 25.667 -5.49902 39
c-4 36.667 -6 74.667 -6 114c0 11.333 0.166992 22.166 0.5 32.499s0.5 21.166 0.5 32.499c0 3.33301 -0.333008 6 -1 8c-0.666992 -1.33301 -1.33398 -2.33301 -2.00098 -3s-1.33398 -1.66699 -2.00098 -3l-40 -70l-41 -70c-8 -14 -16.5 -27.667 -25.5 -41l-27.5 -40
c-10 -13.333 -21.667 -25 -35 -35c-16 -12 -33 -15.667 -51 -11c-6 1.33301 -11.167 3.66602 -15.5 6.99902s-8.16602 7.33301 -11.499 12c-6 7.33301 -10.667 15.166 -14 23.499s-6.33301 16.833 -9 25.5c-3.33301 14 -6 28.167 -8 42.5s-3.66699 28.833 -5 43.5v56
c0 3.33301 0.333008 6.5 1 9.5s1.33398 6.16699 2.00098 9.5c1.33301 5.33301 4.66602 8.83301 9.99902 10.5s9.66602 0.833984 12.999 -2.49902c2.66699 -2.66699 2.66699 -5.33398 0 -8.00098c-2 -1.33301 -3 -3.33301 -3 -6c-0.666992 -6.66699 -1.16699 -13 -1.5 -19
s-0.5 -12 -0.5 -18c0 -15.333 0.5 -30.166 1.5 -44.499s3.16699 -28.5 6.5 -42.5c3.33301 -18.667 8.66602 -36 15.999 -52c2.66699 -8 7.33398 -15.667 14.001 -23c5.33301 -5.33301 10.166 -8.16602 14.499 -8.49902s9.83301 1.83398 16.5 6.50098
c6 5.33301 11.5 10.833 16.5 16.5s9.83301 11.834 14.5 18.501c8.66699 12 16.667 24.167 24 36.5l22 38.5l72 135l25 45l24 44c2.66699 4.66699 4 9 4 13l6 93.5c2 31 3.66699 62.167 5 93.5c1.33301 18.667 2.5 37.167 3.5 55.5s2.16699 36.833 3.5 55.5
c1.33301 19.333 2 38.5 2 57.5s-1 38.167 -3 57.5c-0.666992 11.333 -2.66699 22.666 -6 33.999c0 1.33301 -0.333008 2.83301 -1 4.5s-1.33398 3.16699 -2.00098 4.5c-2.66699 0 -5 -0.5 -7 -1.5s-4 -2.16699 -6 -3.5c-5.33301 -3.33301 -9.83301 -7 -13.5 -11l-11.5 -13
c-32 -38.667 -57 -81.334 -75 -128.001c-1.33301 -3.33301 -2.16602 -6.16602 -2.49902 -8.49902s-1.16602 -5.16602 -2.49902 -8.49902c0 -1.33301 -0.666992 -2.66602 -2 -3.99902c-2 -2 -5.33301 -2.33301 -10 -1c-4 1.33301 -5.66699 3.66602 -5 6.99902
s1.16699 6.66602 1.5 9.99902s1.16602 6.66602 2.49902 9.99902c4.66699 12 9.66699 23.5 15 34.5s11.333 22.167 18 33.5c15.333 27.333 32.666 52.666 51.999 75.999c3.33301 3.33301 6.5 6.66602 9.5 9.99902s6.5 6.66602 10.5 9.99902c8 6.66699 16.5 9.5 25.5 8.5
s16.833 -4.83301 23.5 -11.5c4 -3.33301 7.16699 -7.33301 9.5 -12s4.5 -9.66699 6.5 -15c6.66699 -20.667 11 -43 13 -67c1.33301 -14.667 2.16602 -29.167 2.49902 -43.5s0.5 -28.833 0.5 -43.5c-1.33301 -28 -2.83301 -55.833 -4.5 -83.5s-3.5 -55.5 -5.5 -83.5
c0 -4.66699 -0.166992 -9 -0.5 -13s-0.833008 -8 -1.5 -12v-7l4 4l70.5 118.5l71.5 118.5l43 71l45 71c2.66699 4.66699 5.33398 9 8.00098 13l9 13c4 6 10 8 18 6c6 -2.66699 10 -6.33398 12 -11.001c2 -3.33301 1.33301 -6.66602 -2 -9.99902
c-4 -5.33301 -6.66699 -9.33301 -8 -12l-33 -56.5l-33 -55.5l-86 -148.5l-86 -148.5l-18 -30c-6 -10 -11.667 -20.333 -17 -31c-1.33301 -2.66699 -2.66602 -6 -3.99902 -10c-0.666992 -23.333 -1.5 -46.833 -2.5 -70.5s-1.83301 -47.167 -2.5 -70.5
c-0.666992 -20.667 -0.833984 -41.167 -0.500977 -61.5s1.5 -40.5 3.5 -60.5l4 -39c1.33301 -12.667 3.66602 -25.334 6.99902 -38.001c1.33301 -3.33301 2.5 -6.66602 3.5 -9.99902s2.16699 -6.66602 3.5 -9.99902c1.33301 -1.33301 2.33301 -2.66602 3 -3.99902
s1.66699 -3 3 -5z" />
    <glyph glyph-name="Y" unicode="Y" horiz-adv-x="375" 
d="M431 621c0 -5.33301 -0.329102 -10.334 -0.996094 -15.001s-1.66699 -9.66699 -3 -15l-21 -93l-21 -96c-10 -50 -22 -100.333 -36 -151l-20.5 -67c-7 -22 -14.5 -44.333 -22.5 -67l69 44c2.66699 -1.33301 5 -3 7 -5c3.33301 -4 3 -8 -1 -12
c-2.66699 -2.66699 -8.33398 -7 -17.001 -13l-27 -18l-37 -23c-3.33301 -1.33301 -6 -4.33301 -8 -9c-9.33301 -23.333 -19 -46.333 -29 -69s-21.333 -44.667 -34 -66c-10 -17.333 -20.667 -34 -32 -50s-24 -31 -38 -45c-7.33301 -7.33301 -15 -14.333 -23 -21
s-16.667 -12.667 -26 -18c-6.66699 -3.33301 -13.667 -6.16602 -21 -8.49902s-15 -3.16602 -23 -2.49902c-12.667 0 -23.334 4.66699 -32.001 14c-6 7.33301 -9.66699 16.333 -11 27c-1.33301 7.33301 -1.33301 14.166 0 20.499s3 12.5 5 18.5
c3.33301 9.33301 7.5 18.333 12.5 27s10.5 16.667 16.5 24c16 19.333 34.667 37.333 56 54c18 15.333 36.5 29.666 55.5 42.999l57.5 39c6 4 12.333 7.66699 19 11c3.33301 2 5.66602 4.66699 6.99902 8c8.66699 22.667 16.5 45.5 23.5 68.5l21.5 69.5
c10.667 37.333 20.5 74.833 29.5 112.5s17.5 75.5 25.5 113.5c1.33301 6.66699 3 13 5 19s3.66699 12.333 5 19v4c-0.666992 -1.33301 -1.16699 -2.16602 -1.5 -2.49902s-0.833008 -1.16602 -1.5 -2.49902l-36 -79.5l-36 -78.5l-44 -94l-44 -93
c-6 -12 -12.167 -23.667 -18.5 -35s-13.166 -22.666 -20.499 -33.999c-5.33301 -8 -11.333 -15 -18 -21c-11.333 -10 -24.666 -11.333 -39.999 -4c-6.66699 2.66699 -12 6.5 -16 11.5s-7.66699 10.833 -11 17.5c-7.33301 15.333 -12 32.666 -14 51.999
c-1.33301 15.333 -1.83301 30.5 -1.5 45.5s1.16602 30.167 2.49902 45.5c3.33301 31.333 8.33301 61.833 15 91.5l21 89.5c11.333 40 23.333 79.167 36 117.5s26 76.5 40 114.5l10.5 28.5l10.5 28.5c0.666992 0.666992 1 1.5 1 2.5s0.333008 1.83301 1 2.5
c0 0.666992 -0.333008 1 -1 1c-4 -2 -8 -4.16699 -12 -6.5s-8 -4.5 -12 -6.5c-35.333 -22 -68 -45 -98 -69l-56 -44.5l-54 -45.5c-6.66699 -5.33301 -13 -11.166 -19 -17.499l-18 -18.5c-1.33301 -0.666992 -2.66602 -2.33398 -3.99902 -5.00098
c-0.666992 -2.66699 -2.33398 -4 -5.00098 -4c-1.33301 0.666992 -2.33301 1 -3 1s-1.66699 0.333008 -3 1c-6 4 -7 8.33301 -3 13c4.66699 6.66699 10.334 13.334 17.001 20.001l24 21.5l24 21.5l40 33.5l40 32.5l44 33.5l45 33.5c7.33301 5.33301 14.333 10.166 21 14.499
s13.334 9.16602 20.001 14.499c1.33301 1.33301 2.83301 2.16602 4.5 2.49902s3.5 1.16602 5.5 2.49902c6 2.66699 12.667 2 20 -2c11.333 -7.33301 17 -17.333 17 -30c0 -12 -2 -23.333 -6 -34c-8.66699 -31.333 -17.667 -61 -27 -89l-29.5 -95.5
c-9.66699 -31.667 -18.5 -63.834 -26.5 -96.501l-15.5 -66c-5 -22 -9.5 -44.333 -13.5 -67c-2.66699 -16 -4.83398 -32.167 -6.50098 -48.5s-2.5 -32.833 -2.5 -49.5c0 -9.33301 0.333008 -18.666 1 -27.999s2 -18.666 4 -27.999
c1.33301 -3.33301 2.33301 -6.66602 3 -9.99902s2 -6.66602 4 -9.99902c4 2.66699 6.66699 5 8 7c5.33301 5.33301 10.166 11 14.499 17s8.16602 12 11.499 18c12 18.667 23.167 37.5 33.5 56.5s20.166 38.167 29.499 57.5l90 186l48.5 108
c15.667 36 30.834 72.667 45.501 110c1.33301 1.33301 2.16602 2.83301 2.49902 4.5s1.16602 3.16699 2.49902 4.5c0.666992 2.66699 3.33398 4 8.00098 4c5.33301 -0.666992 10 -3.33398 14 -8.00098s6.33301 -9.66699 7 -15zM218.004 3.99902
c3.33301 7.33301 6.50098 14.833 9.50098 22.5s6.16699 15.167 9.5 22.5l-1 1c-2.66699 -2 -5.33398 -3.83301 -8.00098 -5.5s-5.33398 -3.5 -8.00098 -5.5c-14.667 -10 -29 -20.333 -43 -31l-42 -33c-9.33301 -7.33301 -18.333 -15 -27 -23s-17 -16.333 -25 -25
c-6 -7.33301 -11.667 -15 -17 -23s-9.66602 -16.667 -12.999 -26c-4 -11.333 -5.66699 -22 -5 -32c0.666992 -4 1.5 -7.83301 2.5 -11.5s3.16699 -7.16699 6.5 -10.5c3.33301 -4 7.33301 -5.66699 12 -5c2 0 5 0.666992 9 2c6 2.66699 11.5 5.66699 16.5 9s10.167 7 15.5 11
c10 9.33301 19.333 19 28 29s16.667 20.667 24 32c11.333 16 21.5 32.5 30.5 49.5s17.5 34.5 25.5 52.5z" />
    <glyph glyph-name="Z" unicode="Z" horiz-adv-x="441" 
d="M-3 -154c2 1.33301 4.00391 2.16602 6.00391 2.49902s3.66699 0.833008 5 1.5c8 3.33301 15.833 6.16602 23.5 8.49902s15.5 5.16602 23.5 8.49902c6 2 12 3.83301 18 5.5s12 3.16699 18 4.5c6.66699 2 13.167 3.83301 19.5 5.5s12.833 3.5 19.5 5.5
c7.33301 1.33301 14.166 2.83301 20.499 4.5s12.833 3.5 19.5 5.5c6.66699 1.33301 13 3 19 5s12.333 3.66699 19 5c7.33301 2.66699 14.833 5 22.5 7s15.167 4.33301 22.5 7c4.66699 1.33301 9.33398 2.83301 14.001 4.5s9.33398 3.16699 14.001 4.5l15.5 6l15.5 6l22 8
l22 8l20.5 9c6.33301 2.66699 13.166 5.33398 20.499 8.00098c3.33301 1.33301 6.66602 3 9.99902 5s6.66602 3.66699 9.99902 5c3.33301 2 6.66602 5 9.99902 9c2 4 4.66699 5 8 3c9.33301 -3.33301 11 -9 5 -17c-2 -4.66699 -6 -8.66699 -12 -12
c-6.66699 -3.33301 -13 -6.33301 -19 -9s-12.333 -5.66699 -19 -9c-9.33301 -3.33301 -18.166 -6.83301 -26.499 -10.5s-16.833 -7.16699 -25.5 -10.5l-25 -9.5l-25 -9.5l-19 -7.5c-6 -2.33301 -12 -4.5 -18 -6.5c-6.66699 -2 -13.334 -4.16699 -20.001 -6.5
s-13.334 -4.5 -20.001 -6.5l-19 -5.5c-6 -1.66699 -12.333 -3.16699 -19 -4.5l-15.5 -4l-15.5 -4c-6 -2 -12 -3.83301 -18 -5.5s-12 -3.16699 -18 -4.5c-5.33301 -2 -11 -3.83301 -17 -5.5s-11.667 -3.5 -17 -5.5c-7.33301 -2 -14.5 -4.16699 -21.5 -6.5l-21.5 -7.5
c-7.33301 -2.66699 -14.5 -5.66699 -21.5 -9l-21.5 -10l-9.5 -5.5l-9.5 -5.5c-2.66699 -2 -6 -5 -10 -9l-7.5 -7.5c-2.33301 -2.33301 -4.5 -4.83301 -6.5 -7.5l-6 -3c-3.33301 -1.33301 -7.33301 -0.333008 -12 3s-7.66699 7.33301 -9 12c0 2 0.333008 3.66699 1 5
c1.33301 2.66699 2.66602 4.33398 3.99902 5.00098c5.33301 4.66699 9.83301 10 13.5 16l11.5 18l24.5 41l24.5 41l73 119.5l75 118.5l53 79.5l54 79.5c0.666992 1.33301 1.33398 2.5 2.00098 3.5s1.66699 2.16699 3 3.5
c-3.33301 0.666992 -6.16602 0.833984 -8.49902 0.500977s-4.83301 -0.833008 -7.5 -1.5l-18 -2c-6 -0.666992 -12 -1.66699 -18 -3c-7.33301 -1.33301 -14.666 -2.83301 -21.999 -4.5s-14.666 -3.16699 -21.999 -4.5c-5.33301 -1.33301 -10.333 -2.66602 -15 -3.99902
s-9.66699 -2.66602 -15 -3.99902c-6 -1.33301 -12 -3 -18 -5s-11.667 -3.66699 -17 -5c-3.33301 -1.33301 -7.66602 -2.66602 -12.999 -3.99902c-3.33301 -0.666992 -6.83301 0.5 -10.5 3.5s-5.5 6.5 -5.5 10.5c0 2 1 3.66699 3 5l11.5 4l10.5 4
c5.33301 2 11 3.83301 17 5.5s12 3.5 18 5.5l16 4l16 4c7.33301 1.33301 14.166 2.5 20.499 3.5s12.833 2.16699 19.5 3.5c5.33301 1.33301 10.166 2.16602 14.499 2.49902s9.16602 0.833008 14.499 1.5c5.33301 1.33301 10.833 2.16602 16.5 2.49902
s11.167 0.833008 16.5 1.5c1.33301 0.666992 4 1 8 1c3.33301 0 6.33301 1.66699 9 5l24 35l24 35l47.5 66.5l47.5 66.5l31.5 46.5c10.333 15.667 20.166 31.834 29.499 48.501c3.33301 6 6.33301 12 9 18s4.66699 12.333 6 19
c0.666992 2.66699 1.33398 5.16699 2.00098 7.5s0.333984 4.83301 -0.999023 7.5c-4 2.66699 -8.33301 4.16699 -13 4.5s-9.66699 -0.166992 -15 -1.5c-11.333 -2 -22.833 -4.83301 -34.5 -8.5s-23.167 -8.16699 -34.5 -13.5l-36 -16l-36 -16l-58 -29l-32.5 -16l-32.5 -16
l-24 -12c-8 -4 -16 -7.66699 -24 -11l-25 -9.5c-8 -3 -16.333 -5.16699 -25 -6.5c-4.66699 -1.33301 -9.16699 -2.33301 -13.5 -3l-13.5 -2c-7.33301 -1.33301 -12.666 0.666992 -15.999 6c-1.33301 1.33301 -2.33301 2.66602 -3 3.99902c-1.33301 3.33301 0 5 4 5
c8 0 15.833 1.16699 23.5 3.5s15.167 4.83301 22.5 7.5c13.333 4.66699 26.166 9.83398 38.499 15.501s24.833 11.834 37.5 18.501c15.333 7.33301 30.5 15 45.5 23s30.167 15.667 45.5 23l33.5 16l33.5 16l36 16l36 16c13.333 6 28 11 44 15
c7.33301 2.66699 15.666 3 24.999 1c10.667 -2 19.334 -8.66699 26.001 -20c6 -9.33301 9.5 -19 10.5 -29s0.166992 -20.333 -2.5 -31c-2.66699 -9.33301 -5.66699 -18 -9 -26s-7 -16 -11 -24c-8.66699 -16 -17.667 -31.333 -27 -46l-29 -44l-45.5 -65.5l-45.5 -65.5l-8 -12
l-8 -12c-0.666992 -0.666992 -1.66699 -2.33398 -3 -5.00098h5h12.5c4.33301 0 8.5 -0.333008 12.5 -1c12.667 0 25.667 -1 39 -3c7.33301 -1.33301 14.166 -3.33301 20.499 -6s12.166 -6.66699 17.499 -12c8 -9.33301 11.667 -20.333 11 -33v-3
c-1.33301 -5.33301 -4 -6.33301 -8 -3c-4 2.66699 -6 7 -6 13v3c0.666992 5.33301 0.5 8.66602 -0.5 9.99902s-4.16699 3 -9.5 5c-4 1.33301 -8.33301 2.66602 -13 3.99902s-9.66699 2.33301 -15 3c-26 2 -52 2 -78 0c-4 0 -6.66699 -1.66699 -8 -5l-82.5 -119l-80.5 -120
l-63.5 -97.5l-63.5 -97.5c-4 -6.66699 -8 -13 -12 -19l-12 -18z" />
    <glyph glyph-name="bracketleft" unicode="[" horiz-adv-x="132" 
d="M36 11c4 1.33301 6.99414 1.99805 8.99414 1.99805c6 2 11 2.33301 15 1c4.66699 -1.33301 5.33398 -4 2.00098 -8c-3.33301 -4.66699 -7.66602 -7 -12.999 -7c-5.33301 -0.666992 -10.833 -1 -16.5 -1h-16.5h-4c-8.66699 2.66699 -12 8.66699 -10 18
c1.33301 7.33301 2.83301 14.166 4.5 20.499s3.16699 13.166 4.5 20.499c2 10.667 3.83301 21.167 5.5 31.5s3.5 20.833 5.5 31.5c6.66699 33.333 13.667 66.333 21 99s17 65 29 97c3.33301 6.66699 6.33301 13.334 9 20.001s5.66699 13.667 9 21
c4.66699 12 14.667 19 30 21c10.667 1.33301 19.334 0.333008 26.001 -3c0.666992 -0.666992 1.33398 -1 2.00098 -1s1.33398 -0.333008 2.00098 -1c3.33301 -2 4.66602 -4.33301 3.99902 -7c-0.666992 -1.33301 -1.66699 -2.33301 -3 -3l-4 -2c-2 -0.666992 -5 -1 -9 -1
c-4.66699 -1.33301 -7.66699 -3.66602 -9 -6.99902l-27.5 -77c-9 -26 -16.5 -52.333 -22.5 -79c-5.33301 -21.333 -10.166 -42.166 -14.499 -62.499s-9.16602 -41.166 -14.499 -62.499l-12 -48c-0.666992 -2 -1 -4 -1 -6s-0.333008 -4.33301 -1 -7z" />
    <glyph glyph-name="backslash" unicode="\" horiz-adv-x="208" 
d="M15 377c10.667 0 18.3359 -4.00195 23.0029 -12.002c3.33301 -6 6.16602 -12 8.49902 -18s4.83301 -12 7.5 -18c8 -19.333 14.833 -39 20.5 -59l16.5 -61l24.5 -83.5l25.5 -83.5c1.33301 -5.33301 2.66602 -11 3.99902 -17s2.66602 -11.667 3.99902 -17
c2 -6.66699 -0.666992 -10.667 -8 -12h-10c-4 0.666992 -7 3.33398 -9 8.00098l-6 19.5c-2 6.33301 -4.33301 12.833 -7 19.5l-29 85.5l-29 85.5c-8.66699 24.667 -16.667 49.334 -24 74.001l-23 74v3c-3.33301 9.33301 0 13.333 10 12h1z" />
    <glyph glyph-name="bracketright" unicode="]" horiz-adv-x="123" 
d="M94 362c-2 0.666992 -3.99902 1.00293 -5.99902 1.00293s-3.66699 0.333008 -5 1c-2.66699 0 -5 1 -7 3c-4 2.66699 -3.66699 5.33398 1 8.00098c2 0.666992 4.66699 1 8 1c4.66699 0.666992 9 1 13 1s8 -0.666992 12 -2c12.667 -4.66699 18.667 -13.334 18 -26.001
c-1.33301 -7.33301 -2.5 -14.833 -3.5 -22.5s-2.5 -15.167 -4.5 -22.5c-6 -26 -13 -51.833 -21 -77.5l-24 -77.5l-18.5 -64l-18.5 -64c-4 -12.667 -11.333 -20.334 -22 -23.001c-5.33301 -1.33301 -10.333 -2.33301 -15 -3s-9.66699 -0.666992 -15 0
c-1.33301 0.666992 -2.5 1.16699 -3.5 1.5s-2.16699 0.833008 -3.5 1.5c-5.33301 4 -5 7.66699 1 11c5.33301 2 10.666 2.66699 15.999 2c6 -2 9.33301 0 10 6c2 7.33301 3.83301 14.5 5.5 21.5s3.16699 14.167 4.5 21.5l15.5 57l15.5 57l20 76l21 76
c1.33301 5.33301 2.33301 10.166 3 14.499s1.66699 9.16602 3 14.499v7z" />
    <glyph glyph-name="asciicircum" unicode="^" horiz-adv-x="180" 
d="M142 451c-0.666992 -1.33301 -1.33008 -2.3291 -1.99707 -2.99609s-1.33398 -1.66699 -2.00098 -3c-4 -6 -7.83301 -12.167 -11.5 -18.5s-7.5 -12.5 -11.5 -18.5l-15 -21c-2 -2.66699 -4.83301 -4 -8.5 -4s-6.83398 1 -9.50098 3c-1.33301 1.33301 -2 2.66602 -2 3.99902
c2 4 4.16699 7.66699 6.5 11s4.83301 6.66602 7.5 9.99902c7.33301 13.333 15 26.166 23 38.499s15.667 24.833 23 37.5c0.666992 1.33301 1.16699 2.16602 1.5 2.49902s0.833008 1.16602 1.5 2.49902c3.33301 6 7 8.66699 11 8c7.33301 0 12.666 -2.66699 15.999 -8
c1.33301 -2 2 -4.66699 2 -8c0 -6.66699 -0.333008 -11.667 -1 -15c-1.33301 -10.667 -2.83301 -21.167 -4.5 -31.5s-3.16699 -21.166 -4.5 -32.499c0 -1.33301 -0.166992 -2.83301 -0.5 -4.5s0.166992 -3.5 1.5 -5.5c2 -2 1.33301 -3.66699 -2 -5
c0 -0.666992 -0.333008 -1 -1 -1c-4 -1.33301 -8.33301 0 -13 4s-7 9 -7 15c0 4.66699 0.166992 9.16699 0.5 13.5s0.5 8.83301 0.5 13.5c0.666992 2.66699 1 5.16699 1 7.5s0.333008 4.83301 1 7.5z" />
    <glyph glyph-name="underscore" unicode="_" horiz-adv-x="218" 
d="M147 68c-6 -0.666992 -12 -1.00098 -18 -1.00098s-12 -0.333008 -18 -1c-11.333 -0.666992 -22.333 -1.16699 -33 -1.5s-21.667 -0.5 -33 -0.5c-3.33301 -0.666992 -7 -0.833984 -11 -0.500977s-8 0.833008 -12 1.5c-2.66699 1.33301 -5 2.66602 -7 3.99902
c-5.33301 2.66699 -5 5.33398 1 8.00098c6.66699 2.66699 11.667 4.33398 15 5.00098c15.333 2.66699 32 4 50 4h34.5c11.667 0 23.167 -0.333008 34.5 -1c6 0 11.667 -1 17 -3c4.66699 -1.33301 7 -3.66602 7 -6.99902c0 -4 -2.66699 -6 -8 -6
c-3.33301 -0.666992 -6.5 -1 -9.5 -1h-9.5z" />
    <glyph glyph-name="grave" unicode="`" horiz-adv-x="130" 
d="M71 465c8 0 14 -3.66504 18 -10.998c2.66699 -4.66699 4.33398 -9.33398 5.00098 -14.001c2.66699 -6 5.16699 -12.167 7.5 -18.5s4.83301 -12.5 7.5 -18.5c2.66699 -5.33301 5 -9.33301 7 -12c2 -2 2.33301 -4 1 -6c0 -1.33301 -1.66699 -2 -5 -2
c-6 1.33301 -11 4.66602 -15 9.99902c-3.33301 2.66699 -5.33301 5.66699 -6 9c-4.66699 9.33301 -8.83398 18.333 -12.501 27s-7.16699 17.667 -10.5 27c-2 6 -1 9 3 9z" />
    <glyph glyph-name="a" unicode="a" horiz-adv-x="128" 
d="M137 157c1.33301 -1.33301 1.99805 -3.99707 1.99805 -7.99707c0 -4.66699 -1.5 -9.33398 -4.5 -14.001s-5.5 -9 -7.5 -13l-9.5 -13.5l-9.5 -13.5c-6 -8.66699 -14 -18 -24 -28c-3.33301 -2.66699 -6.66602 -5 -9.99902 -7s-6.66602 -3.66699 -9.99902 -5
c-8.66699 -2 -15.667 0.333008 -21 7c-2.66699 2.66699 -4 6.33398 -4 11.001c-1.33301 8 -1.33301 15.667 0 23l2 13l-3 -3c-2 -3.33301 -4 -6.5 -6 -9.5s-4 -5.83301 -6 -8.5c-5.33301 -6.66699 -11.333 -10 -18 -10c-8.66699 -1.33301 -16.334 1 -23.001 7
c-3.33301 3.33301 -5.66602 8.33301 -6.99902 15c0 5.33301 0.333008 10.166 1 14.499s1.66699 8.83301 3 13.5c0.666992 0.666992 3.66699 7.16699 9 19.5s13.666 23.166 24.999 32.499c1.33301 1.33301 2.5 2.16602 3.5 2.49902s2.16699 1.16602 3.5 2.49902
c11.333 6 22.333 6.33301 33 1c5.33301 -2.66699 8.66602 -5.66699 9.99902 -9c0.666992 -2 2 -3 4 -3c1.33301 0 2.33301 -0.166992 3 -0.5s1.33398 -0.5 2.00098 -0.5c5.33301 -2.66699 8 -7.33398 8 -14.001l-3 -12c-2 -9.33301 -4.16699 -18.666 -6.5 -27.999
s-4.83301 -18.666 -7.5 -27.999c-0.666992 -2.66699 -1 -5.16699 -1 -7.5s-0.333008 -4.83301 -1 -7.5c1.33301 0.666992 3 2 5 4c4.66699 4 9.5 9.16699 14.5 15.5s9.5 12.333 13.5 18l10.5 15c3 4.33301 4.83301 6.83301 5.5 7.5l8 13.5l7 11.5h2
c0.666992 0 2.33398 -0.666992 5.00098 -2v-1h1zM53.998 163.003l2.00195 4.00195c-1.33301 1.33301 -3 2.66602 -5 3.99902s-3.66699 2.66602 -5 3.99902c-5.33301 -2.66699 -10.333 -7 -15 -13c-11.333 -15.333 -19.666 -33.666 -24.999 -54.999
c0 -4.66699 -0.333008 -8.33398 -1 -11.001c1.33301 0.666992 2.33301 1 3 1c1.33301 1.33301 2.66602 2.33301 3.99902 3c4.66699 4 8.66699 8.5 12 13.5l10 15.5c3.33301 5.33301 6.66602 11 9.99902 17s6.66602 11.667 9.99902 17z" />
    <glyph glyph-name="b" unicode="b" horiz-adv-x="146" 
d="M147 161c1.33301 0 2.66797 -0.333984 4.00098 -1.00098c2.66699 -1.33301 4 -4.66602 4 -9.99902c0 -3.33301 -1 -6 -3 -8c-2.66699 -2.66699 -6 -5 -10 -7h-1c-8 -3.33301 -15.333 -5.83301 -22 -7.5s-12.667 -2.83398 -18 -3.50098
c-3.33301 -0.666992 -6.33301 -1.16699 -9 -1.5s-5.33398 -0.166016 -8.00098 0.500977h-3c0 -1.33301 0.166992 -2.33301 0.5 -3s0.5 -1.66699 0.5 -3v-3v-2c-0.666992 -5.33301 -1.16699 -11 -1.5 -17s-1.5 -11.667 -3.5 -17c-1.33301 -2.66699 -2.5 -5.16699 -3.5 -7.5
s-2.16699 -4.83301 -3.5 -7.5c-5.33301 -9.33301 -12.333 -14.333 -21 -15c-12.667 -2 -22.834 -0.666992 -30.501 4s-13.5 11.334 -17.5 20.001c0 0.666992 -0.333008 1.33398 -1 2.00098c0 1.33301 -0.333008 2 -1 2v1v1v1c-0.666992 0 -1 0.333008 -1 1v1v1
c-3.33301 10.667 -4.83301 21.834 -4.5 33.501s1.16602 20.5 2.49902 26.5c2 15.333 4.83301 30.666 8.5 45.999s7.83398 30.666 12.501 45.999c7.33301 24 15.5 47.667 24.5 71s19.167 46.333 30.5 69c2.66699 5.33301 5.33398 10.333 8.00098 15l9 15
c2 3.33301 5.83301 8.16602 11.5 14.499s11.834 8.83301 18.501 7.5h2c6.66699 -2 10.667 -7.66699 12 -17c0.666992 -14 -1 -29 -5 -45c-8.66699 -34 -19.834 -66.5 -33.501 -97.5s-29.167 -61.5 -46.5 -91.5c0 -0.666992 -0.666992 -2.33398 -2 -5.00098h10
c6.66699 0 12 -3 16 -9c0 -1.33301 0.666992 -2.66602 2 -3.99902c0.666992 -2.66699 1.33398 -5 2.00098 -7s1.33398 -4.33301 2.00098 -7c6.66699 -0.666992 15 0.333008 25 3c1.33301 0 2.16602 0.166992 2.49902 0.5s1.16602 0.5 2.49902 0.5
c4 1.33301 8 2.83301 12 4.5s8.33301 3.16699 13 4.5zM109.002 383.999c-24.667 -53.333 -44.998 -109.667 -60.998 -169c6 8 12.5 19.833 19.5 35.5s13.667 32.334 20 50.001s11.666 34.167 15.999 49.5s6.16602 26.666 5.49902 33.999zM50.0039 75.998
c4 9.33301 6.33496 18.334 7.00195 27.001s0.666992 17.667 0 27c-8 4.66699 -13.667 10 -17 16c-2.66699 2.66699 -4.33398 5.66699 -5.00098 9c0 -0.666992 -0.666992 -2.33398 -2 -5.00098l-3 -27c-0.666992 -7.33301 -0.833984 -14.5 -0.500977 -21.5
s1.5 -13.833 3.5 -20.5l3.5 -9c1 -2.66699 3.16699 -5 6.5 -7c1.33301 2 2.5 3.83301 3.5 5.5s2.16699 3.5 3.5 5.5z" />
    <glyph glyph-name="c" unicode="c" horiz-adv-x="109" 
d="M125 150c0 -4.66699 -1.33008 -8.99609 -3.99707 -12.9961s-5 -8 -7 -12c-3.33301 -4 -6.33301 -8.16699 -9 -12.5s-5.66699 -8.5 -9 -12.5c-2 -3.33301 -4.33301 -6.33301 -7 -9s-5.33398 -5.66699 -8.00098 -9l-2 -1c-4 -4.66699 -8.66699 -8.66699 -14 -12
c-9.33301 -6.66699 -20.5 -12.834 -33.5 -18.501s-25.5 -5.83398 -37.5 -0.500977c-0.666992 0.666992 -1.16699 1 -1.5 1s-0.833008 0.333008 -1.5 1c-6 3.33301 -10 7.66602 -12 12.999l-3 15c-0.666992 9.33301 0.166016 18.666 2.49902 27.999
s3.83301 14.666 4.5 15.999c2.66699 7.33301 5.5 14.666 8.5 21.999s7.16699 14.666 12.5 21.999c3.33301 5.33301 7.33301 10 12 14c5.33301 5.33301 13.333 8 24 8c12.667 -1.33301 20.667 -5.66602 24 -12.999c6 -10 7 -20.333 3 -31c-2 -3.33301 -5 -5 -9 -5
c-6.66699 -1.33301 -11.667 -0.666016 -15 2.00098c-1.33301 1.33301 -1.83301 2.5 -1.5 3.5s0.5 2.16699 0.5 3.5c2.66699 7.33301 3 13.666 1 18.999c-1.33301 2.66699 -2.33301 5 -3 7c-1.33301 -2.66699 -3.33301 -5.33398 -6 -8.00098
c-5.33301 -8 -9.5 -16.167 -12.5 -24.5s-5.83301 -17.166 -8.5 -26.499c-2 -7.33301 -3.5 -14.666 -4.5 -21.999s-0.833008 -14.666 0.5 -21.999l2 -6c0.666992 -2 1.66699 -4.33301 3 -7l1 1c0.666992 0 2.33398 0.666992 5.00098 2h2
c5.33301 2.66699 12.666 7.16699 21.999 13.5s19.333 15.166 30 26.499c5.33301 6.66699 10.166 13.5 14.499 20.5s8.5 14.167 12.5 21.5l8 14c0.666992 0.666992 1.66699 1.33398 3 2.00098c1.33301 0 2.83301 -0.166992 4.5 -0.5s3.5 -1.5 5.5 -3.5s3 -4.33301 3 -7z" />
    <glyph glyph-name="d" unicode="d" horiz-adv-x="186" 
d="M202 155c0.666992 -0.666992 0.99707 -1.66699 0.99707 -3c-0.666992 -0.666992 -2.66699 -5.33398 -6 -14.001l-6 -11.5l-6 -10.5c-6 -10.667 -12.333 -21.167 -19 -31.5s-14.334 -20.166 -23.001 -29.499l-10.5 -10.5
c-3.66699 -3.66699 -7.83398 -5.83398 -12.501 -6.50098c-5.33301 -1.33301 -9.66602 -0.333008 -12.999 3c-6.66699 5.33301 -10.834 14.166 -12.501 26.499s-2.5 23.5 -2.5 33.5v16c0 2.66699 0.333008 5.33398 1 8.00098l1 19c-1.33301 -4 -2.33301 -6.66699 -3 -8
c-5.33301 -12 -10.833 -23.5 -16.5 -34.5s-12.167 -21.167 -19.5 -30.5c-2 -2.66699 -4.16699 -5.16699 -6.5 -7.5l-6.5 -6.5c-9.33301 -6 -19.333 -8 -30 -6s-18.167 7 -22.5 15s-7 16.333 -8 25s-0.833008 17 0.5 25s2.33301 13 3 15c1.33301 3.33301 2.33301 6 3 8
s1 3.33301 1 4c4.66699 11.333 10.5 19.666 17.5 24.999s14.333 8.5 22 9.5s15.5 0.166992 23.5 -2.5s15.333 -6.33398 22 -11.001c0.666992 -0.666992 1.33398 -1 2.00098 -1s1.33398 -0.666992 2.00098 -2c6.66699 10.667 14.334 26.834 23.001 48.501
s16.667 43.167 24 64.5c8.66699 25.333 17.334 52.333 26.001 81c4.66699 4 10.667 4 18 0c6.66699 -3.33301 9 -8.66602 7 -15.999c-1.33301 -6.66699 -2.66602 -11.667 -3.99902 -15c-0.666992 -2.66699 -2.66699 -9.66699 -6 -21s-7 -24.5 -11 -39.5l-12.5 -47
l-11.5 -42.5c-3.33301 -14.667 -6.33301 -29 -9 -43c-2 -12 -3.33301 -24.5 -4 -37.5s0 -24.167 2 -33.5l19 25l18 26c6.66699 10 13 20 19 30l3.5 7c1 2 2.16699 3.66699 3.5 5c1.33301 2 2.33301 3.33301 3 4c0 0.666992 0.333008 1.33398 1 2.00098l1 1
c0.666992 0.666992 2 1 4 1c1.33301 0 2 -0.333008 2 -1c2 0 3.66699 -0.666992 5 -2c2 -1.33301 3 -2.33301 3 -3zM12.9971 70c7.33301 0 16.167 6.83203 26.5 20.499s19.833 29.834 28.5 48.501c-2 4 -4.33301 7 -7 9c-6.66699 9.33301 -14.667 12 -24 8
c-6 -4 -10.667 -9.66699 -14 -17c-3.33301 -6 -5.83301 -12 -7.5 -18s-3.16699 -12.667 -4.5 -20v-1c0 -2 -0.166992 -6.5 -0.5 -13.5s0.5 -12.5 2.5 -16.5z" />
    <glyph glyph-name="e" unicode="e" horiz-adv-x="105" 
d="M116 157c1.33301 -2.66699 1.33594 -6.67285 0.00292969 -12.0059c-2.66699 -5.33301 -4.66699 -9 -6 -11l-4.5 -6.5l-4.5 -6.5c-2 -3.33301 -4 -6.16602 -6 -8.49902s-4 -4.83301 -6 -7.5c-1.33301 -2 -3.66602 -4.66699 -6.99902 -8
c-1.33301 -1.33301 -2.33301 -2.66602 -3 -3.99902l-1 -1l-2 -2l-12 -12c-3.33301 -3.33301 -7.33301 -7 -12 -11s-9.66699 -7.33301 -15 -10h-1c-5.33301 -3.33301 -11 -5 -17 -5c-0.666992 0 -1.33398 -0.166992 -2.00098 -0.5s-1.33398 -0.5 -2.00098 -0.5v1h-1
c-12.667 0 -22.334 5.33301 -29.001 16c-3.33301 7.33301 -5 15.333 -5 24v18c3.33301 20 10 37.333 20 52c10.667 16.667 25 26 43 28c3.33301 1.33301 6.66602 1.33301 9.99902 0c6.66699 -2 10.334 -5.16699 11.001 -9.5s0.666992 -8.16602 0 -11.499
c-3.33301 -9.33301 -7.33301 -18 -12 -26s-11 -14.667 -19 -20c-3.33301 -2 -6.33301 -3.66699 -9 -5s-5.66699 -2.66602 -9 -3.99902c-1.33301 -5.33301 -2.5 -11 -3.5 -17s-0.833008 -11.667 0.5 -17c0.666992 -1.33301 1 -2.33301 1 -3s0.333008 -1.66699 1 -3
c3.33301 -7.33301 9.16602 -8.16602 17.499 -2.49902s17 13.334 26 23.001s17 19.334 24 29.001s10.833 15.167 11.5 16.5s1.16699 2.16602 1.5 2.49902s0.833008 1.16602 1.5 2.49902l9 14c0.666992 0.666992 1.66699 1.33398 3 2.00098c3.33301 0 6 -1.33301 8 -4z
M40.0029 165.994c-3.33301 -3.33301 -7 -8.5 -11 -15.5s-6.66699 -13.167 -8 -18.5c5.33301 3.33301 9.83301 8.33301 13.5 15s5.5 13 5.5 19z" />
    <glyph glyph-name="f" unicode="f" horiz-adv-x="113" 
d="M125 154c1.33301 -3.33301 1.49902 -6.32812 0.499023 -8.99512s-2.5 -5.33398 -4.5 -8.00098c-2.66699 -2.66699 -5.66699 -5.33398 -9 -8.00098c-9.33301 -9.33301 -20 -18.333 -32 -27c-5.33301 -4 -10.666 -7.66699 -15.999 -11
c-4.66699 -3.33301 -10 -6.16602 -16 -8.49902s-12 -4.16602 -18 -5.49902c1.33301 -3.33301 2.33301 -6.33301 3 -9s1.33398 -5 2.00098 -7c0.666992 -1.33301 1 -2.5 1 -3.5s0.333008 -2.16699 1 -3.5v-1c1.33301 -3.33301 2.33301 -6.5 3 -9.5s1.66699 -6.16699 3 -9.5
c9.33301 -34.667 11 -69.667 5 -105c-4.66699 -32.667 -15.667 -64 -33 -94c-4.66699 -8 -9.66699 -14.667 -15 -20c-9.33301 -11.333 -21.666 -17 -36.999 -17c-8.66699 0 -14.667 4.33301 -18 13c-2 5.33301 -3.33301 10.666 -4 15.999s-1 10.666 -1 15.999
c1.33301 13.333 2.5 26.666 3.5 39.999s2.16699 26.666 3.5 39.999c2.66699 21.333 5.66699 42.333 9 63s7.66602 41.667 12.999 63c1.33301 6 3.5 14.167 6.5 24.5l9 32.5l8 31c2.33301 9.33301 4.16602 16 5.49902 20l30 107c10 35.333 20.667 71 32 107
c1.33301 1.33301 2.83301 3.5 4.5 6.5s4.16699 4.16699 7.5 3.5c4.66699 -0.666992 9.33398 -2.33398 14.001 -5.00098s6.33398 -7 5.00098 -13l-25 -90l-25 -91c-3.33301 -14 -7 -28 -11 -42l-12 -42l-3 -10c1.33301 0.666992 3.33301 1.33398 6 2.00098
c3.33301 0.666992 7.66602 2.66699 12.999 6l8 4c2.66699 1.33301 5 2.66602 7 3.99902c2.66699 1.33301 5 2.66602 7 3.99902c17.333 12.667 32.666 26.334 45.999 41.001l11 11c1.33301 0.666992 2.66602 1 3.99902 1c2.66699 0 5.33398 -2.33301 8.00098 -7z
M-3.00098 -151.995c20.667 39.333 31 79.0029 31 119.003c0 17.333 -1.66699 33.666 -5 48.999s-8 30.666 -14 45.999c0 -0.666992 -0.166992 -1.33398 -0.5 -2.00098s-0.5 -1.66699 -0.5 -3c-6 -24.667 -11.333 -49.167 -16 -73.5s-8.66699 -49.166 -12 -74.499
c-1.33301 -11.333 -2.33301 -22.5 -3 -33.5l-2 -33.5c-0.666992 -6.66699 0 -14.334 2 -23.001c1.33301 1.33301 2.5 2.33301 3.5 3s1.83301 1.66699 2.5 3l7.5 11.5c2.33301 3.66699 4.5 7.5 6.5 11.5z" />
    <glyph glyph-name="g" unicode="g" horiz-adv-x="152" 
d="M167 149c-0.666992 -5.33301 -2.50195 -10.1689 -5.50195 -14.502l-8.5 -12.5l-10 -13.5l-10 -13.5c-2 -2.66699 -4 -5 -6 -7l-6 -6c-2 -2.66699 -5 -6 -9 -10l-5 -4l-12 -13l-9 -9c-4 -3.33301 -7.66699 -7 -11 -11c-2.66699 -2 -4.66699 -5.33301 -6 -10
c-4.66699 -18 -9.66699 -36 -15 -54s-11.666 -35.667 -18.999 -53c-10 -28.667 -24.333 -54.667 -43 -78l-18 -21c-10.667 -10.667 -23.334 -17.334 -38.001 -20.001c-8.66699 -1.33301 -15.667 -0.166016 -21 3.50098s-7.66602 10.167 -6.99902 19.5
c0.666992 11.333 4.33398 23.333 11.001 36c6.66699 15.333 14.334 29.833 23.001 43.5s17.667 27.167 27 40.5c9.33301 12.667 19 25 29 37s20.667 23.667 32 35c3.33301 3.33301 5.66602 7.66602 6.99902 12.999c2.66699 11.333 5 22.333 7 33s4.33301 21.667 7 33
c0.666992 1.33301 1 3.33301 1 6c-3.33301 -3.33301 -5.33301 -5.66602 -6 -6.99902l-17 -19.5c-5.33301 -6.33301 -11 -12.5 -17 -18.5c-7.33301 -8.66699 -17 -12.334 -29 -11.001c-10 0 -16 5.33301 -18 16c0 6.66699 0.333008 11.667 1 15
c0.666992 7.33301 2 14.833 4 22.5s4.33301 14.5 7 20.5c2.66699 7.33301 5.66699 14.333 9 21c7.33301 14.667 15.666 27.667 24.999 39c8 10 16.667 16 26 18c7.33301 1.33301 13.833 0.833008 19.5 -1.5s8.83398 -8.16602 9.50098 -17.499
c1.33301 -10.667 0 -20.667 -4 -30c-4 -10 -11 -14.667 -21 -14c-5.33301 0.666992 -7 4 -5 10c1.33301 4 2.16602 8 2.49902 12s0.833008 8.33301 1.5 13c0.666992 1.33301 0.833984 2.5 0.500977 3.5s-0.5 2.16699 -0.5 3.5c-4 -3.33301 -8.5 -9.66602 -13.5 -18.999
s-9.83301 -19.666 -14.5 -30.999s-8.5 -22.5 -11.5 -33.5s-4.16699 -19.833 -3.5 -26.5l4.5 4.5l4.5 4.5l16.5 18.5c5.66699 6.33301 11.167 12.833 16.5 19.5l8 10l8 10c3.33301 4.66699 7.83301 7.16699 13.5 7.5s10.167 -0.166992 13.5 -1.5c3.33301 -2 5 -5.33301 5 -10
c-0.666992 -5.33301 -1.16699 -10.5 -1.5 -15.5s-1.16602 -10.167 -2.49902 -15.5c-0.666992 -9.33301 -2.66699 -20.666 -6 -33.999c2 2 6 6.33301 12 13s11.667 12.667 17 18l12 14c1.33301 1.33301 3 3.33301 5 6l4.5 6.5c1.66699 2.33301 3.16699 4.83301 4.5 7.5
c0.666992 0 1 0.333008 1 1c1.33301 2.66699 3 5.16699 5 7.5s3.66699 5.16602 5 8.49902l9 14c1.33301 1.33301 2.66602 2.33301 3.99902 3c2 1.33301 5 0 9 -4c2 -3.33301 2.66699 -6 2 -8zM20.998 -32.0029c0.666992 1.33301 1.16797 2.99902 1.50098 4.99902
s1.16602 4.66699 2.49902 8l-4 -4c-13.333 -16.667 -25.833 -33.667 -37.5 -51s-22.167 -35.666 -31.5 -54.999c-4.66699 -10 -8.66699 -21.333 -12 -34c-2 -8 -1 -15 3 -21c2 2.66699 4 5 6 7l6 6c5.33301 6 10 12 14 18s8 12.333 12 19c9.33301 16.667 17 33.5 23 50.5
s11.667 34.167 17 51.5z" />
    <glyph glyph-name="h" unicode="h" 
d="M200 157c1.33301 -2 2.00098 -4.66016 2.00098 -7.99316c0 -5.33301 -1.5 -10.166 -4.5 -14.499s-5.5 -8.5 -7.5 -12.5l-9.5 -13.5l-9.5 -13.5c-3.33301 -5.33301 -7 -10.333 -11 -15s-8.33301 -9 -13 -13c-2.66699 -2.66699 -4.66699 -4.33398 -6 -5.00098
c-4 -2.66699 -7 -4.33398 -9 -5.00098c-6.66699 -3.33301 -13.834 -4.83301 -21.501 -4.5s-13.834 4.16602 -18.501 11.499c-3.33301 5.33301 -5.5 11.333 -6.5 18s-1.16699 13 -0.5 19c0.666992 3.33301 1.16699 6.66602 1.5 9.99902s0.5 6.66602 0.5 9.99902
c0.666992 4 1.16699 7.83301 1.5 11.5s0.833008 8.16699 1.5 13.5l-6 -4c-4 -4.66699 -8 -9 -12 -13s-7.66699 -8.33301 -11 -13c-6.66699 -8.66699 -13 -17.334 -19 -26.001l-18 -27c-1.33301 -2 -3 -4.33301 -5 -7s-4 -5 -6 -7c-7.33301 -8 -16.666 -11 -27.999 -9
c-6 0.666992 -9 4.33398 -9 11.001c0.666992 3.33301 1 6.33301 1 9s0.333008 5.66699 1 9c0.666992 2 1.16699 4.16699 1.5 6.5s0.833008 4.5 1.5 6.5l8 36c3.33301 15.333 7 31 11 47s7.66699 32 11 48c6 24.667 12.667 49 20 73l23 73
c1.33301 2.66699 2.16602 5 2.49902 7s1.16602 4.33301 2.49902 7v1c0.666992 1.33301 2 3.16602 4 5.49902s6.33301 2.83301 13 1.5c7.33301 -1.33301 11.333 -4 12 -8s0.666992 -7 0 -9l-13.5 -45.5l-13.5 -45.5c-4.66699 -16 -9 -32 -13 -48l-12 -49l-9.5 -39.5
l-9.5 -39.5c0 -0.666992 -0.333008 -2 -1 -4c1.33301 1.33301 2.5 2.66602 3.5 3.99902s2.16699 2.66602 3.5 3.99902c9.33301 14 21 28 35 42l13.5 11.5c4.33301 3.66699 9.5 6.16699 15.5 7.5c2.66699 1.33301 5.16699 2 7.5 2s4.83301 0.333008 7.5 1
c12 0 18 -5.66699 18 -17c0.666992 -4 0.833984 -8 0.500977 -12s-0.833008 -8 -1.5 -12l-2 -18c-0.666992 -6 -1 -12 -1 -18c0 -6.66699 0.333008 -11.667 1 -15c5.33301 1.33301 10.333 4 15 8s8.33398 7.33301 11.001 10c1.33301 2 3 4 5 6
c6.66699 7.33301 12.167 14.833 16.5 22.5l14.5 24.5l8 14c0.666992 1.33301 1.66699 2.33301 3 3c2.66699 1.33301 6 0 10 -4z" />
    <glyph glyph-name="i" unicode="i" horiz-adv-x="105" 
d="M32 229c-7.33301 0.666992 -9.66504 5.00098 -6.99805 13.001c1.33301 3.33301 3.66602 5.66602 6.99902 6.99902s6.66602 1.33301 9.99902 0c2 -1.33301 3.66699 -3.5 5 -6.5s1.33301 -5.5 0 -7.5c-1.33301 -2.66699 -3 -4 -5 -4c-2 -1.33301 -5.33301 -2 -10 -2z
M117.001 157.001c2.66699 -4 2.33789 -8.99609 -0.995117 -14.9961c-2 -2.66699 -4 -5.66699 -6 -9c-4 -6.66699 -8.5 -13 -13.5 -19l-15.5 -18c-4.66699 -5.33301 -9.83398 -9.83301 -15.501 -13.5s-11.5 -7.16699 -17.5 -10.5c-5.33301 -2 -11.333 -3.5 -18 -4.5
s-13.334 0.5 -20.001 4.5c-11.333 7.33301 -18 18.333 -20 33v4v2v6c0 9.33301 1 17.666 3 24.999s4.33301 13.666 7 18.999c2.66699 6.66699 5.66699 12.667 9 18c1.33301 0.666992 2.16602 1.16699 2.49902 1.5s1.16602 0.833008 2.49902 1.5
c4.66699 3.33301 9.66699 4 15 2c4.66699 -2 6.33398 -6 5.00098 -12c0 -4.66699 -1 -9 -3 -13l-4 -16l-4 -16c-2 -8 -2.33301 -17.333 -1 -28c0 -3.33301 0.333008 -6 1 -8c0.666992 -1.33301 1 -2.33301 1 -3s0.333008 -1.33398 1 -2.00098
c2 -4.66699 5.66699 -6.33398 11 -5.00098c2.66699 0.666992 5 1.66699 7 3c6.66699 4 13 9 19 15s9.33301 9.66699 10 11c9.33301 11.333 17.666 23.666 24.999 36.999l8 12c0.666992 0.666992 1.66699 1.33398 3 2.00098c1.33301 0 2.66602 -0.166992 3.99902 -0.5
s3 -1.5 5 -3.5z" />
    <glyph glyph-name="j" unicode="j" horiz-adv-x="95" 
d="M31 234c-8 -1.33301 -13.668 2 -17.001 10c8 6.66699 15 7 21 1c2.66699 -1.33301 3.33398 -3.33301 2.00098 -6c0 -3.33301 -2 -5 -6 -5zM107.999 157c2 -3.33301 2.99902 -6.00195 2.99902 -8.00195c-0.666992 -5.33301 -2.33398 -10.166 -5.00098 -14.499l-8 -12.5
c-1.33301 -2.66699 -2.66602 -4.66699 -3.99902 -6c0 -0.666992 -1.5 -3 -4.5 -7l-11.5 -15l-15.5 -19c-5.66699 -6.66699 -11.5 -13 -17.5 -19l-18 -19.5c-6.66699 -7 -13.667 -13.833 -21 -20.5l-1 -6c-2.66699 -11.333 -5 -22.666 -7 -33.999
s-4.33301 -22.666 -7 -33.999l-12 -54.5c-4 -18.333 -9.66699 -36.166 -17 -53.499c-2.66699 -6.66699 -5.5 -13 -8.5 -19s-6.83301 -11.667 -11.5 -17c-9.33301 -14.667 -22 -24 -38 -28c-13.333 -3.33301 -25 -2 -35 4s-16.333 15.333 -19 28
c-1.33301 7.33301 -1.66602 14.833 -0.999023 22.5s2 15.167 4 22.5c8.66699 34.667 26 67 52 97c8 9.33301 16.167 18.166 24.5 26.499l25.5 25.5c11.333 11.333 18.333 23.666 21 36.999c1.33301 13.333 3.33301 26.333 6 39l8 39l1 1v1v1l4 20
c1.33301 6 2.33301 11.833 3 17.5s1.66699 11.167 3 16.5c0.666992 2 1 4 1 6s0.333008 3.66699 1 5c0.666992 3.33301 3.66699 5.66602 9 6.99902c6 0 11 -1.83301 15 -5.5s5.66699 -8.83398 5 -15.501c-2 -13.333 -4.16699 -26.666 -6.5 -39.999
s-4.5 -26.666 -6.5 -39.999c-0.666992 -2 -1 -4.16699 -1 -6.5s-0.333008 -4.83301 -1 -7.5l-3 -17l17 17.5l15 15.5c6 6.66699 11.333 13.334 16 20.001l12 16.5c4 5.66699 7.33301 10.834 10 15.501c0.666992 1.33301 1.16699 2.16602 1.5 2.49902
s0.833008 1.16602 1.5 2.49902l8 14c0.666992 1.33301 1.66699 2.33301 3 3c2.66699 1.33301 6 0 10 -4zM-42.002 -48.002c0.666992 2.66699 1.16699 5.33203 1.5 7.99902s0.833008 5.33398 1.5 8.00098l-1 1c-3.33301 -4 -6.83301 -7.83301 -10.5 -11.5
s-7.16699 -7.5 -10.5 -11.5c-8.66699 -9.33301 -16.5 -19 -23.5 -29s-13.167 -20.667 -18.5 -32s-9.66602 -22.833 -12.999 -34.5s-5 -23.5 -5 -35.5c0.666992 -5.33301 1.5 -10.5 2.5 -15.5s3.5 -9.5 7.5 -13.5c5.33301 2 9.66602 4.83301 12.999 8.5s6.33301 7.5 9 11.5
c8.66699 12.667 15 26 19 40c6.66699 17.333 12 35 16 53z" />
    <glyph glyph-name="k" unicode="k" horiz-adv-x="183" 
d="M196 157c2 -2.66699 2.66016 -5.33203 1.99316 -7.99902c0 -4.66699 -1.33301 -9.33398 -4 -14.001s-5.33398 -9 -8.00098 -13l-9.5 -13.5l-9.5 -13.5c-3.33301 -5.33301 -7 -10.333 -11 -15s-8.33301 -9 -13 -13c-2.66699 -2.66699 -4.66699 -4.33398 -6 -5.00098
c-1.33301 -1.33301 -2.66602 -2.33301 -3.99902 -3l-4 -2c-10.667 -4.66699 -20 -5.66699 -28 -3c-4 0.666992 -8.33301 3 -13 7l-14.5 13c-5 4.66699 -9.5 9.5 -13.5 14.5l-10 12.5l-1 -1l-12 -22l-12 -22c-2.66699 -4 -4.33398 -7 -5.00098 -9
c-2.66699 -3.33301 -5.16699 -5.66602 -7.5 -6.99902s-5.5 -1.33301 -9.5 0c-2.66699 1.33301 -5.16699 2.66602 -7.5 3.99902s-4.83301 2.66602 -7.5 3.99902c-5.33301 4 -7.33301 9.66699 -6 17c0.666992 3.33301 1 6.5 1 9.5s0.333008 6.16699 1 9.5
c0 0.666992 0.166992 1 0.5 1s0.5 0.333008 0.5 1l12 62c2.66699 13.333 5.5 26.5 8.5 39.5l9.5 39.5c6 23.333 12.333 46.333 19 69l20 69c0.666992 1.33301 1 2.33301 1 3s0.333008 1.33398 1 2.00098c0 1.33301 0.333008 2 1 2
c0.666992 1.33301 1.83398 3.33301 3.50098 6s4.16699 3.66699 7.5 3c5.33301 0 10.5 -1.16699 15.5 -3.5s6.83301 -5.83301 5.5 -10.5v-1c-1.33301 -4 -2.33301 -7.33301 -3 -10l-19.5 -75.5l-19.5 -75.5c-3.33301 -13.333 -6.33301 -26.333 -9 -39
s-5.66699 -25.667 -9 -39c0 -1.33301 -0.166992 -2.16602 -0.5 -2.49902s-0.166016 -1.16602 0.500977 -2.49902c2.66699 2.66699 4.33398 5 5.00098 7l20.5 27.5c7 9 14.5 17.5 22.5 25.5c9.33301 9.33301 18 16.666 26 21.999c10 8 20 8 30 0c6 -6 7.66699 -12 5 -18
c-1.33301 -3.33301 -2.66602 -6.5 -3.99902 -9.5s-2.66602 -6.16699 -3.99902 -9.5c-5.33301 -8.66699 -11.666 -16.5 -18.999 -23.5s-15 -13.5 -23 -19.5c-5.33301 -4 -9 -7 -11 -9c-3.33301 -2.66699 -4 -5 -2 -7c6 -8 12 -15 18 -21l11 -9.5
c3.33301 -3 6.33301 -4.5 9 -4.5c5.33301 1.33301 10.333 4 15 8s8.33398 7.33301 11.001 10c1.33301 2 3 4 5 6c6.66699 7.33301 12.334 15 17.001 23l14 24l8 14c0.666992 1.33301 1.66699 2.33301 3 3c2.66699 1.33301 6 0 10 -4zM103.993 179.002
c-0.666992 0 -2.66699 -1.66602 -6 -4.99902l-11 -11c-4.66699 -4.66699 -10 -10.334 -16 -17.001c0.666992 0 3 1.66699 7 5s8 7 12 11s7.5 7.66699 10.5 11s4.16699 5.33301 3.5 6z" />
    <glyph glyph-name="l" unicode="l" horiz-adv-x="103" 
d="M117 156c2 -2 2.99707 -4.99805 2.99707 -8.99805c-0.666992 -5.33301 -2.5 -10.333 -5.5 -15s-5.83301 -9.33398 -8.5 -14.001l-9.5 -15.5l-9.5 -15.5l-12 -15.5c-4 -5 -8.33301 -9.83301 -13 -14.5c-1.33301 -1.33301 -2.5 -2.33301 -3.5 -3s-2.16699 -1.66699 -3.5 -3
l-9 -6c-5.33301 -2.66699 -10 -4 -14 -4h-4h-4h-1c-1.33301 0 -4 0.666992 -8 2c-0.666992 0 -1 0.166992 -1 0.5s-0.333008 0.5 -1 0.5c-5.33301 2.66699 -9.33301 6.5 -12 11.5s-4.66699 10.333 -6 16s-2.16602 11.167 -2.49902 16.5s-0.5 10 -0.5 14
c0 4.66699 0.333008 10 1 16s1.33398 11.667 2.00098 17s1.33398 9.83301 2.00098 13.5l1 5.5c3.33301 23.333 7.66602 46.166 12.999 68.499s11.666 44.833 18.999 67.5l27 84c0 0.666992 0.333008 1.33398 1 2.00098c0.666992 1.33301 2 2.83301 4 4.5
s6 1.83398 12 0.500977c7.33301 -1.33301 12 -3.5 14 -6.5s2.66699 -5.5 2 -7.5l-15.5 -57l-15.5 -57c-7.33301 -24.667 -13.166 -49.334 -17.499 -74.001s-8.16602 -49.667 -11.499 -75c0 -6.66699 -0.333008 -11.667 -1 -15v-13
c0 -3.33301 0.833008 -6.16602 2.5 -8.49902s5.5 -1.5 11.5 2.5c3.33301 2.66699 6.16602 5.16699 8.49902 7.5l5.5 5.5c1.33301 1.33301 2.5 2.66602 3.5 3.99902s1.83301 2.33301 2.5 3c6.66699 8 12.334 16.333 17.001 25l15 27l8 16c0.666992 1.33301 2 2.33301 4 3
c2.66699 1.33301 6 -0.333984 10 -5.00098z" />
    <glyph glyph-name="m" unicode="m" horiz-adv-x="237" 
d="M250 157c2 -3.33301 3.00098 -5.99414 3.00098 -7.99414c-0.666992 -5.33301 -2.5 -10.166 -5.5 -14.499l-8.5 -12.5l-9.5 -13.5l-9.5 -13.5c-3.33301 -5.33301 -7 -10.333 -11 -15s-8.33301 -9 -13 -13c-1.33301 -1.33301 -2.5 -2.33301 -3.5 -3
s-2.16699 -1.33398 -3.5 -2.00098c-4 -2.66699 -6.66699 -4.33398 -8 -5.00098c-3.33301 -1.33301 -6.33301 -2.33301 -9 -3l-8 -2c-7.33301 0.666992 -12.5 3 -15.5 7s-5 8.5 -6 13.5s-1.16699 9.66699 -0.5 14s1 7.16602 1 8.49902l4 17.5l4 17.5
c0.666992 1.33301 1.33398 3.83301 2.00098 7.5s1 6.16699 1 7.5v1c-2.66699 -2.66699 -4.66699 -5 -6 -7c-10 -12.667 -18.833 -25.834 -26.5 -39.501s-14.167 -27.834 -19.5 -42.501c-1.33301 -4 -2.83301 -7.83301 -4.5 -11.5s-3.16699 -7.16699 -4.5 -10.5
c-4.66699 -10 -12 -15 -22 -15h-3c-2 0 -3.33301 0.333008 -4 1c-3.33301 1.33301 -5.66602 4.16602 -6.99902 8.49902s-2.33301 7.5 -3 9.5c-0.666992 4 -1.16699 8 -1.5 12s-0.5 8 -0.5 12c0 7.33301 0.333008 14.166 1 20.499s1.33398 13.166 2.00098 20.499
c0 3.33301 0.333008 6.66602 1 9.99902l-3 -3c-0.666992 -0.666992 -1 -1.66699 -1 -3l-10 -16.5l-10 -16.5l-12 -18c-7.33301 -12 -17.333 -15.667 -30 -11c-5.33301 2 -8.66602 6 -9.99902 12c-1.33301 12 -1 23 1 33c1.33301 5.33301 2.66602 11.833 3.99902 19.5
s3 14.834 5 21.501c2 7.33301 4.33301 15 7 23c1.33301 3.33301 2.5 6.83301 3.5 10.5s2.16699 7.16699 3.5 10.5c1.33301 2.66699 2.5 5.16699 3.5 7.5s3.16699 3.83301 6.5 4.5c4 1.33301 7.83301 1.83301 11.5 1.5s6.83398 -2.16602 9.50098 -5.49902
c2 -2 2.33301 -5.66699 1 -11l-6 -18c-2 -6 -3.66699 -12.333 -5 -19c-2.66699 -6.66699 -4.83398 -13.334 -6.50098 -20.001l-5.5 -21h1c2 2 3.33301 3.66699 4 5l27 42l4 6c1.33301 2 2.66602 3.66699 3.99902 5c4.66699 6.66699 10.667 10 18 10
c15.333 0 22.666 -7 21.999 -21c-0.666992 -5.33301 -1.33398 -10.333 -2.00098 -15s-1.33398 -9.66699 -2.00098 -15c-0.666992 -6 -1.16699 -11.833 -1.5 -17.5s-1.16602 -11.834 -2.49902 -18.501c2.66699 3.33301 4.33398 6.33301 5.00098 9c6.66699 12.667 14 25 22 37
s16.667 23.333 26 34c4 4.66699 8.33301 9 13 13c6.66699 6 14.667 7.66699 24 5c7.33301 -2 11 -7.33301 11 -16c-0.666992 -4.66699 -1.33398 -9 -2.00098 -13s-1.66699 -8 -3 -12c-2.66699 -10 -5 -19.833 -7 -29.5s-3.66699 -19.5 -5 -29.5
c4.66699 2.66699 10 6.83398 16 12.501s11.5 11.5 16.5 17.5l12.5 15.5c3.33301 4.33301 5 6.83301 5 7.5c1.33301 2.66699 2.83301 5.33398 4.5 8.00098l5.5 9l8 14c1.33301 1.33301 2.66602 2.33301 3.99902 3c2 1.33301 5 0 9 -4z" />
    <glyph glyph-name="n" unicode="n" horiz-adv-x="168" 
d="M182 156c1.33301 -1.33301 1.99805 -4.3291 1.99805 -8.99609c-0.666992 -5.33301 -2.5 -10.333 -5.5 -15s-5.83301 -9.33398 -8.5 -14.001c-1.33301 -2.66699 -2.83301 -5.33398 -4.5 -8.00098s-3.5 -5.33398 -5.5 -8.00098l-1 -2l-10.5 -14.5
c-5 -7 -11.167 -14 -18.5 -21s-15.166 -13.167 -23.499 -18.5s-16.833 -7.33301 -25.5 -6s-13.667 5.5 -15 12.5s-1.66602 13.167 -0.999023 18.5c2.66699 15.333 7.33398 31.666 14.001 48.999l5.5 15c1.66699 4.66699 3.16699 9.66699 4.5 15
c0.666992 0.666992 1 2.33398 1 5.00098c-4.66699 -4 -7.66699 -6.66699 -9 -8c-23.333 -23.333 -42.666 -48 -57.999 -74c-2 -4 -4.16699 -8 -6.5 -12s-4.5 -8 -6.5 -12c-4 -7.33301 -8.83301 -11.666 -14.5 -12.999s-11.167 -1.33301 -16.5 0c-4.66699 0 -7 3 -7 9
c0.666992 3.33301 1 6.66602 1 9.99902s0.333008 6.66602 1 9.99902l2 11.5l2 11.5v1c0.666992 3.33301 1.66699 7.5 3 12.5l4 14.5c2 5.33301 3.66699 10.666 5 15.999s2.83301 10.166 4.5 14.499s3.16699 8.83301 4.5 13.5c1.33301 3.33301 2.5 6.83301 3.5 10.5
s2.16699 7.16699 3.5 10.5c2 5.33301 5.66699 8 11 8c2.66699 0 6 -0.666992 10 -2c6.66699 -1.33301 9 -5.33301 7 -12c-1.33301 -6 -2.83301 -12 -4.5 -18s-3.5 -12 -5.5 -18c-1.33301 -6.66699 -3 -13 -5 -19s-3.66699 -12 -5 -18c2 1.33301 3.66699 3 5 5
c6.66699 9.33301 13.5 18.166 20.5 26.499s14.833 16.166 23.5 23.499l9.5 7.5c3 2.33301 6.16699 4.5 9.5 6.5c5.33301 4.66699 11.333 6.33398 18 5.00098c13.333 -2 18.666 -9.33301 15.999 -22c-1.33301 -7.33301 -3.16602 -14.166 -5.49902 -20.499
s-4.5 -13.166 -6.5 -20.499c-0.666992 -3.33301 -1.33398 -6.16602 -2.00098 -8.49902s-1.66699 -5.16602 -3 -8.49902l-3 -12l-4 -19c6.66699 1.33301 13.167 5.16602 19.5 11.499l13.5 13.5c6.66699 8 12.167 15.333 16.5 22s6.83301 10.334 7.5 11.001
c1.33301 3.33301 3 6.5 5 9.5s3.66699 6.16699 5 9.5l9 16c1.33301 1.33301 2.66602 2.33301 3.99902 3c2 1.33301 5.33301 -0.333984 10 -5.00098z" />
    <glyph glyph-name="o" unicode="o" horiz-adv-x="139" 
d="M145 160c1.33301 -0.666992 3.16797 -2.00098 5.50098 -4.00098s2.5 -4.33301 0.5 -7c-0.666992 -1.33301 -3 -3.83301 -7 -7.5s-9.33301 -7.83398 -16 -12.501s-14 -9.33398 -22 -14.001s-16.333 -8 -25 -10c0 -1.33301 -0.166992 -2.16602 -0.5 -2.49902
s-0.5 -1.16602 -0.5 -2.49902l-1 -1c-4 -14.667 -11.667 -28.667 -23 -42c-3.33301 -3.33301 -6.66602 -6.33301 -9.99902 -9s-7 -5 -11 -7c-9.33301 -4 -19.333 -5.33301 -30 -4c-16 2 -26 11.333 -30 28c-2.66699 10.667 -2.33398 23.334 0.999023 38.001
c3.33301 13.333 7.66602 26 12.999 38s12 23.667 20 35c2 2.66699 4 5.16699 6 7.5s4 4.5 6 6.5c6 4.66699 12.667 6 20 4c6 -2 7 -5 3 -9l-4 -6l-4 -6c1.33301 0 2.16602 0.166992 2.49902 0.5s0.833008 0.5 1.5 0.5c14.667 6.66699 26.334 3.33398 35.001 -9.99902
c4 -6.66699 6.66699 -15.334 8 -26.001c0 -2 0.166992 -4 0.5 -6s0.5 -4 0.5 -6v-2c7.33301 2.66699 14.166 6 20.499 10s12.166 8 17.499 12c6 4.66699 11.667 9.66699 17 15h2c0.666992 0 1.33398 -0.166992 2.00098 -0.5s1.33398 -0.5 2.00098 -0.5zM14.002 49.999
c12.667 5.33301 21.999 12.8291 27.999 22.4961s11 20.167 15 31.5c-8.66699 2.66699 -16 6.33398 -22 11.001c-5.33301 3.33301 -9.66602 8 -12.999 14s-3.33301 13.333 0 22l-4 -12c-1.33301 -3.33301 -2.5 -6.66602 -3.5 -9.99902s-1.83301 -6 -2.5 -8
c-1.33301 -4 -2.5 -8 -3.5 -12s-2.16699 -8 -3.5 -12c-1.33301 -5.33301 -2.16602 -10.166 -2.49902 -14.499s0.166992 -9.16602 1.5 -14.499c0.666992 -3.33301 1.66699 -6.5 3 -9.5s3.66602 -5.83301 6.99902 -8.5zM60.001 120.995c2 12.667 1.33398 23.333 -1.99902 32
c-0.666992 2.66699 -1.66699 5.33398 -3 8.00098c-2.66699 5.33301 -5.33398 8.33301 -8.00098 9c-1.33301 0 -2.83301 -2 -4.5 -6s-2.5 -8.66699 -2.5 -14c0 -11.333 2.66699 -18.833 8 -22.5s9 -5.83398 11 -6.50098h1z" />
    <glyph glyph-name="p" unicode="p" horiz-adv-x="230" 
d="M230 161c2.66699 -1.33301 4.99805 -2.66895 6.99805 -4.00195c3.33301 -3.33301 4 -7.33301 2 -12c-1.33301 -3.33301 -5.66602 -8 -12.999 -14s-16 -12.333 -26 -19s-20.833 -13.334 -32.5 -20.001s-22.5 -12 -32.5 -16c-0.666992 -0.666992 -1.66699 -1 -3 -1
c-2 -1.33301 -4.33301 -3.33301 -7 -6c-7.33301 -7.33301 -15 -14.166 -23 -20.499s-16.667 -11.166 -26 -14.499c-8.66699 -3.33301 -16.334 -5.33301 -23.001 -6c-7.33301 -1.33301 -14.666 0.666992 -21.999 6c-0.666992 -2 -1.66699 -4.33301 -3 -7
c-13.333 -29.333 -25.166 -58.833 -35.499 -88.5s-20.166 -59.5 -29.499 -89.5c-3.33301 -11.333 -6.83301 -22.333 -10.5 -33l-10.5 -32l-3 -9c-6 -14.667 -16.333 -20 -31 -16c-6.66699 0.666992 -9.66699 4.66699 -9 12l2 18c0.666992 6 1.66699 12.333 3 19
c5.33301 35.333 12.5 70.166 21.5 104.499s18.5 68.833 28.5 103.5l12.5 41l12.5 41l11 37c1.33301 2 2.16602 4.16699 2.49902 6.5s1.16602 4.5 2.49902 6.5l3 12l6 15c2.66699 4 6.83398 6.66699 12.501 8s10.167 0.333008 13.5 -3c2 -2 2.33301 -5 1 -9
c-2.66699 -11.333 -5.16699 -22.5 -7.5 -33.5s-5.16602 -22.167 -8.49902 -33.5l-17.5 -63.5l-17.5 -63.5c-0.666992 -2 -0.666992 -3.66699 0 -5c0.666992 1.33301 1.33398 2.83301 2.00098 4.5s1.33398 3.16699 2.00098 4.5l28 66.5
c9.33301 21.667 20.333 42.834 33 63.501l16 27c5.33301 8.66699 11.666 16.667 18.999 24c3.33301 3.33301 6.66602 6.5 9.99902 9.5s6.66602 6.16699 9.99902 9.5c8 6.66699 18.333 9.33398 31 8.00098c18.667 -2 28.667 -13.333 30 -34
c0 -13.333 -2.66699 -27.333 -8 -42c-1.33301 -2.66699 -2.33301 -5 -3 -7l16 9.5l23.5 14.5c8.33301 5.33301 16.333 10.833 24 16.5s13.167 10.5 16.5 14.5zM126.998 136.997c2.66699 8.66699 3.66797 17.668 3.00098 27.001c0 4 -1.33301 7.66699 -4 11l-6.5 -4.5
c-2.33301 -1.66699 -4.16602 -3.16699 -5.49902 -4.5l-13 -13.5l-12 -13.5c-9.33301 -13.333 -17.833 -26.833 -25.5 -40.5s-15.167 -27.834 -22.5 -42.501c0 -1.33301 -0.333008 -2.66602 -1 -3.99902c2.66699 1.33301 5 2.66602 7 3.99902l6 4
c7.33301 3.33301 14.166 6.83301 20.499 10.5s13.166 7.16699 20.499 10.5c2.66699 0.666992 5.33398 2.33398 8.00098 5.00098c5.33301 8 10.166 16.167 14.499 24.5s7.83301 17.166 10.5 26.499z" />
    <glyph glyph-name="q" unicode="q" 
d="M194 161c4 -1.33301 6.6582 -4.00195 7.99121 -8.00195c0.666992 -2 0.666992 -3.66699 0 -5l-10 -19l-17 -31l-4 -7l-6 -12c-17.333 -32 -32.833 -64.333 -46.5 -97s-26.167 -66 -37.5 -100c-4 -12.667 -8.16699 -24.834 -12.5 -36.501s-9.16602 -23.5 -14.499 -35.5
c-2.66699 -6.66699 -5.5 -13 -8.5 -19s-7.16699 -11.667 -12.5 -17c-8.66699 -10.667 -21 -16 -37 -16c-11.333 0 -18 5.33301 -20 16c-1.33301 7.33301 -1.66602 14.333 -0.999023 21s1.66699 13.334 3 20.001c5.33301 40.667 13.333 80.5 24 119.5
s22.334 78.167 35.001 117.5c0.666992 2 1.33398 4.16699 2.00098 6.5s1.33398 4.5 2.00098 6.5c0 0.666992 -0.333008 1.33398 -1 2.00098c-1.33301 -1.33301 -2.5 -2.66602 -3.5 -3.99902s-2.16699 -2.66602 -3.5 -3.99902c-11.333 -12.667 -25.666 -15.667 -42.999 -9
c-10 2.66699 -16 9 -18 19c0 1.33301 -0.166992 2.83301 -0.5 4.5s-0.5 3.16699 -0.5 4.5v5v5c0 5.33301 0.833008 10.833 2.5 16.5l4.5 15.5l6 16c3.33301 6.66699 7 13 11 19s8.66699 11.667 14 17c10.667 10.667 24 15 40 13
c4.66699 -1.33301 8.83398 -2.83301 12.501 -4.5s6.83398 -4.16699 9.50098 -7.5c1.33301 1.33301 2.16602 2.66602 2.49902 3.99902s0.833008 2.66602 1.5 3.99902c2 5.33301 5.66699 8 11 8h7c12 -0.666992 17 -6 15 -16c-2 -15.333 -5 -30.666 -9 -45.999l-20 -68.5
l-21 -68.5c-6 -21.333 -11.667 -42.833 -17 -64.5s-10 -43.167 -14 -64.5l-4 -25.5l-4 -24.5c0 -2.66699 0.333008 -4.66699 1 -6c0.666992 1.33301 1.33398 2.33301 2.00098 3s1.33398 1.66699 2.00098 3l14 36l14 36l24 61.5c8 20.333 17 40.5 27 60.5l22.5 44l23.5 44
c2 4.66699 5 9.66699 9 15l29 51l2 2c1.33301 1.33301 3 1.33301 5 0zM6.99121 64.998c4 2.66699 8.66895 7.33301 14.002 14s10.5 13.834 15.5 21.501s9.66699 15.5 14 23.5s7.16602 14.667 8.49902 20c-6.66699 2 -10 6.66699 -10 14c0 1.33301 -0.333008 3 -1 5
s-1.33398 4.33301 -2.00098 7c-6 -4.66699 -9.66699 -8.33398 -11 -11.001c-8.66699 -11.333 -15.5 -23.5 -20.5 -36.5s-8.16699 -26.167 -9.5 -39.5c-0.666992 -5.33301 0 -11.333 2 -18z" />
    <glyph glyph-name="r" unicode="r" horiz-adv-x="164" 
d="M175 160c2.66699 -2 3.99512 -3.99512 3.99512 -5.99512c0 -1.33301 -0.333008 -2.33301 -1 -3l-11 -16l-95 -123l-4 -4c-4 -4.66699 -8.83301 -9 -14.5 -13s-12.167 -4.33301 -19.5 -1c-4 2.66699 -6 7.16699 -6 13.5s0.666992 13.166 2 20.499v2
c2.66699 10.667 5.83398 20.334 9.50098 29.001s5.5 13.334 5.5 14.001c1.33301 3.33301 2.5 6.66602 3.5 9.99902s2.16699 6.66602 3.5 9.99902c2.66699 8.66699 3 17.667 1 27c-2 6.66699 -6 11 -12 13c-3.33301 0.666992 -6.33301 1.16699 -9 1.5
s-5.33398 1.16602 -8.00098 2.49902c-4.66699 1.33301 -10.834 3.83301 -18.501 7.5s-14.167 9.16699 -19.5 16.5c-6.66699 9.33301 -10 20.666 -10 33.999c-1.33301 18 0 35.5 4 52.5s10.667 34.167 20 51.5c6.66699 12.667 14.334 22.334 23.001 29.001
c4 4 9.33301 6.66699 16 8c17.333 2 27 -5.66699 29 -23c0.666992 -6.66699 0.333984 -13.334 -0.999023 -20.001l-4 -21c-3.33301 -18 -7.83301 -35.667 -13.5 -53s-12.167 -34.666 -19.5 -51.999c-0.666992 -1.33301 -1.66699 -4 -3 -8c1.33301 -2 3.33301 -3.33301 6 -4
s5 -1.66699 7 -3c3.33301 -0.666992 6.5 -1.33398 9.5 -2.00098s6.16699 -1.33398 9.5 -2.00098c11.333 -3.33301 19.833 -8.83301 25.5 -16.5s6.83398 -19.834 3.50098 -36.501c-1.33301 -8 -3.66602 -16 -6.99902 -24l-10 -23
c-1.33301 -3.33301 -2.66602 -6.5 -3.99902 -9.5s-2.66602 -6.16699 -3.99902 -9.5l101 129l2 2c0.666992 0.666992 3 1 7 1c1.33301 0 2 -0.333008 2 -1zM15.9951 196.005l8.00195 21.502c2.66699 7 5 14.167 7 21.5c3.33301 11.333 6.16602 22.166 8.49902 32.499
s3.83301 21.166 4.5 32.499c0 1.33301 -0.166992 2.83301 -0.5 4.5s-0.5 3.5 -0.5 5.5c-6 -8 -11.333 -17.667 -16 -29s-8.33398 -22.833 -11.001 -34.5s-4.33398 -23 -5.00098 -34s0 -20.167 2 -27.5c0.666992 1.33301 1.33398 2.5 2.00098 3.5s1 2.16699 1 3.5z" />
    <glyph glyph-name="s" unicode="s" horiz-adv-x="131" 
d="M138 160c2 -2 3.00195 -4.66895 3.00195 -8.00195l-2 -4l-54 -46l-19 -16l2 -8c1.33301 -5.33301 2 -9.66602 2 -12.999c1.33301 -6.66699 1.5 -13.167 0.5 -19.5s-2.16699 -12.833 -3.5 -19.5c-4.66699 -16 -12.334 -30.667 -23.001 -44
c-10.667 -12.667 -23.334 -21.667 -38.001 -27h-1c-1.33301 0 -2.33301 -0.166992 -3 -0.5s-1.66699 -0.5 -3 -0.5v-1c-12.667 -3.33301 -22.334 -3.33301 -29.001 0s-11 6 -13 8c-3.33301 4 -5.33301 8.5 -6 13.5s-0.5 9.83301 0.5 14.5s2.33301 9 4 13s3.16699 7 4.5 9
c17.333 26.667 38.333 49.334 63 68.001c2 2 4.33301 3.66699 7 5c0 0.666992 0.333008 1.33398 1 2.00098c-2 5.33301 -4.66699 10.333 -8 15l-10 14c-0.666992 0.666992 -1 1.16699 -1 1.5s-0.666992 1.16602 -2 2.49902s-2.83301 3 -4.5 5s-3.16699 3.66699 -4.5 5
l-8.5 12c-2.33301 3.33301 -3.83301 5 -4.5 5c-6.66699 12.667 -8.16699 26 -4.5 40s11.834 24.667 24.501 32c8 5.33301 16.333 7 25 5c14 -3.33301 20 -12.333 18 -27c-2.66699 -13.333 -8.66699 -25.666 -18 -36.999l-12 -12l36 -45l74 57
c2 3.33301 4.33301 3.66602 7 0.999023zM14.002 164.998c6.66699 5.33301 11.5 12.5 14.5 21.5s2.83301 16.5 -0.5 22.5c-11.333 -13.333 -16 -28 -14 -44zM36.002 41.998c0.666992 3.33301 1.16602 6.66895 1.49902 10.002s0.166016 6.66602 -0.500977 9.99902
c-1.33301 0 -2.33301 -0.333008 -3 -1c-23.333 -20.667 -41.333 -44.334 -54 -71.001c-1.33301 -2 -2.16602 -4.16699 -2.49902 -6.5s-0.833008 -4.5 -1.5 -6.5c0 -8.66699 3.66699 -11.334 11 -8.00098c6.66699 2.66699 13.334 7.33398 20.001 14.001
c14 16 23.667 35.667 29 59z" />
    <glyph glyph-name="t" unicode="t" horiz-adv-x="103" 
d="M290 312c2 -4.66699 0.333008 -6.99805 -5 -6.99805h-4c-21.333 0.666992 -42.833 0.666992 -64.5 0s-43.167 -1.66699 -64.5 -3c-12.667 -0.666992 -25.167 -1.16699 -37.5 -1.5s-24.833 -1.16602 -37.5 -2.49902h-6l-12 -45
c-6.66699 -24.667 -12.334 -49.334 -17.001 -74.001s-8.66699 -49.667 -12 -75c0 -6.66699 -0.333008 -11.667 -1 -15v-13c0 -3.33301 0.833008 -6.16602 2.5 -8.49902s5.5 -1.5 11.5 2.5c3.33301 2.66699 6.16602 5.16699 8.49902 7.5l5.5 5.5
c1.33301 1.33301 2.5 2.66602 3.5 3.99902s1.83301 2.33301 2.5 3c6.66699 8 12.334 16.333 17.001 25l15 27l8 16c0.666992 1.33301 2 2.33301 4 3c2.66699 1.33301 6 -0.333984 10 -5.00098c2 -2 3 -5 3 -9c-0.666992 -5.33301 -2.5 -10.333 -5.5 -15
s-5.83301 -9.33398 -8.5 -14.001l-9.5 -15.5l-9.5 -15.5l-12 -15.5c-4 -5 -8.33301 -9.83301 -13 -14.5c-1.33301 -1.33301 -2.5 -2.33301 -3.5 -3s-2.16699 -1.66699 -3.5 -3l-9 -6c-5.33301 -2.66699 -10 -4 -14 -4h-4h-4h-1c-1.33301 0 -4 0.666992 -8 2l-2 1
c-5.33301 2.66699 -9.33301 6.5 -12 11.5s-4.66699 10.333 -6 16s-2.16602 11.167 -2.49902 16.5s-0.5 10 -0.5 14s0.333008 9 1 15s1.33398 11.667 2.00098 17c0.666992 6.66699 1.66699 13 3 19v1c3.33301 23.333 7.66602 46.166 12.999 68.499s11.666 44.833 18.999 67.5
c0 0.666992 0.666992 2.33398 2 5.00098h-4c-11.333 -1.33301 -22.666 -2.5 -33.999 -3.5s-22.666 -2.16699 -33.999 -3.5c-16.667 -2 -33.167 -4.33301 -49.5 -7l-49.5 -8c-4 -0.666992 -8 -1.16699 -12 -1.5s-7.66699 1.16699 -11 4.5
c-3.33301 0.666992 -5.33301 2.66699 -6 6c-2 3.33301 -0.666992 5.66602 4 6.99902l46.5 8l46.5 8c13.333 2 26.833 3.66699 40.5 5l40.5 4c4.66699 0.666992 9.16699 1 13.5 1h14.5c3.33301 10 6.5 20 9.5 30s6.16699 19.667 9.5 29c0 0.666992 0.166992 1 0.5 1
s0.5 0.333008 0.5 1c0.666992 1.33301 2 2.83301 4 4.5s6 1.83398 12 0.500977c7.33301 -1.33301 12.166 -3.5 14.499 -6.5s2.83301 -5.5 1.5 -7.5c-2 -8.66699 -4.16699 -17 -6.5 -25s-4.5 -16.333 -6.5 -25h1l54 2l54 2h76c6.66699 0 11.667 -0.333008 15 -1
c6 -1.33301 10.333 -4 13 -8z" />
    <glyph glyph-name="u" unicode="u" 
d="M201 156c3.33301 -4.66699 3.33594 -10.334 0.00292969 -17.001c-2 -3.33301 -4 -7 -6 -11c-3.33301 -6 -6.83301 -11.833 -10.5 -17.5s-7.83398 -11.167 -12.501 -16.5c-5.33301 -7.33301 -11 -14 -17 -20c-4.66699 -4.66699 -9.33398 -9 -14.001 -13
s-9.66699 -6.66699 -15 -8c-6 -2.66699 -11.667 -2.33398 -17 0.999023c-4.66699 2.66699 -8.16699 6.33398 -10.5 11.001s-3.5 9.33398 -3.5 14.001c-0.666992 6.66699 -0.5 13.167 0.5 19.5s2.16699 12.833 3.5 19.5c0.666992 3.33301 1.33398 6.16602 2.00098 8.49902
s1 5.16602 1 8.49902l-5 -5l-21.5 -27l-21.5 -27l-10 -11.5l-10 -10.5c-8 -8 -17.667 -11.333 -29 -10c-12.667 2 -19.334 8 -20.001 18c-0.666992 4.66699 -1 9.16699 -1 13.5v13.5c0 4 0.333008 7.33301 1 10c0 2 0.5 5.16699 1.5 9.5s2.16699 8.83301 3.5 13.5
c1.33301 5.33301 2.66602 11 3.99902 17c0 1.33301 0.166992 2.33301 0.5 3s0.5 1.66699 0.5 3c0.666992 2 1 4 1 6s0.666992 4 2 6c1.33301 4 2.83301 8.16699 4.5 12.5s3.5 8.5 5.5 12.5c0 2 1.33301 3.66699 4 5c3.33301 2 7.5 2.66699 12.5 2s8.16699 -2 9.5 -4
c2 -2 2.33301 -5.33301 1 -10c-2 -9.33301 -4.16699 -18.333 -6.5 -27s-4.5 -17.667 -6.5 -27c-4 -15.333 -6 -30.666 -6 -45.999c0 -2 0.333008 -4 1 -6c1.33301 1.33301 2.5 2.66602 3.5 3.99902s2.16699 2.66602 3.5 3.99902c7.33301 9.33301 14.833 18.333 22.5 27
l23.5 27l15 17.5l15 17.5l7 7c7.33301 8 16.333 10.333 27 7c6 -1.33301 8.66699 -5.33301 8 -12c-0.666992 -3.33301 -1.33398 -6.33301 -2.00098 -9s-1.66699 -5.66699 -3 -9c-1.33301 -7.33301 -3 -14.166 -5 -20.499s-4 -13.166 -6 -20.499
c-1.33301 -6 -2.16602 -12 -2.49902 -18s-0.166016 -12.333 0.500977 -19c7.33301 5.33301 14.333 12.333 21 21s12.667 17.334 18 26.001c6.66699 9.33301 13 19.333 19 30l5 10l4 2c1.33301 0 2.66602 -0.166992 3.99902 -0.5s3.33301 -1.83301 6 -4.5z" />
    <glyph glyph-name="v" unicode="v" horiz-adv-x="142" 
d="M127 192c4 -1.33301 6.16699 -3.16797 6.5 -5.50098s-1.16699 -4.5 -4.5 -6.5c-2.66699 -1.33301 -5.33398 -4.33301 -8.00098 -9l-31 -46.5l-29 -47.5l-7.5 -11.5l-7.5 -11.5c-3.33301 -5.33301 -7.66602 -9.16602 -12.999 -11.499s-10.666 -3.33301 -15.999 -3
s-10.333 2 -15 5s-7.66699 6.83301 -9 11.5c-1.33301 3.33301 -2.33301 6.83301 -3 10.5l-2 10.5c0 4.66699 0.166992 10.167 0.5 16.5l1 19c0.333008 6.33301 0.833008 11.666 1.5 15.999s1 6.83301 1 7.5c2 6.66699 3.83301 13.334 5.5 20.001s3.5 13.334 5.5 20.001
c1.33301 6 4.33301 9.33301 9 10c3.33301 0.666992 6.5 1 9.5 1s5.5 -1.33301 7.5 -4c2 -2 2.33301 -4.33301 1 -7c-0.666992 -4.66699 -1.33398 -9 -2.00098 -13s-1.66699 -8 -3 -12c-2 -10 -3.83301 -20 -5.5 -30s-2.16699 -20 -1.5 -30c0 -4 0.166992 -7.83301 0.5 -11.5
s0.833008 -7.83398 1.5 -12.501c2 1.33301 3.33301 2.66602 4 3.99902s1.66699 2.66602 3 3.99902l30 43.5l31 44.5l8 11.5c2.66699 3.66699 5.66699 7.16699 9 10.5c3.33301 4.66699 7 7.33398 11 8.00098s7.66699 0.333984 11 -0.999023z" />
    <glyph glyph-name="w" unicode="w" horiz-adv-x="261" 
d="M274 156c2.66699 -5.33301 1 -9.65723 -5 -12.9902c-2.66699 -2 -5.33398 -3.33301 -8.00098 -4c0 -0.666992 -0.333008 -1 -1 -1s-1.16699 -0.166992 -1.5 -0.5s-0.833008 -0.5 -1.5 -0.5h-1l-2 -1c-3.33301 -1.33301 -7.83301 -2.33301 -13.5 -3
s-11.834 -0.833984 -18.501 -0.500977s-13.667 1.83301 -21 4.5s-15 6.66699 -23 12v-1c0 0.666992 -0.333008 1 -1 1c-1.33301 1.33301 -2.33301 2.16602 -3 2.49902s-1.66699 1.16602 -3 2.49902c0 -4.66699 -0.333008 -8 -1 -10
c-2.66699 -27.333 -11.334 -55 -26.001 -83c-3.33301 -6 -7.33301 -12 -12 -18c-5.33301 -6.66699 -11.666 -10.334 -18.999 -11.001s-13.666 -0.333984 -18.999 0.999023c-7.33301 3.33301 -11.666 8 -12.999 14c-1.33301 4.66699 -2.5 9.33398 -3.5 14.001
s-2.16699 9.33398 -3.5 14.001c-1.33301 5.33301 -2.16602 10.5 -2.49902 15.5s-1.16602 10.167 -2.49902 15.5c0 1.33301 -0.166992 2.66602 -0.5 3.99902s-0.5 2.66602 -0.5 3.99902c-3.33301 -3.33301 -5.33301 -6 -6 -8
c-5.33301 -6.66699 -10.166 -13.334 -14.499 -20.001s-9.16602 -13.334 -14.499 -20.001c-1.33301 -2.66699 -3 -5 -5 -7l-6 -6c-4.66699 -5.33301 -10.834 -7.83301 -18.501 -7.5s-13.167 1.83301 -16.5 4.5c-2.66699 2 -4.66699 5.66699 -6 11v16
c1.33301 19.333 4.66602 38.333 9.99902 57s11.666 37.334 18.999 56.001c2.66699 6 7.33398 9.66699 14.001 11s11.667 0 15 -4c2 -2 2.33301 -5 1 -9c-2 -7.33301 -4.16699 -14.833 -6.5 -22.5s-4.16602 -15.167 -5.49902 -22.5l-6 -25l-6 -25
c0 -4 -0.333008 -7.66699 -1 -11c2.66699 2.66699 4.33398 4.66699 5.00098 6c4.66699 6 9 12 13 18l13 19c1.33301 1.33301 2.5 2.83301 3.5 4.5s2.16699 3.5 3.5 5.5c4.66699 6 10.167 9.5 16.5 10.5s12.166 0.166992 17.499 -2.5c4.66699 -2 7.66699 -6.33301 9 -13
c1.33301 -4.66699 2.16602 -9.33398 2.49902 -14.001s1.16602 -9.33398 2.49902 -14.001c1.33301 -6 2.5 -12.167 3.5 -18.5s2.16699 -12.5 3.5 -18.5c0 -1.33301 0.166992 -2.66602 0.5 -3.99902s0.833008 -3 1.5 -5c1.33301 2 2.33301 3.66699 3 5
s1.66699 2.66602 3 3.99902c15.333 30 24.333 60.333 27 91c0.666992 4 1 8 1 12s0.333008 8 1 12c0 5.33301 2.66699 9 8 11c10.667 3.33301 19 1.66602 25 -5.00098c2.66699 -2 6 -5 10 -9c1.33301 -2 3.66602 -4.66699 6.99902 -8c4 -4 9.33301 -7.83301 16 -11.5
s14.667 -5.5 24 -5.5c2 0 3.33301 0.333008 4 1h1c8.66699 1.33301 15.667 3.66602 21 6.99902c6 4 10.333 2.66699 13 -4z" />
    <glyph glyph-name="x" unicode="x" horiz-adv-x="200" 
d="M209 161c2.66699 -0.666992 5.67383 -2.32715 9.00684 -4.99414s2.66602 -7.33398 -2.00098 -14.001c-2.66699 -3.33301 -7.5 -10.166 -14.5 -20.499l-21.5 -32.5l-29 -43c-0.666992 -0.666992 -1.16699 -1.33398 -1.5 -2.00098s-0.833008 -1.33398 -1.5 -2.00098
c-4 -5.33301 -7.66699 -9.66602 -11 -12.999c-6 -6 -12.833 -10 -20.5 -12s-15.167 -2.33301 -22.5 -1s-14.166 4.5 -20.499 9.5s-10.833 11.5 -13.5 19.5c-2 3.33301 -3.33301 7.16602 -4 11.499s-1.66699 8.83301 -3 13.5c0 2.66699 -0.333008 5 -1 7
c-0.666992 -1.33301 -1.33398 -2 -2.00098 -2s-1.33398 -0.666992 -2.00098 -2c-5.33301 -7.33301 -11.833 -12.833 -19.5 -16.5s-15.834 -6.83398 -24.501 -9.50098c-6.66699 -2 -13.334 -1.33301 -20.001 2c-5.33301 2.66699 -5.66602 6 -0.999023 10l12 6
c2 1.33301 3.83301 2.33301 5.5 3s3.16699 1.66699 4.5 3l8 8c2.66699 2.66699 5 5.66699 7 9c7.33301 12.667 13.166 25.5 17.499 38.5s7.16602 26.833 8.49902 41.5c0.666992 2.66699 0.833984 5.16699 0.500977 7.5s-0.5 5.16602 -0.5 8.49902l-4 -4
c-7.33301 -7.33301 -13.833 -15.5 -19.5 -24.5l-16.5 -27.5c-1.33301 -2.66699 -3.33301 -5 -6 -7c-5.33301 -4 -10.333 -6 -15 -6c-6.66699 0 -9.5 2.5 -8.5 7.5s1.83301 8.16699 2.5 9.5c5.33301 12 11.666 23.167 18.999 33.5s15.333 20.5 24 30.5
c0.666992 0.666992 1.16699 1 1.5 1s0.833008 0.333008 1.5 1c7.33301 8 16 11 26 9s17.333 -7.66699 22 -17c1.33301 -2.66699 2.16602 -5.33398 2.49902 -8.00098s0.833008 -5.33398 1.5 -8.00098c1.33301 0.666992 2.66602 1.66699 3.99902 3
c2.66699 2.66699 5 5.16699 7 7.5s4.33301 4.5 7 6.5c8.66699 6.66699 17.667 6.66699 27 0c4 -2.66699 5.66699 -6 5 -10c0 -4.66699 -2 -7 -6 -7s-7 -2.33301 -9 -7c-11.333 -20.667 -18.666 -43 -21.999 -67c-1.33301 -7.33301 -2 -14.833 -2 -22.5
s0.666992 -15.5 2 -23.5c1.33301 -6 4 -12.333 8 -19c1.33301 -4 4.66602 -4.66699 9.99902 -2c6.66699 4 12.667 9.66699 18 17c1.33301 1.33301 2.33301 2.5 3 3.5s1.66699 2.16699 3 3.5l68 99c0.666992 1.33301 1.66699 2.33301 3 3c2.66699 1.33301 4.66699 2 6 2z" />
    <glyph glyph-name="y" unicode="y" horiz-adv-x="176" 
d="M176 158c2.66699 2.66699 5.49512 3.67285 8.49512 3.00586s5.5 -2 7.5 -4s3.16699 -4.5 3.5 -7.5s-0.833984 -5.83301 -3.50098 -8.5c-17.333 -16 -34.333 -32.667 -51 -50l-49 -52c0 -0.666992 -0.166992 -1.33398 -0.5 -2.00098s-0.5 -1.33398 -0.5 -2.00098
c-8 -39.333 -19 -78.333 -33 -117c-5.33301 -15.333 -11.166 -30.166 -17.499 -44.499s-14.166 -28.833 -23.499 -43.5l-14 -20c-4.66699 -6.66699 -10 -13 -16 -19c-5.33301 -4.66699 -10.5 -8.66699 -15.5 -12s-10.833 -5.66602 -17.5 -6.99902
c-15.333 -3.33301 -27.833 -0.666016 -37.5 8.00098s-13.167 20.334 -10.5 35.001c1.33301 10.667 3.83301 21.167 7.5 31.5s8.16699 20.833 13.5 31.5c11.333 26 25.333 50.667 42 74s35 45.666 55 66.999l14 13.5c4.66699 4.33301 9.33398 9.16602 14.001 14.499
c3.33301 3.33301 5 5.66602 5 6.99902c1.33301 7.33301 2.83301 14.666 4.5 21.999s3.16699 14.666 4.5 21.999v3c-1.33301 -1.33301 -2.33301 -2.66602 -3 -3.99902l-2 -4c-3.33301 -4 -6.5 -8.16699 -9.5 -12.5l-9.5 -13.5c-8.66699 -10.667 -19.667 -14.334 -33 -11.001
c-10.667 2.66699 -18 9.66699 -22 21v1c0 0.666992 -0.166992 1 -0.5 1s-0.5 0.333008 -0.5 1c0 1.33301 -0.166992 2.33301 -0.5 3s-0.5 1.66699 -0.5 3c-2 10 -2 20.333 0 31s3.33301 16.667 4 18c1.33301 5.33301 3 10.333 5 15s4.33301 9.33398 7 14.001
c0.666992 1.33301 1.33398 2.5 2.00098 3.5s1.33398 2.16699 2.00098 3.5c8.66699 12.667 18.667 16 30 10c4.66699 -2.66699 5.66699 -7 3 -13l-8 -21.5c-2.66699 -7 -5 -14.167 -7 -21.5c-5.33301 -14 -7.33301 -28 -6 -42c0 -2.66699 0.333008 -5 1 -7
c2.66699 2 5 4.33301 7 7c3.33301 4.66699 6.83301 9.16699 10.5 13.5s7.16699 9.16602 10.5 14.499c6 9.33301 11.667 18.666 17 27.999s10 18.666 14 27.999c2 4.66699 5.66699 7 11 7c14.667 1.33301 21.334 -4.66699 20.001 -18l-2 -25.5l-2 -25.5
c0 -0.666992 -0.166992 -1.16699 -0.5 -1.5s-0.5 -0.833008 -0.5 -1.5c-0.666992 -1.33301 -1 -3.33301 -1 -6c-0.666992 -2 -1 -4.16699 -1 -6.5s-0.333008 -4.83301 -1 -7.5c12 13.333 24.333 26.166 37 38.499zM43.9951 1.00586l-0.00195312 3.00195l-3 -3
c-15.333 -18 -29.666 -36.5 -42.999 -55.5s-25 -39.167 -35 -60.5l-15 -37c-4.66699 -12 -7.66699 -24.333 -9 -37c-0.666992 -3.33301 -1.16699 -6.33301 -1.5 -9s0.166992 -5.66699 1.5 -9c4.66699 2 8.33398 4.5 11.001 7.5s5.66699 6.16699 9 9.5
c5.33301 6.66699 10.333 13.667 15 21s9 14.666 13 21.999c23.333 47.333 42.333 96.666 57 147.999z" />
    <glyph glyph-name="z" unicode="z" horiz-adv-x="164" 
d="M174 160c0.666992 0 2.16992 -1.1709 4.50293 -3.50391s2.83301 -5.16602 1.5 -8.49902c-0.666992 -0.666992 -1 -1.16699 -1 -1.5s-0.333008 -0.833008 -1 -1.5s-2.66699 -3 -6 -7l-13 -15l-18 -20l-20 -23l-53 -61h-1c0.666992 -0.666992 1 -1.33398 1 -2.00098v-2v-8
c-0.666992 -9.33301 -2 -18.333 -4 -27s-4.66699 -17.334 -8 -26.001c-7.33301 -21.333 -15.833 -42.333 -25.5 -63s-20.834 -40.667 -33.501 -60c-3.33301 -5.33301 -7.16602 -10.5 -11.499 -15.5s-8.5 -10.167 -12.5 -15.5c-10.667 -12 -22.334 -19.333 -35.001 -22
c-15.333 -4 -28.666 -0.666992 -39.999 10c-7.33301 7.33301 -9 16.333 -5 27l6 18c2 6 4.66699 12 8 18c10.667 21.333 22.667 41.833 36 61.5s27.666 38.834 42.999 57.501c7.33301 9.33301 15 18.333 23 27s15.667 17.667 23 27
c3.33301 3.33301 4.33301 6.66602 3 9.99902c-0.666992 1.33301 -1.16699 3 -1.5 5s-1.16602 4 -2.49902 6c-2 4.66699 -5.33301 7.33398 -10 8.00098l-9 3c-1.33301 0.666992 -3 1.16699 -5 1.5s-3.66699 1.16602 -5 2.49902c-10.667 6.66699 -12.334 15.667 -5.00098 27
l13.5 21.5l13.5 21.5c6.66699 8.66699 12.334 17.334 17.001 26.001c2.66699 4 4 7.33301 4 10c-2.66699 -1.33301 -4.66699 -2.66602 -6 -3.99902c-9.33301 -7.33301 -18 -15 -26 -23s-15 -17.333 -21 -28c-3.33301 -6 -8 -8.33301 -14 -7
c-4.66699 1.33301 -7.66699 3.33301 -9 6s-1.83301 5.5 -1.5 8.5s1.16602 5.66699 2.49902 8s2 3.83301 2 4.5c13.333 19.333 31 36 53 50c16.667 8.66699 30.667 10.334 42 5.00098c12 -6 15 -15.333 9 -28c-2 -3.33301 -3.83301 -6.66602 -5.5 -9.99902
s-3.83398 -6.66602 -6.50098 -9.99902c-8.66699 -14 -18.334 -28.667 -29.001 -44l-6 -10.5c-2 -3.66699 -3.66699 -7.83398 -5 -12.501c12.667 -3.33301 22.667 -8.66602 30 -15.999c0.666992 -1.33301 1.33398 -2.5 2.00098 -3.5s1.66699 -2.16699 3 -3.5l25.5 26l31.5 32
l28.5 29.5c8.33301 9 14.166 15.167 17.499 18.5c5.33301 6 9.33301 8.33301 12 7v-1zM28.0029 -30.0039c1.33301 4 1.99707 7.66797 1.99707 11.001c-1.33301 -2 -2.66602 -3.66699 -3.99902 -5l-4 -4c-18 -24 -34.667 -49.333 -50 -76
c-7.33301 -12 -14.166 -24.333 -20.499 -37s-12.166 -25.667 -17.499 -39c-1.33301 -2.66699 -2.66602 -7.33398 -3.99902 -14.001l1 -1c2 2 3.83301 3.66699 5.5 5s3.16699 3 4.5 5l11.5 13.5c3.66699 4.33301 7.16699 8.83301 10.5 13.5
c9.33301 13.333 17.666 27 24.999 41l21 42c3.33301 7.33301 6.5 14.833 9.5 22.5s6.16699 15.167 9.5 22.5z" />
    <glyph glyph-name="braceleft" unicode="{" horiz-adv-x="127" 
d="M56 210c4.66699 0 7.99609 -0.331055 9.99609 -0.998047c6 0 10.333 -0.666992 13 -2c9.33301 -3.33301 12.333 -11 9 -23c-2.66699 -7.33301 -5.16699 -14.833 -7.5 -22.5l-7.5 -23.5c-4.66699 -13.333 -8.66699 -27 -12 -41l-10 -42l-3 -21
c0 -2.66699 0.333008 -5.16699 1 -7.5s1.33398 -4.83301 2.00098 -7.5c3.33301 3.33301 6.33301 5.33301 9 6s5.66699 0.666992 9 0c6 -0.666992 7.33301 -4.33398 4 -11.001c-6.66699 -12 -16.334 -17 -29.001 -15c-7.33301 0.666992 -13.666 4.66699 -18.999 12
c-8 12 -11 25 -9 39c2.66699 27.333 9.33398 55.666 20.001 84.999c2.66699 9.33301 5.5 18.166 8.5 26.499l9.5 25.5c0.666992 0.666992 1 1.33398 1 2.00098s0.333008 1.33398 1 2.00098c-3.33301 0.666992 -6.33301 1 -9 1s-5.66699 0.333008 -9 1
c-5.33301 0.666992 -9.66602 3 -12.999 7c-2.66699 4 -3 7.33301 -1 10c2 3.33301 3.83301 6.66602 5.5 9.99902s3.5 6.66602 5.5 9.99902c3.33301 5.33301 7 10.833 11 16.5s7.66699 11.5 11 17.5c6.66699 10 12.334 20.667 17.001 32s9 22.666 13 33.999
c1.33301 4 2.83301 8 4.5 12s3.83398 8 6.50098 12c5.33301 10 12.333 16.833 21 20.5s17.667 3.83398 27 0.500977c2.66699 -1.33301 5 -3 7 -5c1.33301 -1.33301 1.66602 -2.66602 0.999023 -3.99902s-2 -2.33301 -4 -3
c-1.33301 -0.666992 -2.83301 -0.833984 -4.5 -0.500977s-3.16699 0.166016 -4.5 -0.500977c-2.66699 0 -4.33398 -0.333008 -5.00098 -1c-5.33301 -2.66699 -9.66602 -7.66699 -12.999 -15c-2 -6 -4.16699 -12 -6.5 -18s-4.16602 -12 -5.49902 -18
c-4 -13.333 -9.33301 -26.166 -16 -38.499s-14 -24.166 -22 -35.499c-2.66699 -4.66699 -5.33398 -9 -8.00098 -13z" />
    <glyph glyph-name="bar" unicode="|" horiz-adv-x="137" 
d="M134 355c-1.33301 -11.333 -3.66504 -22.3311 -6.99805 -32.998l-10 -33c-10.667 -32.667 -20.5 -65.334 -29.5 -98.001l-26.5 -100l-10.5 -41c-3.66699 -14 -7.5 -27.667 -11.5 -41c-1.33301 -6 -5.33301 -10 -12 -12s-11.667 -1 -15 3c-2.66699 0 -3 1 -1 3l12 55.5
c4 18.333 8.33301 36.833 13 55.5l10.5 44l11.5 44c2.66699 11.333 5.16699 22.833 7.5 34.5s5.16602 23.167 8.49902 34.5l14 45.5l14 45.5c1.33301 1.33301 2 2.66602 2 3.99902c4.66699 10 11.667 13.667 21 11c7.33301 -2 10.666 -6.66699 9.99902 -14
c0 -4 -0.333008 -6.66699 -1 -8z" />
    <glyph glyph-name="braceright" unicode="}" horiz-adv-x="120" 
d="M76 227c-2.66699 1.33301 -4.34473 2.33105 -5.01172 2.99805c-10 6 -13 14.667 -9 26c3.33301 8.66699 6.33301 16.834 9 24.501s5.66699 15.5 9 23.5c2.66699 7.33301 5 14.333 7 21s3.66699 13.667 5 21c0.666992 2.66699 0.833984 5.16699 0.500977 7.5
s-0.5 4.83301 -0.5 7.5c0 2 -1 3 -3 3c-3.33301 0 -6.16602 0.166992 -8.49902 0.5s-5.16602 0.833008 -8.49902 1.5c-1.33301 0 -2.33301 0.333008 -3 1s-1.66699 1.33398 -3 2.00098c-3.33301 3.33301 -2.66602 5.66602 2.00098 6.99902c1.33301 0 2.33301 0.166992 3 0.5
s1.66699 0.5 3 0.5c3.33301 0 6.83301 0.166992 10.5 0.5s7.16699 0.166016 10.5 -0.500977c17.333 -1.33301 26 -11.333 26 -30c0 -6.66699 -0.666992 -13 -2 -19s-3 -12 -5 -18l-10 -27.5l-10 -27.5c-2 -4 -3 -8.33301 -3 -13c-0.666992 -2 0.333008 -3.33301 3 -4
c1.33301 0 2.83301 -0.333008 4.5 -1s3.5 -1 5.5 -1l2 -2c4.66699 -1.33301 7 -4 7 -8c0 -2 -0.666992 -3.5 -2 -4.5s-2.66602 -2.16699 -3.99902 -3.5s-2.66602 -2.16602 -3.99902 -2.49902s-2.66602 -1.16602 -3.99902 -2.49902c-7.33301 -4 -12 -9.66699 -14 -17
c-2 -6 -3.83301 -12 -5.5 -18s-3.16699 -12.333 -4.5 -19c-3.33301 -13.333 -6.33301 -26.666 -9 -39.999l-8 -40c-3.33301 -13.333 -8 -25.5 -14 -36.5s-13 -21.833 -21 -32.5c-7.33301 -9.33301 -16.666 -12.333 -27.999 -9c-4.66699 1.33301 -7.33398 3.33301 -8.00098 6
c-1.33301 6 1.33398 9.66699 8.00098 11c2 0.666992 4 2 6 4c6.66699 9.33301 11.834 19.166 15.501 29.499s6.83398 21.166 9.50098 32.499l12 52l12 52c0.666992 2.66699 1.33398 5.16699 2.00098 7.5s1.33398 4.5 2.00098 6.5c4 10.667 10.333 18.334 19 23.001
c0.666992 0.666992 1.16699 1 1.5 1s0.833008 0.333008 1.5 1z" />
    <glyph glyph-name="asciitilde" unicode="~" horiz-adv-x="207" 
d="M15 94c1.33301 1.33301 2.66992 3.3291 4.00293 5.99609c4 6 8.33301 11.833 13 17.5s9.66699 10.834 15 15.501c12.667 12.667 24.667 16 36 10c6.66699 -2 11 -7 13 -15c0.666992 -2.66699 1.16699 -5 1.5 -7s0.5 -4.33301 0.5 -7c1.33301 -4 2 -7.33301 2 -10
c2.66699 2.66699 4.66699 4.33398 6 5.00098l13.5 13.5c4.33301 4.33301 9.16602 8.83301 14.499 13.5c2 2 4.16699 3.83301 6.5 5.5s4.83301 3.16699 7.5 4.5c4.66699 3.33301 9.33398 3.33301 14.001 0c4 -2 4 -5.33301 0 -10c-1.33301 -2 -3.33301 -4.33301 -6 -7
c-6 -7.33301 -12 -14.166 -18 -20.499l-18 -19.5c-0.666992 -1.33301 -1.33398 -2.16602 -2.00098 -2.49902s-1.33398 -1.16602 -2.00098 -2.49902c-6 -6.66699 -11.833 -10.167 -17.5 -10.5s-11.167 1.16699 -16.5 4.5c-4 3.33301 -6.33301 7.66602 -7 12.999l-3 24
c-0.666992 2 -1 3.83301 -1 5.5s-0.333008 3.83398 -1 6.50098c-2 -2 -3.83301 -3.66699 -5.5 -5s-3.5 -2.66602 -5.5 -3.99902c-4 -4 -7.83301 -8.33301 -11.5 -13l-11.5 -15c-6.66699 -10 -13.334 -11.333 -20.001 -4c0 0.666992 -0.666992 1.66699 -2 3
c0 1.33301 0.166992 2.16602 0.5 2.49902s0.5 1.16602 0.5 2.49902z" />
    <glyph glyph-name="quoteleft" unicode="&#x2018;" horiz-adv-x="107" 
d="M77 381l-8 1.99902c-2.66699 0.666992 -5 2 -7 4c-0.666992 0.666992 -1 2.33398 -1 5.00098c1.33301 8 3 16 5 24l6 24l4 16c2 7.33301 6.33301 10 13 8c4 0 8 -1.33301 12 -4c4.66699 -2.66699 6 -6.66699 4 -12l-6 -21c-2 -6.66699 -4.33301 -13.667 -7 -21l-5 -18
c-1.33301 -2 -2.5 -3.66699 -3.5 -5s-3.16699 -2 -6.5 -2z" />
    <glyph glyph-name="quoteright" unicode="&#x2019;" horiz-adv-x="106" 
d="M77 381l-8 1.99902c-2.66699 0.666992 -5 2 -7 4c-0.666992 0.666992 -1 2.33398 -1 5.00098c1.33301 8 3 16 5 24l6 24l4 16c2 7.33301 6.33301 10 13 8c4 0 8 -1.33301 12 -4c4.66699 -2.66699 6 -6.66699 4 -12l-6 -21c-2 -6.66699 -4.33301 -13.667 -7 -21l-5 -18
c-1.33301 -2 -2.5 -3.66699 -3.5 -5s-3.16699 -2 -6.5 -2z" />
    <glyph glyph-name="quotedblleft" unicode="&#x201c;" horiz-adv-x="142" 
d="M113 381l-8 1.99902c-2.66699 0.666992 -4.66699 2 -6 4c-1.33301 0.666992 -2 2.33398 -2 5.00098c1.33301 8 3 16 5 24l6 24l4 16c2 7.33301 6.33301 10 13 8c4 0 8 -1.33301 12 -4c4.66699 -2.66699 6 -6.66699 4 -12l-6 -21c-2 -6.66699 -4.33301 -13.667 -7 -21
l-5 -18c-1.33301 -2 -2.5 -3.66699 -3.5 -5s-3.16699 -2 -6.5 -2zM76 381.999l-10.998 3.99902c-3.33301 2.66699 -4.66602 6 -3.99902 10l6 32l7 28c1.33301 5.33301 4.66602 8 9.99902 8c6.66699 -1.33301 11.667 -2.66602 15 -3.99902
c2.66699 -1.33301 4.16699 -2.83301 4.5 -4.5s0.166016 -4.16699 -0.500977 -7.5l-13 -45c-0.666992 -3.33301 -2.33398 -8.33301 -5.00098 -15c-1.33301 -4 -4.33301 -6 -9 -6z" />
    <glyph glyph-name="quotedblright" unicode="&#x201d;" horiz-adv-x="143" 
d="M113 381l-8 1.99902c-2.66699 0.666992 -4.66699 2 -6 4c-1.33301 0.666992 -2 2.33398 -2 5.00098c1.33301 8 3 16 5 24l6 24l4 16c2 7.33301 6.33301 10 13 8c4 0 8 -1.33301 12 -4c4.66699 -2.66699 6 -6.66699 4 -12l-6 -21c-2 -6.66699 -4.33301 -13.667 -7 -21
l-5 -18c-1.33301 -2 -2.5 -3.66699 -3.5 -5s-3.16699 -2 -6.5 -2zM76 381.999l-10.998 3.99902c-3.33301 2.66699 -4.66602 6 -3.99902 10l6 32l7 28c1.33301 5.33301 4.66602 8 9.99902 8c6.66699 -1.33301 11.667 -2.66602 15 -3.99902
c2.66699 -1.33301 4.16699 -2.83301 4.5 -4.5s0.166016 -4.16699 -0.500977 -7.5l-13 -45c-0.666992 -3.33301 -2.33398 -8.33301 -5.00098 -15c-1.33301 -4 -4.33301 -6 -9 -6z" />
  </font>
</defs>
</svg>
